  0
SECTION
  2
HEADER
  9
$ACADVER
  1
AC1015
  9
$ACADMAINTVER
 70
     6
  9
$DWGCODEPAGE
  3
ANSI_1251
  9
$INSBASE
 10
0.0
 20
0.0
 30
0.0
  9
$EXTMIN
 10
0.0
 20
0.0
 30
0.0
  9
$EXTMAX
 10
420.0
 20
297.0
 30
0.0
  9
$LIMMIN
 10
0.0
 20
0.0
  9
$LIMMAX
 10
420.0
 20
297.0
  9
$ORTHOMODE
 70
     0
  9
$REGENMODE
 70
     1
  9
$FILLMODE
 70
     1
  9
$QTEXTMODE
 70
     0
  9
$MIRRTEXT
 70
     1
  9
$LTSCALE
 40
1.0
  9
$ATTMODE
 70
     1
  9
$TEXTSIZE
 40
3.5
  9
$TRACEWID
 40
1.0
  9
$TEXTSTYLE
  7
Standard
  9
$CLAYER
  8
0
  9
$CELTYPE
  6
ByLayer
  9
$CECOLOR
 62
   256
  9
$CELTSCALE
 40
1.0
  9
$DISPSILH
 70
     0
  9
$DIMSCALE
 40
1.0
  9
$DIMASZ
 40
3.556
  9
$DIMEXO
 40
1.0
  9
$DIMDLI
 40
3.75
  9
$DIMRND
 40
0.0
  9
$DIMDLE
 40
0.0
  9
$DIMEXE
 40
1.0
  9
$DIMTP
 40
0.0
  9
$DIMTM
 40
0.0
  9
$DIMTXT
 40
3.5
  9
$DIMCEN
 40
2.5
  9
$DIMTSZ
 40
0.0
  9
$DIMTOL
 70
     0
  9
$DIMLIM
 70
     0
  9
$DIMTIH
 70
     1
  9
$DIMTOH
 70
     1
  9
$DIMSE1
 70
     0
  9
$DIMSE2
 70
     0
  9
$DIMTAD
 70
     1
  9
$DIMZIN
 70
     1
  9
$DIMBLK
  1

  9
$DIMASO
 70
     1
  9
$DIMSHO
 70
     1
  9
$DIMPOST
  1

  9
$DIMAPOST
  1

  9
$DIMALT
 70
     0
  9
$DIMALTD
 70
     3
  9
$DIMALTF
 40
0.0393700787
  9
$DIMLFAC
 40
1.0
  9
$DIMTOFL
 70
     1
  9
$DIMTVP
 40
0.0
  9
$DIMTIX
 70
     0
  9
$DIMSOXD
 70
     0
  9
$DIMSAH
 70
     0
  9
$DIMBLK1
  1

  9
$DIMBLK2
  1

  9
$DIMSTYLE
  2
ISO-25
  9
$DIMCLRD
 70
     0
  9
$DIMCLRE
 70
     0
  9
$DIMCLRT
 70
     0
  9
$DIMTFAC
 40
1.0
  9
$DIMGAP
 40
1.524
  9
$DIMJUST
 70
     0
  9
$DIMSD1
 70
     0
  9
$DIMSD2
 70
     0
  9
$DIMTOLJ
 70
     0
  9
$DIMTZIN
 70
     1
  9
$DIMALTZ
 70
     0
  9
$DIMALTTZ
 70
     0
  9
$DIMUPT
 70
     0
  9
$DIMDEC
 70
     2
  9
$DIMTDEC
 70
     4
  9
$DIMALTU
 70
     2
  9
$DIMALTTD
 70
     3
  9
$DIMTXSTY
  7
Standard
  9
$DIMAUNIT
 70
     0
  9
$DIMADEC
 70
     2
  9
$DIMALTRND
 40
0.0
  9
$DIMAZIN
 70
     0
  9
$DIMDSEP
 70
    44
  9
$DIMATFIT
 70
     3
  9
$DIMFRAC
 70
     0
  9
$DIMLDRBLK
  1

  9
$DIMLUNIT
 70
     2
  9
$DIMLWD
 70
    -2
  9
$DIMLWE
 70
    -2
  9
$DIMTMOVE
 70
     0
  9
$LUNITS
 70
     2
  9
$LUPREC
 70
     2
  9
$SKETCHINC
 40
1.0
  9
$FILLETRAD
 40
10.0
  9
$AUNITS
 70
     0
  9
$AUPREC
 70
     2
  9
$MENU
  1
.
  9
$ELEVATION
 40
0.0
  9
$PELEVATION
 40
0.0
  9
$THICKNESS
 40
0.0
  9
$LIMCHECK
 70
     0
  9
$CHAMFERA
 40
0.0
  9
$CHAMFERB
 40
0.0
  9
$CHAMFERC
 40
0.0
  9
$CHAMFERD
 40
0.0
  9
$SKPOLY
 70
     0
  9
$TDCREATE
 40
2458449.459077396
  9
$TDUCREATE
 40
2458449.375744062
  9
$TDUPDATE
 40
2458449.459077755
  9
$TDUUPDATE
 40
2458449.375744422
  9
$TDINDWG
 40
0.0000000116
  9
$TDUSRTIMER
 40
0.0000000116
  9
$USRTIMER
 70
     1
  9
$ANGBASE
 50
0.0
  9
$ANGDIR
 70
     0
  9
$PDMODE
 70
     0
  9
$PDSIZE
 40
-1.0
  9
$PLINEWID
 40
0.0
  9
$SPLFRAME
 70
     0
  9
$SPLINETYPE
 70
     6
  9
$SPLINESEGS
 70
     8
  9
$HANDSEED
  5
377
  9
$SURFTAB1
 70
     6
  9
$SURFTAB2
 70
     6
  9
$SURFTYPE
 70
     6
  9
$SURFU
 70
     6
  9
$SURFV
 70
     6
  9
$UCSBASE
  2

  9
$UCSNAME
  2

  9
$UCSORG
 10
0.0
 20
0.0
 30
0.0
  9
$UCSXDIR
 10
1.0
 20
0.0
 30
0.0
  9
$UCSYDIR
 10
0.0
 20
1.0
 30
0.0
  9
$UCSORTHOREF
  2

  9
$UCSORTHOVIEW
 70
     0
  9
$UCSORGTOP
 10
0.0
 20
0.0
 30
0.0
  9
$UCSORGBOTTOM
 10
0.0
 20
0.0
 30
0.0
  9
$UCSORGLEFT
 10
0.0
 20
0.0
 30
0.0
  9
$UCSORGRIGHT
 10
0.0
 20
0.0
 30
0.0
  9
$UCSORGFRONT
 10
0.0
 20
0.0
 30
0.0
  9
$UCSORGBACK
 10
0.0
 20
0.0
 30
0.0
  9
$PUCSBASE
  2

  9
$PUCSNAME
  2

  9
$PUCSORG
 10
0.0
 20
0.0
 30
0.0
  9
$PUCSXDIR
 10
1.0
 20
0.0
 30
0.0
  9
$PUCSYDIR
 10
0.0
 20
1.0
 30
0.0
  9
$PUCSORTHOREF
  2

  9
$PUCSORTHOVIEW
 70
     0
  9
$PUCSORGTOP
 10
0.0
 20
0.0
 30
0.0
  9
$PUCSORGBOTTOM
 10
0.0
 20
0.0
 30
0.0
  9
$PUCSORGLEFT
 10
0.0
 20
0.0
 30
0.0
  9
$PUCSORGRIGHT
 10
0.0
 20
0.0
 30
0.0
  9
$PUCSORGFRONT
 10
0.0
 20
0.0
 30
0.0
  9
$PUCSORGBACK
 10
0.0
 20
0.0
 30
0.0
  9
$USERI1
 70
     0
  9
$USERI2
 70
     0
  9
$USERI3
 70
     0
  9
$USERI4
 70
     0
  9
$USERI5
 70
     0
  9
$USERR1
 40
0.0
  9
$USERR2
 40
0.0
  9
$USERR3
 40
0.0
  9
$USERR4
 40
0.0
  9
$USERR5
 40
0.0
  9
$WORLDVIEW
 70
     1
  9
$SHADEDGE
 70
     3
  9
$SHADEDIF
 70
    70
  9
$TILEMODE
 70
     1
  9
$MAXACTVP
 70
    64
  9
$PINSBASE
 10
0.0
 20
0.0
 30
0.0
  9
$PLIMCHECK
 70
     0
  9
$PEXTMIN
 10
1.0000000000E+20
 20
1.0000000000E+20
 30
1.0000000000E+20
  9
$PEXTMAX
 10
-1.0000000000E+20
 20
-1.0000000000E+20
 30
-1.0000000000E+20
  9
$PLIMMIN
 10
0.0
 20
0.0
  9
$PLIMMAX
 10
420.0
 20
297.0
  9
$UNITMODE
 70
     0
  9
$VISRETAIN
 70
     1
  9
$PLINEGEN
 70
     0
  9
$PSLTSCALE
 70
     1
  9
$TREEDEPTH
 70
  3020
  9
$CMLSTYLE
  2
Standard
  9
$CMLJUST
 70
     0
  9
$CMLSCALE
 40
20.0
  9
$PROXYGRAPHICS
 70
     1
  9
$MEASUREMENT
 70
     1
  9
$CELWEIGHT
370
    -1
  9
$ENDCAPS
280
     0
  9
$JOINSTYLE
280
     0
  9
$LWDISPLAY
290
     1
  9
$INSUNITS
 70
     4
  9
$HYPERLINKBASE
  1

  9
$STYLESHEET
  1

  9
$XEDIT
290
     1
  9
$CEPSNTYPE
380
     0
  9
$PSTYLEMODE
290
     1
  9
$FINGERPRINTGUID
  2
{D0EC573A-6D2E-4F66-8860-716C2B5D992B}
  9
$VERSIONGUID
  2
{FAEB1C32-E019-11D5-929B-00C0DF256EC4}
  9
$EXTNAMES
290
     1
  9
$PSVPSCALE
 40
0.0
  9
$OLESTARTUP
290
     0
  0
ENDSEC
  0
SECTION
  2
CLASSES
  0
CLASS
  1
ACDBDICTIONARYWDFLT
  2
AcDbDictionaryWithDefault
  3
ObjectDBX Classes
 90
        0
280
     0
281
     0
  0
CLASS
  1
VISUALSTYLE
  2
AcDbVisualStyle
  3
ObjectDBX Classes
 90
     4095
280
     0
281
     0
  0
CLASS
  1
MATERIAL
  2
AcDbMaterial
  3
ObjectDBX Classes
 90
     1153
280
     0
281
     0
  0
CLASS
  1
SCALE
  2
AcDbScale
  3
ObjectDBX Classes
 90
     1153
280
     0
281
     0
  0
CLASS
  1
TABLESTYLE
  2
AcDbTableStyle
  3
ObjectDBX Classes
 90
     4095
280
     0
281
     0
  0
CLASS
  1
MLEADERSTYLE
  2
AcDbMLeaderStyle
  3
ACDB_MLEADERSTYLE_CLASS
 90
     4095
280
     0
281
     0
  0
CLASS
  1
SUN
  2
AcDbSun
  3
SCENEOE
 90
     1153
280
     0
281
     0
  0
CLASS
  1
ACDBPLACEHOLDER
  2
AcDbPlaceHolder
  3
ObjectDBX Classes
 90
        0
280
     0
281
     0
  0
CLASS
  1
LAYOUT
  2
AcDbLayout
  3
ObjectDBX Classes
 90
        0
280
     0
281
     0
  0
ENDSEC
  0
SECTION
  2
TABLES
  0
TABLE
  2
VPORT
  5
8
330
0
100
AcDbSymbolTable
 70
     1
  0
VPORT
  5
29
330
8
100
AcDbSymbolTableRecord
100
AcDbViewportTableRecord
  2
*Active
 70
     0
 10
0.0
 20
0.0
 11
1.0
 21
1.0
 12
210.0
 22
148.5
 13
0.0
 23
0.0
 14
10.0
 24
10.0
 15
10.0
 25
10.0
 16
0.0
 26
0.0
 36
1.0
 17
0.0
 27
0.0
 37
0.0
 40
297.0
 41
1.4141414141
 42
50.0
 43
0.0
 44
0.0
 50
0.0
 51
0.0
 71
     0
 72
  2000
 73
     1
 74
     3
 75
     0
 76
     0
 77
     0
 78
     0
281
     0
 65
     1
110
0.0
120
0.0
130
0.0
111
1.0
121
0.0
131
0.0
112
0.0
122
1.0
132
0.0
 79
     0
146
0.0
  0
ENDTAB
  0
TABLE
  2
LTYPE
  5
5
330
0
100
AcDbSymbolTable
 70
     6
  0
LTYPE
  5
14
330
5
100
AcDbSymbolTableRecord
100
AcDbLinetypeTableRecord
  2
ByBlock
 70
     0
  3

 72
    65
 73
     0
 40
0.0
  0
LTYPE
  5
15
330
5
100
AcDbSymbolTableRecord
100
AcDbLinetypeTableRecord
  2
ByLayer
 70
     0
  3

 72
    65
 73
     0
 40
0.0
  0
LTYPE
  5
16
330
5
100
AcDbSymbolTableRecord
100
AcDbLinetypeTableRecord
  2
Continuous
 70
     0
  3
Solid line
 72
    65
 73
     0
 40
0.0
  0
LTYPE
  5
6E
330
5
100
AcDbSymbolTableRecord
100
AcDbLinetypeTableRecord
  2
HIDDEN
 70
     0
  3
Hidden __ __ __ __ __ __ __ __ __ __ __ __ __ __
 72
    65
 73
     2
 40
1.905
 49
1.27
 74
     0
 49
-0.635
 74
     0
  0
LTYPE
  5
6F
330
5
100
AcDbSymbolTableRecord
100
AcDbLinetypeTableRecord
  2
PHANTOM
 70
     0
  3
Phantom ______  __  __  ______  __  __  ______
 72
    65
 73
     6
 40
12.7
 49
6.35
 74
     0
 49
-1.27
 74
     0
 49
1.27
 74
     0
 49
-1.27
 74
     0
 49
1.27
 74
     0
 49
-1.27
 74
     0
  0
LTYPE
  5
70
330
5
100
AcDbSymbolTableRecord
100
AcDbLinetypeTableRecord
  2
CENTER
 70
     0
  3
Center ____ _ ____ _ ____ _ ____ _ ____ _ ____
 72
    65
 73
     4
 40
10.16
 49
6.35
 74
     0
 49
-1.27
 74
     0
 49
1.27
 74
     0
 49
-1.27
 74
     0
  0
LTYPE
  5
71
330
5
100
AcDbSymbolTableRecord
100
AcDbLinetypeTableRecord
  2
CENTERX2
 70
     0
  3
Center (2x) ________  __  ________  __  _____
 72
    65
 73
     4
 40
20.32
 49
12.7
 74
     0
 49
-2.54
 74
     0
 49
2.54
 74
     0
 49
-2.54
 74
     0
  0
LTYPE
  5
72
330
5
100
AcDbSymbolTableRecord
100
AcDbLinetypeTableRecord
  2
DOT2
 70
     0
  3
Dot (.5x) ........................................
 72
    65
 73
     2
 40
0.635
 49
0.0
 74
     0
 49
-0.635
 74
     0
  0
ENDTAB
  0
TABLE
  2
LAYER
  5
2
330
0
100
AcDbSymbolTable
 70
     3
  0
LAYER
  5
10
330
2
100
AcDbSymbolTableRecord
100
AcDbLayerTableRecord
  2
0
 70
     0
 62
     7
  6
Continuous
370
    -3
390
F
  0
LAYER
  5
73
330
2
100
AcDbSymbolTableRecord
100
AcDbLayerTableRecord
  2
SLD-0_0
 70
     0
 62
   179
  6
Continuous
370
    -3
390
F
  0
LAYER
  5
74
330
2
100
AcDbSymbolTableRecord
100
AcDbLayerTableRecord
  2
SLD-0
 70
     0
 62
   179
  6
Continuous
370
    -3
390
F
  0
ENDTAB
  0
TABLE
  2
STYLE
  5
3
330
0
100
AcDbSymbolTable
 70
     1
  0
STYLE
  5
11
330
3
100
AcDbSymbolTableRecord
100
AcDbTextStyleTableRecord
  2
Standard
 70
     0
 40
0.0
 41
1.0
 50
0.0
 71
     0
 42
3.5
  3
txt
  4

  0
ENDTAB
  0
TABLE
  2
VIEW
  5
6
330
0
100
AcDbSymbolTable
 70
     0
  0
ENDTAB
  0
TABLE
  2
UCS
  5
7
330
0
100
AcDbSymbolTable
 70
     0
  0
ENDTAB
  0
TABLE
  2
APPID
  5
9
330
0
100
AcDbSymbolTable
 70
     1
  0
APPID
  5
12
330
9
100
AcDbSymbolTableRecord
100
AcDbRegAppTableRecord
  2
ACAD
 70
     0
  0
ENDTAB
  0
TABLE
  2
DIMSTYLE
  5
A
330
0
100
AcDbSymbolTable
 70
     1
100
AcDbDimStyleTable
  0
DIMSTYLE
105
27
330
A
100
AcDbSymbolTableRecord
100
AcDbDimStyleTableRecord
  2
ISO-25
 70
     0
 41
2.5
 42
0.625
 43
3.75
 44
1.25
 73
     0
 74
     0
 77
     1
 78
     8
140
2.5
141
2.5
143
0.0393700787
147
0.625
171
     3
172
     1
178
     0
271
     2
272
     2
274
     3
278
    44
283
     0
284
     8
340
11
  0
ENDTAB
  0
TABLE
  2
BLOCK_RECORD
  5
1
330
0
100
AcDbSymbolTable
 70
    20
  0
BLOCK_RECORD
  5
1F
330
1
100
AcDbSymbolTableRecord
100
AcDbBlockTableRecord
  2
*Model_Space
340
22
  0
BLOCK_RECORD
  5
1B
330
1
100
AcDbSymbolTableRecord
100
AcDbBlockTableRecord
  2
*Paper_Space
340
1E
  0
BLOCK_RECORD
  5
23
330
1
100
AcDbSymbolTableRecord
100
AcDbBlockTableRecord
  2
*Paper_Space0
340
26
  0
BLOCK_RECORD
  5
75
330
1
100
AcDbSymbolTableRecord
100
AcDbBlockTableRecord
  2
TOP_MAIN
340
0
102
{BLKREFS
331
376
102
}
  0
BLOCK_RECORD
  5
FB
330
1
100
AcDbSymbolTableRecord
100
AcDbBlockTableRecord
  2
BACK
340
0
102
{BLKREFS
331
375
102
}
  0
BLOCK_RECORD
  5
116
330
1
100
AcDbSymbolTableRecord
100
AcDbBlockTableRecord
  2
BAG_SIDE
340
0
102
{BLKREFS
331
36D
331
36E
102
}
  0
BLOCK_RECORD
  5
13C
330
1
100
AcDbSymbolTableRecord
100
AcDbBlockTableRecord
  2
BAG_INTO_SIDE
340
0
102
{BLKREFS
331
36C
331
36F
102
}
  0
BLOCK_RECORD
  5
14B
330
1
100
AcDbSymbolTableRecord
100
AcDbBlockTableRecord
  2
BAG_FRONT
340
0
102
{BLKREFS
331
370
102
}
  0
BLOCK_RECORD
  5
16A
330
1
100
AcDbSymbolTableRecord
100
AcDbBlockTableRecord
  2
BAG_TOP_FIRST
340
0
102
{BLKREFS
331
371
102
}
  0
BLOCK_RECORD
  5
179
330
1
100
AcDbSymbolTableRecord
100
AcDbBlockTableRecord
  2
BOTTOM_MAIN
340
0
102
{BLKREFS
331
372
102
}
  0
BLOCK_RECORD
  5
207
330
1
100
AcDbSymbolTableRecord
100
AcDbBlockTableRecord
  2
BAG_TOP_SECOND
340
0
102
{BLKREFS
331
373
102
}
  0
BLOCK_RECORD
  5
21E
330
1
100
AcDbSymbolTableRecord
100
AcDbBlockTableRecord
  2
CLAMP_SMALL
340
0
102
{BLKREFS
331
357
331
35E
331
360
331
361
331
362
331
364
331
366
331
367
331
374
102
}
  0
BLOCK_RECORD
  5
229
330
1
100
AcDbSymbolTableRecord
100
AcDbBlockTableRecord
  2
CLAMP_BIG
340
0
102
{BLKREFS
331
35A
331
35B
331
35D
331
365
102
}
  0
BLOCK_RECORD
  5
238
330
1
100
AcDbSymbolTableRecord
100
AcDbBlockTableRecord
  2
MOTOR_HOLDER
340
0
102
{BLKREFS
331
35C
331
35F
102
}
  0
BLOCK_RECORD
  5
263
330
1
100
AcDbSymbolTableRecord
100
AcDbBlockTableRecord
  2
TOP_SMALL
340
0
102
{BLKREFS
331
363
102
}
  0
BLOCK_RECORD
  5
29F
330
1
100
AcDbSymbolTableRecord
100
AcDbBlockTableRecord
  2
WALL_SMALL
340
0
102
{BLKREFS
331
350
331
358
102
}
  0
BLOCK_RECORD
  5
2BA
330
1
100
AcDbSymbolTableRecord
100
AcDbBlockTableRecord
  2
WALL_BIG
340
0
102
{BLKREFS
331
351
331
353
331
356
331
359
102
}
  0
BLOCK_RECORD
  5
2DD
330
1
100
AcDbSymbolTableRecord
100
AcDbBlockTableRecord
  2
WALL_FRONT
340
0
102
{BLKREFS
331
352
102
}
  0
BLOCK_RECORD
  5
2F6
330
1
100
AcDbSymbolTableRecord
100
AcDbBlockTableRecord
  2
WALL_MEDIUM
340
0
102
{BLKREFS
331
354
331
355
102
}
  0
BLOCK_RECORD
  5
319
330
1
100
AcDbSymbolTableRecord
100
AcDbBlockTableRecord
  2
ball_holder_small
340
0
102
{BLKREFS
331
34E
331
34F
102
}
  0
BLOCK_RECORD
  5
32C
330
1
100
AcDbSymbolTableRecord
100
AcDbBlockTableRecord
  2
ball_holder
340
0
102
{BLKREFS
331
368
331
369
102
}
  0
BLOCK_RECORD
  5
343
330
1
100
AcDbSymbolTableRecord
100
AcDbBlockTableRecord
  2
Block17
340
0
102
{BLKREFS
331
36A
331
36B
102
}
  0
ENDTAB
  0
ENDSEC
  0
SECTION
  2
BLOCKS
  0
BLOCK
  5
20
330
1F
100
AcDbEntity
  8
0
100
AcDbBlockBegin
  2
*Model_Space
 70
     0
 10
0.0
 20
0.0
 30
0.0
  3
*Model_Space
  1

  0
ENDBLK
  5
21
330
1F
100
AcDbEntity
  8
0
100
AcDbBlockEnd
  0
BLOCK
  5
1C
330
1B
100
AcDbEntity
 67
     1
  8
0
100
AcDbBlockBegin
  2
*Paper_Space
 70
     0
 10
0.0
 20
0.0
 30
0.0
  3
*Paper_Space
  1

  0
ENDBLK
  5
1D
330
1B
100
AcDbEntity
 67
     1
  8
0
100
AcDbBlockEnd
  0
BLOCK
  5
24
330
23
100
AcDbEntity
  8
0
100
AcDbBlockBegin
  2
*Paper_Space0
 70
     0
 10
0.0
 20
0.0
 30
0.0
  3
*Paper_Space0
  1

  0
ENDBLK
  5
25
330
23
100
AcDbEntity
  8
0
100
AcDbBlockEnd
  0
BLOCK
  5
76
330
75
100
AcDbEntity
  8
0
100
AcDbBlockBegin
  2
TOP_MAIN
 70
     0
 10
0.0
 20
0.0
 30
0.0
  3
TOP_MAIN
  1

  0
CIRCLE
  5
78
330
75
100
AcDbEntity
  8
SLD-0_0
  6
Continuous
 62
   179
370
    25
100
AcDbCircle
 10
90.5
 20
176.5
 30
0.0
 40
2.0
  0
CIRCLE
  5
79
330
75
100
AcDbEntity
  8
SLD-0_0
  6
Continuous
 62
   179
370
    25
100
AcDbCircle
 10
161.5
 20
176.5
 30
0.0
 40
2.0
  0
CIRCLE
  5
7A
330
75
100
AcDbEntity
  8
SLD-0_0
  6
Continuous
 62
   179
370
    25
100
AcDbCircle
 10
161.5
 20
247.5
 30
0.0
 40
2.0
  0
ARC
  5
7B
330
75
100
AcDbEntity
  8
SLD-0_0
  6
Continuous
 62
   179
370
    25
100
AcDbCircle
 10
126.0
 20
126.0
 30
0.0
 40
125.9999999999867
100
AcDbArc
 50
156.1237922694
 51
23.8762077306
  0
CIRCLE
  5
7C
330
75
100
AcDbEntity
  8
SLD-0_0
  6
Continuous
 62
   179
370
    25
100
AcDbCircle
 10
126.0
 20
212.0
 30
0.0
 40
35.0
  0
CIRCLE
  5
7D
330
75
100
AcDbEntity
  8
SLD-0_0
  6
Continuous
 62
   179
370
    25
100
AcDbCircle
 10
90.5
 20
247.5
 30
0.0
 40
2.0
  0
LINE
  5
7E
330
75
100
AcDbEntity
  8
SLD-0_0
  6
Continuous
 62
   179
370
    25
100
AcDbLine
 10
166.0
 20
21.0
 30
0.0
 11
166.0
 21
16.0
 31
0.0
  0
LINE
  5
7F
330
75
100
AcDbEntity
  8
SLD-0_0
  6
Continuous
 62
   179
370
    25
100
AcDbLine
 10
166.0
 20
16.0
 30
0.0
 11
151.0
 21
16.0
 31
0.0
  0
LINE
  5
80
330
75
100
AcDbEntity
  8
SLD-0_0
  6
Continuous
 62
   179
370
    25
100
AcDbLine
 10
151.0
 20
16.0
 30
0.0
 11
151.0
 21
21.0
 31
0.0
  0
LINE
  5
81
330
75
100
AcDbEntity
  8
SLD-0_0
  6
Continuous
 62
   179
370
    25
100
AcDbLine
 10
151.0
 20
21.0
 30
0.0
 11
166.0
 21
21.0
 31
0.0
  0
LINE
  5
82
330
75
100
AcDbEntity
  8
SLD-0_0
  6
Continuous
 62
   179
370
    25
100
AcDbLine
 10
181.0
 20
46.0
 30
0.0
 11
181.0
 21
31.0
 31
0.0
  0
LINE
  5
83
330
75
100
AcDbEntity
  8
SLD-0_0
  6
Continuous
 62
   179
370
    25
100
AcDbLine
 10
181.0
 20
31.0
 30
0.0
 11
176.0
 21
31.0
 31
0.0
  0
LINE
  5
84
330
75
100
AcDbEntity
  8
SLD-0_0
  6
Continuous
 62
   179
370
    25
100
AcDbLine
 10
176.0
 20
31.0
 30
0.0
 11
176.0
 21
46.0
 31
0.0
  0
LINE
  5
85
330
75
100
AcDbEntity
  8
SLD-0_0
  6
Continuous
 62
   179
370
    25
100
AcDbLine
 10
176.0
 20
46.0
 30
0.0
 11
181.0
 21
46.0
 31
0.0
  0
LINE
  5
86
330
75
100
AcDbEntity
  8
SLD-0_0
  6
Continuous
 62
   179
370
    25
100
AcDbLine
 10
86.0
 20
116.0
 30
0.0
 11
86.0
 21
101.0
 31
0.0
  0
LINE
  5
87
330
75
100
AcDbEntity
  8
SLD-0_0
  6
Continuous
 62
   179
370
    25
100
AcDbLine
 10
86.0
 20
101.0
 30
0.0
 11
81.0
 21
101.0
 31
0.0
  0
LINE
  5
88
330
75
100
AcDbEntity
  8
SLD-0_0
  6
Continuous
 62
   179
370
    25
100
AcDbLine
 10
81.0
 20
101.0
 30
0.0
 11
81.0
 21
116.0
 31
0.0
  0
LINE
  5
89
330
75
100
AcDbEntity
  8
SLD-0_0
  6
Continuous
 62
   179
370
    25
100
AcDbLine
 10
81.0
 20
116.0
 30
0.0
 11
86.0
 21
116.0
 31
0.0
  0
LINE
  5
8A
330
75
100
AcDbEntity
  8
SLD-0_0
  6
Continuous
 62
   179
370
    25
100
AcDbLine
 10
71.0
 20
61.0
 30
0.0
 11
56.0
 21
61.0
 31
0.0
  0
LINE
  5
8B
330
75
100
AcDbEntity
  8
SLD-0_0
  6
Continuous
 62
   179
370
    25
100
AcDbLine
 10
56.0
 20
61.0
 30
0.0
 11
56.0
 21
66.0
 31
0.0
  0
LINE
  5
8C
330
75
100
AcDbEntity
  8
SLD-0_0
  6
Continuous
 62
   179
370
    25
100
AcDbLine
 10
56.0
 20
66.0
 30
0.0
 11
71.0
 21
66.0
 31
0.0
  0
LINE
  5
8D
330
75
100
AcDbEntity
  8
SLD-0_0
  6
Continuous
 62
   179
370
    25
100
AcDbLine
 10
71.0
 20
66.0
 30
0.0
 11
71.0
 21
61.0
 31
0.0
  0
LINE
  5
8E
330
75
100
AcDbEntity
  8
SLD-0_0
  6
Continuous
 62
   179
370
    25
100
AcDbLine
 10
186.0
 20
61.0
 30
0.0
 11
176.0
 21
61.0
 31
0.0
  0
LINE
  5
8F
330
75
100
AcDbEntity
  8
SLD-0_0
  6
Continuous
 62
   179
370
    25
100
AcDbLine
 10
176.0
 20
61.0
 30
0.0
 11
176.0
 21
66.0
 31
0.0
  0
LINE
  5
90
330
75
100
AcDbEntity
  8
SLD-0_0
  6
Continuous
 62
   179
370
    25
100
AcDbLine
 10
176.0
 20
66.0
 30
0.0
 11
186.0
 21
66.0
 31
0.0
  0
LINE
  5
91
330
75
100
AcDbEntity
  8
SLD-0_0
  6
Continuous
 62
   179
370
    25
100
AcDbLine
 10
186.0
 20
66.0
 30
0.0
 11
186.0
 21
61.0
 31
0.0
  0
LINE
  5
92
330
75
100
AcDbEntity
  8
SLD-0_0
  6
Continuous
 62
   179
370
    25
100
AcDbLine
 10
71.0
 20
156.0
 30
0.0
 11
71.0
 21
151.0
 31
0.0
  0
LINE
  5
93
330
75
100
AcDbEntity
  8
SLD-0_0
  6
Continuous
 62
   179
370
    25
100
AcDbLine
 10
71.0
 20
151.0
 30
0.0
 11
56.0
 21
151.0
 31
0.0
  0
LINE
  5
94
330
75
100
AcDbEntity
  8
SLD-0_0
  6
Continuous
 62
   179
370
    25
100
AcDbLine
 10
56.0
 20
151.0
 30
0.0
 11
56.0
 21
156.0
 31
0.0
  0
LINE
  5
95
330
75
100
AcDbEntity
  8
SLD-0_0
  6
Continuous
 62
   179
370
    25
100
AcDbLine
 10
56.0
 20
156.0
 30
0.0
 11
71.0
 21
156.0
 31
0.0
  0
LINE
  5
96
330
75
100
AcDbEntity
  8
SLD-0_0
  6
Continuous
 62
   179
370
    25
100
AcDbLine
 10
36.0
 20
96.0
 30
0.0
 11
41.0
 21
96.0
 31
0.0
  0
LINE
  5
97
330
75
100
AcDbEntity
  8
SLD-0_0
  6
Continuous
 62
   179
370
    25
100
AcDbLine
 10
41.0
 20
96.0
 30
0.0
 11
41.0
 21
76.0
 31
0.0
  0
LINE
  5
98
330
75
100
AcDbEntity
  8
SLD-0_0
  6
Continuous
 62
   179
370
    25
100
AcDbLine
 10
41.0
 20
76.0
 30
0.0
 11
36.0
 21
76.0
 31
0.0
  0
LINE
  5
99
330
75
100
AcDbEntity
  8
SLD-0_0
  6
Continuous
 62
   179
370
    25
100
AcDbLine
 10
36.0
 20
76.0
 30
0.0
 11
36.0
 21
96.0
 31
0.0
  0
LINE
  5
9A
330
75
100
AcDbEntity
  8
SLD-0_0
  6
Continuous
 62
   179
370
    25
100
AcDbLine
 10
226.0
 20
96.0
 30
0.0
 11
231.0
 21
96.0
 31
0.0
  0
LINE
  5
9B
330
75
100
AcDbEntity
  8
SLD-0_0
  6
Continuous
 62
   179
370
    25
100
AcDbLine
 10
231.0
 20
96.0
 30
0.0
 11
231.0
 21
76.0
 31
0.0
  0
LINE
  5
9C
330
75
100
AcDbEntity
  8
SLD-0_0
  6
Continuous
 62
   179
370
    25
100
AcDbLine
 10
231.0
 20
76.0
 30
0.0
 11
226.0
 21
76.0
 31
0.0
  0
LINE
  5
9D
330
75
100
AcDbEntity
  8
SLD-0_0
  6
Continuous
 62
   179
370
    25
100
AcDbLine
 10
226.0
 20
76.0
 30
0.0
 11
226.0
 21
96.0
 31
0.0
  0
LINE
  5
9E
330
75
100
AcDbEntity
  8
SLD-0_0
  6
Continuous
 62
   179
370
    25
100
AcDbLine
 10
161.0
 20
141.0
 30
0.0
 11
166.0
 21
141.0
 31
0.0
  0
LINE
  5
9F
330
75
100
AcDbEntity
  8
SLD-0_0
  6
Continuous
 62
   179
370
    25
100
AcDbLine
 10
166.0
 20
141.0
 30
0.0
 11
166.0
 21
121.0
 31
0.0
  0
LINE
  5
A0
330
75
100
AcDbEntity
  8
SLD-0_0
  6
Continuous
 62
   179
370
    25
100
AcDbLine
 10
166.0
 20
121.0
 30
0.0
 11
161.0
 21
121.0
 31
0.0
  0
LINE
  5
A1
330
75
100
AcDbEntity
  8
SLD-0_0
  6
Continuous
 62
   179
370
    25
100
AcDbLine
 10
161.0
 20
121.0
 30
0.0
 11
161.0
 21
141.0
 31
0.0
  0
LINE
  5
A2
330
75
100
AcDbEntity
  8
SLD-0_0
  6
Continuous
 62
   179
370
    25
100
AcDbLine
 10
86.0
 20
121.0
 30
0.0
 11
86.0
 21
141.0
 31
0.0
  0
LINE
  5
A3
330
75
100
AcDbEntity
  8
SLD-0_0
  6
Continuous
 62
   179
370
    25
100
AcDbLine
 10
86.0
 20
141.0
 30
0.0
 11
91.0
 21
141.0
 31
0.0
  0
LINE
  5
A4
330
75
100
AcDbEntity
  8
SLD-0_0
  6
Continuous
 62
   179
370
    25
100
AcDbLine
 10
91.0
 20
141.0
 30
0.0
 11
91.0
 21
121.0
 31
0.0
  0
LINE
  5
A5
330
75
100
AcDbEntity
  8
SLD-0_0
  6
Continuous
 62
   179
370
    25
100
AcDbLine
 10
91.0
 20
121.0
 30
0.0
 11
86.0
 21
121.0
 31
0.0
  0
LINE
  5
A6
330
75
100
AcDbEntity
  8
SLD-0_0
  6
Continuous
 62
   179
370
    25
100
AcDbLine
 10
154.8
 20
262.0
 30
0.0
 11
154.8
 21
257.0
 31
0.0
  0
LINE
  5
A7
330
75
100
AcDbEntity
  8
SLD-0_0
  6
Continuous
 62
   179
370
    25
100
AcDbLine
 10
154.8
 20
257.0
 30
0.0
 11
144.8
 21
257.0
 31
0.0
  0
LINE
  5
A8
330
75
100
AcDbEntity
  8
SLD-0_0
  6
Continuous
 62
   179
370
    25
100
AcDbLine
 10
144.8
 20
257.0
 30
0.0
 11
144.8
 21
262.0
 31
0.0
  0
LINE
  5
A9
330
75
100
AcDbEntity
  8
SLD-0_0
  6
Continuous
 62
   179
370
    25
100
AcDbLine
 10
144.8
 20
262.0
 30
0.0
 11
154.8
 21
262.0
 31
0.0
  0
LINE
  5
AA
330
75
100
AcDbEntity
  8
SLD-0_0
  6
Continuous
 62
   179
370
    25
100
AcDbLine
 10
112.2
 20
267.0
 30
0.0
 11
112.2
 21
252.0
 31
0.0
  0
LINE
  5
AB
330
75
100
AcDbEntity
  8
SLD-0_0
  6
Continuous
 62
   179
370
    25
100
AcDbLine
 10
92.2
 20
267.0
 30
0.0
 11
112.2
 21
267.0
 31
0.0
  0
LINE
  5
AC
330
75
100
AcDbEntity
  8
SLD-0_0
  6
Continuous
 62
   179
370
    25
100
AcDbLine
 10
92.2
 20
252.0
 30
0.0
 11
92.2
 21
267.0
 31
0.0
  0
LINE
  5
AD
330
75
100
AcDbEntity
  8
SLD-0_0
  6
Continuous
 62
   179
370
    25
100
AcDbLine
 10
81.0
 20
252.0
 30
0.0
 11
92.2
 21
252.0
 31
0.0
  0
LINE
  5
AE
330
75
100
AcDbEntity
  8
SLD-0_0
  6
Continuous
 62
   179
370
    25
100
AcDbLine
 10
81.0
 20
237.0
 30
0.0
 11
81.0
 21
252.0
 31
0.0
  0
LINE
  5
AF
330
75
100
AcDbEntity
  8
SLD-0_0
  6
Continuous
 62
   179
370
    25
100
AcDbLine
 10
86.0
 20
237.0
 30
0.0
 11
81.0
 21
237.0
 31
0.0
  0
LINE
  5
B0
330
75
100
AcDbEntity
  8
SLD-0_0
  6
Continuous
 62
   179
370
    25
100
AcDbLine
 10
86.0
 20
222.0
 30
0.0
 11
86.0
 21
237.0
 31
0.0
  0
LINE
  5
B1
330
75
100
AcDbEntity
  8
SLD-0_0
  6
Continuous
 62
   179
370
    25
100
AcDbLine
 10
81.0
 20
222.0
 30
0.0
 11
86.0
 21
222.0
 31
0.0
  0
LINE
  5
B2
330
75
100
AcDbEntity
  8
SLD-0_0
  6
Continuous
 62
   179
370
    25
100
AcDbLine
 10
81.0
 20
202.0
 30
0.0
 11
81.0
 21
222.0
 31
0.0
  0
LINE
  5
B3
330
75
100
AcDbEntity
  8
SLD-0_0
  6
Continuous
 62
   179
370
    25
100
AcDbLine
 10
86.0
 20
202.0
 30
0.0
 11
81.0
 21
202.0
 31
0.0
  0
LINE
  5
B4
330
75
100
AcDbEntity
  8
SLD-0_0
  6
Continuous
 62
   179
370
    25
100
AcDbLine
 10
86.0
 20
187.0
 30
0.0
 11
86.0
 21
202.0
 31
0.0
  0
LINE
  5
B5
330
75
100
AcDbEntity
  8
SLD-0_0
  6
Continuous
 62
   179
370
    25
100
AcDbLine
 10
81.0
 20
187.0
 30
0.0
 11
86.0
 21
187.0
 31
0.0
  0
LINE
  5
B6
330
75
100
AcDbEntity
  8
SLD-0_0
  6
Continuous
 62
   179
370
    25
100
AcDbLine
 10
81.0
 20
162.0
 30
0.0
 11
81.0
 21
187.0
 31
0.0
  0
LINE
  5
B7
330
75
100
AcDbEntity
  8
SLD-0_0
  6
Continuous
 62
   179
370
    25
100
AcDbLine
 10
41.0
 20
162.0
 30
0.0
 11
81.0
 21
162.0
 31
0.0
  0
LINE
  5
B8
330
75
100
AcDbEntity
  8
SLD-0_0
  6
Continuous
 62
   179
370
    25
100
AcDbLine
 10
41.0
 20
177.0
 30
0.0
 11
41.0
 21
162.0
 31
0.0
  0
LINE
  5
B9
330
75
100
AcDbEntity
  8
SLD-0_0
  6
Continuous
 62
   179
370
    25
100
AcDbLine
 10
10.782813782
 20
177.0000000001
 30
0.0
 11
41.0
 21
177.0
 31
0.0
  0
LINE
  5
BA
330
75
100
AcDbEntity
  8
SLD-0_0
  6
Continuous
 62
   179
370
    25
100
AcDbLine
 10
211.0
 20
177.0000000001
 30
0.0
 11
241.217186218
 21
177.0000000001
 31
0.0
  0
LINE
  5
BB
330
75
100
AcDbEntity
  8
SLD-0_0
  6
Continuous
 62
   179
370
    25
100
AcDbLine
 10
211.0
 20
162.0
 30
0.0
 11
211.0
 21
177.0000000001
 31
0.0
  0
LINE
  5
BC
330
75
100
AcDbEntity
  8
SLD-0_0
  6
Continuous
 62
   179
370
    25
100
AcDbLine
 10
171.0
 20
162.0
 30
0.0
 11
211.0
 21
162.0
 31
0.0
  0
LINE
  5
BD
330
75
100
AcDbEntity
  8
SLD-0_0
  6
Continuous
 62
   179
370
    25
100
AcDbLine
 10
171.0
 20
187.0
 30
0.0
 11
171.0
 21
162.0
 31
0.0
  0
LINE
  5
BE
330
75
100
AcDbEntity
  8
SLD-0_0
  6
Continuous
 62
   179
370
    25
100
AcDbLine
 10
166.0
 20
187.0
 30
0.0
 11
171.0
 21
187.0
 31
0.0
  0
LINE
  5
BF
330
75
100
AcDbEntity
  8
SLD-0_0
  6
Continuous
 62
   179
370
    25
100
AcDbLine
 10
166.0
 20
202.0
 30
0.0
 11
166.0
 21
187.0
 31
0.0
  0
LINE
  5
C0
330
75
100
AcDbEntity
  8
SLD-0_0
  6
Continuous
 62
   179
370
    25
100
AcDbLine
 10
171.0
 20
202.0
 30
0.0
 11
166.0
 21
202.0
 31
0.0
  0
LINE
  5
C1
330
75
100
AcDbEntity
  8
SLD-0_0
  6
Continuous
 62
   179
370
    25
100
AcDbLine
 10
171.0
 20
222.0
 30
0.0
 11
171.0
 21
202.0
 31
0.0
  0
LINE
  5
C2
330
75
100
AcDbEntity
  8
SLD-0_0
  6
Continuous
 62
   179
370
    25
100
AcDbLine
 10
166.0
 20
222.0
 30
0.0
 11
171.0
 21
222.0
 31
0.0
  0
LINE
  5
C3
330
75
100
AcDbEntity
  8
SLD-0_0
  6
Continuous
 62
   179
370
    25
100
AcDbLine
 10
166.0
 20
237.0
 30
0.0
 11
166.0
 21
222.0
 31
0.0
  0
LINE
  5
C4
330
75
100
AcDbEntity
  8
SLD-0_0
  6
Continuous
 62
   179
370
    25
100
AcDbLine
 10
171.0
 20
237.0
 30
0.0
 11
166.0
 21
237.0
 31
0.0
  0
LINE
  5
C5
330
75
100
AcDbEntity
  8
SLD-0_0
  6
Continuous
 62
   179
370
    25
100
AcDbLine
 10
171.0
 20
252.0
 30
0.0
 11
171.0
 21
237.0
 31
0.0
  0
LINE
  5
C6
330
75
100
AcDbEntity
  8
SLD-0_0
  6
Continuous
 62
   179
370
    25
100
AcDbLine
 10
159.8
 20
252.0
 30
0.0
 11
171.0
 21
252.0
 31
0.0
  0
LINE
  5
C7
330
75
100
AcDbEntity
  8
SLD-0_0
  6
Continuous
 62
   179
370
    25
100
AcDbLine
 10
159.8
 20
267.0
 30
0.0
 11
159.8
 21
252.0
 31
0.0
  0
LINE
  5
C8
330
75
100
AcDbEntity
  8
SLD-0_0
  6
Continuous
 62
   179
370
    25
100
AcDbLine
 10
139.8
 20
267.0
 30
0.0
 11
159.8
 21
267.0
 31
0.0
  0
LINE
  5
C9
330
75
100
AcDbEntity
  8
SLD-0_0
  6
Continuous
 62
   179
370
    25
100
AcDbLine
 10
139.8
 20
252.0
 30
0.0
 11
139.8
 21
267.0
 31
0.0
  0
LINE
  5
CA
330
75
100
AcDbEntity
  8
SLD-0_0
  6
Continuous
 62
   179
370
    25
100
AcDbLine
 10
112.2
 20
252.0
 30
0.0
 11
139.8
 21
252.0
 31
0.0
  0
LINE
  5
CB
330
75
100
AcDbEntity
  8
SLD-0_0
  6
Continuous
 62
   179
370
    25
100
AcDbLine
 10
97.2
 20
257.0
 30
0.0
 11
97.2
 21
262.0
 31
0.0
  0
LINE
  5
CC
330
75
100
AcDbEntity
  8
SLD-0_0
  6
Continuous
 62
   179
370
    25
100
AcDbLine
 10
97.2
 20
262.0
 30
0.0
 11
107.2
 21
262.0
 31
0.0
  0
LINE
  5
CD
330
75
100
AcDbEntity
  8
SLD-0_0
  6
Continuous
 62
   179
370
    25
100
AcDbLine
 10
107.2
 20
262.0
 30
0.0
 11
107.2
 21
257.0
 31
0.0
  0
LINE
  5
CE
330
75
100
AcDbEntity
  8
SLD-0_0
  6
Continuous
 62
   179
370
    25
100
AcDbLine
 10
107.2
 20
257.0
 30
0.0
 11
97.2
 21
257.0
 31
0.0
  0
LINE
  5
CF
330
75
100
AcDbEntity
  8
SLD-0_0
  6
Continuous
 62
   179
370
    25
100
AcDbLine
 10
226.0
 20
121.0
 30
0.0
 11
226.0
 21
141.0
 31
0.0
  0
LINE
  5
D0
330
75
100
AcDbEntity
  8
SLD-0_0
  6
Continuous
 62
   179
370
    25
100
AcDbLine
 10
226.0
 20
141.0
 30
0.0
 11
231.0
 21
141.0
 31
0.0
  0
LINE
  5
D1
330
75
100
AcDbEntity
  8
SLD-0_0
  6
Continuous
 62
   179
370
    25
100
AcDbLine
 10
231.0
 20
141.0
 30
0.0
 11
231.0
 21
121.0
 31
0.0
  0
LINE
  5
D2
330
75
100
AcDbEntity
  8
SLD-0_0
  6
Continuous
 62
   179
370
    25
100
AcDbLine
 10
231.0
 20
121.0
 30
0.0
 11
226.0
 21
121.0
 31
0.0
  0
LINE
  5
D3
330
75
100
AcDbEntity
  8
SLD-0_0
  6
Continuous
 62
   179
370
    25
100
AcDbLine
 10
216.0
 20
156.0
 30
0.0
 11
216.0
 21
151.0
 31
0.0
  0
LINE
  5
D4
330
75
100
AcDbEntity
  8
SLD-0_0
  6
Continuous
 62
   179
370
    25
100
AcDbLine
 10
216.0
 20
151.0
 30
0.0
 11
206.0
 21
151.0
 31
0.0
  0
LINE
  5
D5
330
75
100
AcDbEntity
  8
SLD-0_0
  6
Continuous
 62
   179
370
    25
100
AcDbLine
 10
206.0
 20
151.0
 30
0.0
 11
206.0
 21
156.0
 31
0.0
  0
LINE
  5
D6
330
75
100
AcDbEntity
  8
SLD-0_0
  6
Continuous
 62
   179
370
    25
100
AcDbLine
 10
206.0
 20
156.0
 30
0.0
 11
216.0
 21
156.0
 31
0.0
  0
LINE
  5
D7
330
75
100
AcDbEntity
  8
SLD-0_0
  6
Continuous
 62
   179
370
    25
100
AcDbLine
 10
161.0
 20
96.0
 30
0.0
 11
166.0
 21
96.0
 31
0.0
  0
LINE
  5
D8
330
75
100
AcDbEntity
  8
SLD-0_0
  6
Continuous
 62
   179
370
    25
100
AcDbLine
 10
166.0
 20
96.0
 30
0.0
 11
166.0
 21
76.0
 31
0.0
  0
LINE
  5
D9
330
75
100
AcDbEntity
  8
SLD-0_0
  6
Continuous
 62
   179
370
    25
100
AcDbLine
 10
166.0
 20
76.0
 30
0.0
 11
161.0
 21
76.0
 31
0.0
  0
LINE
  5
DA
330
75
100
AcDbEntity
  8
SLD-0_0
  6
Continuous
 62
   179
370
    25
100
AcDbLine
 10
161.0
 20
76.0
 30
0.0
 11
161.0
 21
96.0
 31
0.0
  0
LINE
  5
DB
330
75
100
AcDbEntity
  8
SLD-0_0
  6
Continuous
 62
   179
370
    25
100
AcDbLine
 10
36.0
 20
141.0
 30
0.0
 11
41.0
 21
141.0
 31
0.0
  0
LINE
  5
DC
330
75
100
AcDbEntity
  8
SLD-0_0
  6
Continuous
 62
   179
370
    25
100
AcDbLine
 10
41.0
 20
141.0
 30
0.0
 11
41.0
 21
121.0
 31
0.0
  0
LINE
  5
DD
330
75
100
AcDbEntity
  8
SLD-0_0
  6
Continuous
 62
   179
370
    25
100
AcDbLine
 10
41.0
 20
121.0
 30
0.0
 11
36.0
 21
121.0
 31
0.0
  0
LINE
  5
DE
330
75
100
AcDbEntity
  8
SLD-0_0
  6
Continuous
 62
   179
370
    25
100
AcDbLine
 10
36.0
 20
121.0
 30
0.0
 11
36.0
 21
141.0
 31
0.0
  0
LINE
  5
DF
330
75
100
AcDbEntity
  8
SLD-0_0
  6
Continuous
 62
   179
370
    25
100
AcDbLine
 10
86.0
 20
96.0
 30
0.0
 11
91.0
 21
96.0
 31
0.0
  0
LINE
  5
E0
330
75
100
AcDbEntity
  8
SLD-0_0
  6
Continuous
 62
   179
370
    25
100
AcDbLine
 10
91.0
 20
96.0
 30
0.0
 11
91.0
 21
76.0
 31
0.0
  0
LINE
  5
E1
330
75
100
AcDbEntity
  8
SLD-0_0
  6
Continuous
 62
   179
370
    25
100
AcDbLine
 10
91.0
 20
76.0
 30
0.0
 11
86.0
 21
76.0
 31
0.0
  0
LINE
  5
E2
330
75
100
AcDbEntity
  8
SLD-0_0
  6
Continuous
 62
   179
370
    25
100
AcDbLine
 10
86.0
 20
76.0
 30
0.0
 11
86.0
 21
96.0
 31
0.0
  0
LINE
  5
E3
330
75
100
AcDbEntity
  8
SLD-0_0
  6
Continuous
 62
   179
370
    25
100
AcDbLine
 10
186.0
 20
151.0
 30
0.0
 11
176.0
 21
151.0
 31
0.0
  0
LINE
  5
E4
330
75
100
AcDbEntity
  8
SLD-0_0
  6
Continuous
 62
   179
370
    25
100
AcDbLine
 10
176.0
 20
151.0
 30
0.0
 11
176.0
 21
156.0
 31
0.0
  0
LINE
  5
E5
330
75
100
AcDbEntity
  8
SLD-0_0
  6
Continuous
 62
   179
370
    25
100
AcDbLine
 10
176.0
 20
156.0
 30
0.0
 11
186.0
 21
156.0
 31
0.0
  0
LINE
  5
E6
330
75
100
AcDbEntity
  8
SLD-0_0
  6
Continuous
 62
   179
370
    25
100
AcDbLine
 10
186.0
 20
156.0
 30
0.0
 11
186.0
 21
151.0
 31
0.0
  0
LINE
  5
E7
330
75
100
AcDbEntity
  8
SLD-0_0
  6
Continuous
 62
   179
370
    25
100
AcDbLine
 10
216.0
 20
61.0
 30
0.0
 11
206.0
 21
61.0
 31
0.0
  0
LINE
  5
E8
330
75
100
AcDbEntity
  8
SLD-0_0
  6
Continuous
 62
   179
370
    25
100
AcDbLine
 10
206.0
 20
61.0
 30
0.0
 11
206.0
 21
66.0
 31
0.0
  0
LINE
  5
E9
330
75
100
AcDbEntity
  8
SLD-0_0
  6
Continuous
 62
   179
370
    25
100
AcDbLine
 10
206.0
 20
66.0
 30
0.0
 11
216.0
 21
66.0
 31
0.0
  0
LINE
  5
EA
330
75
100
AcDbEntity
  8
SLD-0_0
  6
Continuous
 62
   179
370
    25
100
AcDbLine
 10
216.0
 20
66.0
 30
0.0
 11
216.0
 21
61.0
 31
0.0
  0
LINE
  5
EB
330
75
100
AcDbEntity
  8
SLD-0_0
  6
Continuous
 62
   179
370
    25
100
AcDbLine
 10
116.0
 20
21.0
 30
0.0
 11
116.0
 21
36.0
 31
0.0
  0
LINE
  5
EC
330
75
100
AcDbEntity
  8
SLD-0_0
  6
Continuous
 62
   179
370
    25
100
AcDbLine
 10
116.0
 20
36.0
 30
0.0
 11
136.0
 21
36.0
 31
0.0
  0
LINE
  5
ED
330
75
100
AcDbEntity
  8
SLD-0_0
  6
Continuous
 62
   179
370
    25
100
AcDbLine
 10
136.0
 20
36.0
 30
0.0
 11
136.0
 21
21.0
 31
0.0
  0
LINE
  5
EE
330
75
100
AcDbEntity
  8
SLD-0_0
  6
Continuous
 62
   179
370
    25
100
AcDbLine
 10
136.0
 20
21.0
 30
0.0
 11
116.0
 21
21.0
 31
0.0
  0
LINE
  5
EF
330
75
100
AcDbEntity
  8
SLD-0_0
  6
Continuous
 62
   179
370
    25
100
AcDbLine
 10
166.0
 20
101.0
 30
0.0
 11
166.0
 21
116.0
 31
0.0
  0
LINE
  5
F0
330
75
100
AcDbEntity
  8
SLD-0_0
  6
Continuous
 62
   179
370
    25
100
AcDbLine
 10
166.0
 20
116.0
 30
0.0
 11
171.0
 21
116.0
 31
0.0
  0
LINE
  5
F1
330
75
100
AcDbEntity
  8
SLD-0_0
  6
Continuous
 62
   179
370
    25
100
AcDbLine
 10
171.0
 20
116.0
 30
0.0
 11
171.0
 21
101.0
 31
0.0
  0
LINE
  5
F2
330
75
100
AcDbEntity
  8
SLD-0_0
  6
Continuous
 62
   179
370
    25
100
AcDbLine
 10
171.0
 20
101.0
 30
0.0
 11
166.0
 21
101.0
 31
0.0
  0
LINE
  5
F3
330
75
100
AcDbEntity
  8
SLD-0_0
  6
Continuous
 62
   179
370
    25
100
AcDbLine
 10
71.0
 20
31.0
 30
0.0
 11
71.0
 21
46.0
 31
0.0
  0
LINE
  5
F4
330
75
100
AcDbEntity
  8
SLD-0_0
  6
Continuous
 62
   179
370
    25
100
AcDbLine
 10
71.0
 20
46.0
 30
0.0
 11
76.0
 21
46.0
 31
0.0
  0
LINE
  5
F5
330
75
100
AcDbEntity
  8
SLD-0_0
  6
Continuous
 62
   179
370
    25
100
AcDbLine
 10
76.0
 20
46.0
 30
0.0
 11
76.0
 21
31.0
 31
0.0
  0
LINE
  5
F6
330
75
100
AcDbEntity
  8
SLD-0_0
  6
Continuous
 62
   179
370
    25
100
AcDbLine
 10
76.0
 20
31.0
 30
0.0
 11
71.0
 21
31.0
 31
0.0
  0
LINE
  5
F7
330
75
100
AcDbEntity
  8
SLD-0_0
  6
Continuous
 62
   179
370
    25
100
AcDbLine
 10
86.0
 20
16.0
 30
0.0
 11
86.0
 21
21.0
 31
0.0
  0
LINE
  5
F8
330
75
100
AcDbEntity
  8
SLD-0_0
  6
Continuous
 62
   179
370
    25
100
AcDbLine
 10
86.0
 20
21.0
 30
0.0
 11
101.0
 21
21.0
 31
0.0
  0
LINE
  5
F9
330
75
100
AcDbEntity
  8
SLD-0_0
  6
Continuous
 62
   179
370
    25
100
AcDbLine
 10
101.0
 20
21.0
 30
0.0
 11
101.0
 21
16.0
 31
0.0
  0
LINE
  5
FA
330
75
100
AcDbEntity
  8
SLD-0_0
  6
Continuous
 62
   179
370
    25
100
AcDbLine
 10
101.0
 20
16.0
 30
0.0
 11
86.0
 21
16.0
 31
0.0
  0
ENDBLK
  5
77
330
75
100
AcDbEntity
  8
0
100
AcDbBlockEnd
  0
BLOCK
  5
FC
330
FB
100
AcDbEntity
  8
0
100
AcDbBlockBegin
  2
BACK
 70
     0
 10
0.0
 20
0.0
 30
0.0
  3
BACK
  1

  0
LINE
  5
FE
330
FB
100
AcDbEntity
  8
SLD-0_0
  6
Continuous
 62
   179
370
    25
100
AcDbLine
 10
0.0
 20
40.0
 30
0.0
 11
0.0
 21
5.0
 31
0.0
  0
LINE
  5
FF
330
FB
100
AcDbEntity
  8
SLD-0_0
  6
Continuous
 62
   179
370
    25
100
AcDbLine
 10
0.0
 20
5.0
 30
0.0
 11
18.8
 21
5.0
 31
0.0
  0
LINE
  5
100
330
FB
100
AcDbEntity
  8
SLD-0_0
  6
Continuous
 62
   179
370
    25
100
AcDbLine
 10
18.8
 20
5.0
 30
0.0
 11
18.8
 21
0.0
 31
0.0
  0
LINE
  5
101
330
FB
100
AcDbEntity
  8
SLD-0_0
  6
Continuous
 62
   179
370
    25
100
AcDbLine
 10
18.8
 20
0.0
 30
0.0
 11
33.8
 21
0.0
 31
0.0
  0
LINE
  5
102
330
FB
100
AcDbEntity
  8
SLD-0_0
  6
Continuous
 62
   179
370
    25
100
AcDbLine
 10
33.8
 20
0.0
 30
0.0
 11
33.8
 21
5.0
 31
0.0
  0
LINE
  5
103
330
FB
100
AcDbEntity
  8
SLD-0_0
  6
Continuous
 62
   179
370
    25
100
AcDbLine
 10
33.8
 20
5.0
 30
0.0
 11
113.8
 21
5.0
 31
0.0
  0
LINE
  5
104
330
FB
100
AcDbEntity
  8
SLD-0_0
  6
Continuous
 62
   179
370
    25
100
AcDbLine
 10
113.8
 20
5.0
 30
0.0
 11
113.8
 21
0.0
 31
0.0
  0
LINE
  5
105
330
FB
100
AcDbEntity
  8
SLD-0_0
  6
Continuous
 62
   179
370
    25
100
AcDbLine
 10
113.8
 20
0.0
 30
0.0
 11
128.8
 21
0.0
 31
0.0
  0
LINE
  5
106
330
FB
100
AcDbEntity
  8
SLD-0_0
  6
Continuous
 62
   179
370
    25
100
AcDbLine
 10
128.8
 20
0.0
 30
0.0
 11
128.8
 21
5.0
 31
0.0
  0
LINE
  5
107
330
FB
100
AcDbEntity
  8
SLD-0_0
  6
Continuous
 62
   179
370
    25
100
AcDbLine
 10
128.8
 20
5.0
 30
0.0
 11
147.6
 21
5.0
 31
0.0
  0
LINE
  5
108
330
FB
100
AcDbEntity
  8
SLD-0_0
  6
Continuous
 62
   179
370
    25
100
AcDbLine
 10
147.6
 20
5.0
 30
0.0
 11
147.6
 21
40.0
 31
0.0
  0
LINE
  5
109
330
FB
100
AcDbEntity
  8
SLD-0_0
  6
Continuous
 62
   179
370
    25
100
AcDbLine
 10
147.6
 20
40.0
 30
0.0
 11
118.8
 21
40.0
 31
0.0
  0
LINE
  5
10A
330
FB
100
AcDbEntity
  8
SLD-0_0
  6
Continuous
 62
   179
370
    25
100
AcDbLine
 10
118.8
 20
40.0
 30
0.0
 11
118.8
 21
50.0
 31
0.0
  0
LINE
  5
10B
330
FB
100
AcDbEntity
  8
SLD-0_0
  6
Continuous
 62
   179
370
    25
100
AcDbLine
 10
118.8
 20
50.0
 30
0.0
 11
28.8
 21
50.0
 31
0.0
  0
LINE
  5
10C
330
FB
100
AcDbEntity
  8
SLD-0_0
  6
Continuous
 62
   179
370
    25
100
AcDbLine
 10
28.8
 20
50.0
 30
0.0
 11
28.8
 21
40.0
 31
0.0
  0
LINE
  5
10D
330
FB
100
AcDbEntity
  8
SLD-0_0
  6
Continuous
 62
   179
370
    25
100
AcDbLine
 10
28.8
 20
40.0
 30
0.0
 11
0.0
 21
40.0
 31
0.0
  0
LINE
  5
10E
330
FB
100
AcDbEntity
  8
SLD-0_0
  6
Continuous
 62
   179
370
    25
100
AcDbLine
 10
40.0
 20
30.0
 30
0.0
 11
60.0
 21
30.0
 31
0.0
  0
LINE
  5
10F
330
FB
100
AcDbEntity
  8
SLD-0_0
  6
Continuous
 62
   179
370
    25
100
AcDbLine
 10
40.0
 20
35.0
 30
0.0
 11
40.0
 21
30.0
 31
0.0
  0
LINE
  5
110
330
FB
100
AcDbEntity
  8
SLD-0_0
  6
Continuous
 62
   179
370
    25
100
AcDbLine
 10
60.0
 20
35.0
 30
0.0
 11
40.0
 21
35.0
 31
0.0
  0
LINE
  5
111
330
FB
100
AcDbEntity
  8
SLD-0_0
  6
Continuous
 62
   179
370
    25
100
AcDbLine
 10
60.0
 20
30.0
 30
0.0
 11
60.0
 21
35.0
 31
0.0
  0
LINE
  5
112
330
FB
100
AcDbEntity
  8
SLD-0_0
  6
Continuous
 62
   179
370
    25
100
AcDbLine
 10
107.6
 20
35.0
 30
0.0
 11
87.6
 21
35.0
 31
0.0
  0
LINE
  5
113
330
FB
100
AcDbEntity
  8
SLD-0_0
  6
Continuous
 62
   179
370
    25
100
AcDbLine
 10
107.6
 20
30.0
 30
0.0
 11
107.6
 21
35.0
 31
0.0
  0
LINE
  5
114
330
FB
100
AcDbEntity
  8
SLD-0_0
  6
Continuous
 62
   179
370
    25
100
AcDbLine
 10
87.6
 20
30.0
 30
0.0
 11
107.6
 21
30.0
 31
0.0
  0
LINE
  5
115
330
FB
100
AcDbEntity
  8
SLD-0_0
  6
Continuous
 62
   179
370
    25
100
AcDbLine
 10
87.6
 20
35.0
 30
0.0
 11
87.6
 21
30.0
 31
0.0
  0
ENDBLK
  5
FD
330
FB
100
AcDbEntity
  8
0
100
AcDbBlockEnd
  0
BLOCK
  5
117
330
116
100
AcDbEntity
  8
0
100
AcDbBlockBegin
  2
BAG_SIDE
 70
     0
 10
0.0
 20
0.0
 30
0.0
  3
BAG_SIDE
  1

  0
LINE
  5
119
330
116
100
AcDbEntity
  8
SLD-0_0
  6
Continuous
 62
   179
370
    25
100
AcDbLine
 10
135.0
 20
65.0
 30
0.0
 11
145.0
 21
65.0
 31
0.0
  0
LINE
  5
11A
330
116
100
AcDbEntity
  8
SLD-0_0
  6
Continuous
 62
   179
370
    25
100
AcDbLine
 10
135.0
 20
70.0
 30
0.0
 11
135.0
 21
65.0
 31
0.0
  0
LINE
  5
11B
330
116
100
AcDbEntity
  8
SLD-0_0
  6
Continuous
 62
   179
370
    25
100
AcDbLine
 10
145.0
 20
70.0
 30
0.0
 11
135.0
 21
70.0
 31
0.0
  0
LINE
  5
11C
330
116
100
AcDbEntity
  8
SLD-0_0
  6
Continuous
 62
   179
370
    25
100
AcDbLine
 10
145.0
 20
65.0
 30
0.0
 11
145.0
 21
70.0
 31
0.0
  0
LINE
  5
11D
330
116
100
AcDbEntity
  8
SLD-0_0
  6
Continuous
 62
   179
370
    25
100
AcDbLine
 10
0.0
 20
20.0
 30
0.0
 11
0.0
 21
10.0
 31
0.0
  0
LINE
  5
11E
330
116
100
AcDbEntity
  8
SLD-0_0
  6
Continuous
 62
   179
370
    25
100
AcDbLine
 10
0.0
 20
10.0
 30
0.0
 11
15.0
 21
10.0
 31
0.0
  0
LINE
  5
11F
330
116
100
AcDbEntity
  8
SLD-0_0
  6
Continuous
 62
   179
370
    25
100
AcDbLine
 10
15.0
 20
10.0
 30
0.0
 11
15.0
 21
0.0
 31
0.0
  0
LINE
  5
120
330
116
100
AcDbEntity
  8
SLD-0_0
  6
Continuous
 62
   179
370
    25
100
AcDbLine
 10
15.0
 20
0.0
 30
0.0
 11
30.0
 21
0.0
 31
0.0
  0
LINE
  5
121
330
116
100
AcDbEntity
  8
SLD-0_0
  6
Continuous
 62
   179
370
    25
100
AcDbLine
 10
30.0
 20
0.0
 30
0.0
 11
30.0
 21
10.0
 31
0.0
  0
LINE
  5
122
330
116
100
AcDbEntity
  8
SLD-0_0
  6
Continuous
 62
   179
370
    25
100
AcDbLine
 10
30.0
 20
10.0
 30
0.0
 11
50.0
 21
10.0
 31
0.0
  0
LINE
  5
123
330
116
100
AcDbEntity
  8
SLD-0_0
  6
Continuous
 62
   179
370
    25
100
AcDbLine
 10
50.0
 20
10.0
 30
0.0
 11
50.0
 21
0.0
 31
0.0
  0
LINE
  5
124
330
116
100
AcDbEntity
  8
SLD-0_0
  6
Continuous
 62
   179
370
    25
100
AcDbLine
 10
50.0
 20
0.0
 30
0.0
 11
65.0
 21
0.0
 31
0.0
  0
LINE
  5
125
330
116
100
AcDbEntity
  8
SLD-0_0
  6
Continuous
 62
   179
370
    25
100
AcDbLine
 10
65.0
 20
0.0
 30
0.0
 11
65.0
 21
10.0
 31
0.0
  0
LINE
  5
126
330
116
100
AcDbEntity
  8
SLD-0_0
  6
Continuous
 62
   179
370
    25
100
AcDbLine
 10
65.0
 20
10.0
 30
0.0
 11
90.0
 21
10.0
 31
0.0
  0
LINE
  5
127
330
116
100
AcDbEntity
  8
SLD-0_0
  6
Continuous
 62
   179
370
    25
100
AcDbLine
 10
90.0
 20
10.0
 30
0.0
 11
90.0
 21
5.0
 31
0.0
  0
LINE
  5
128
330
116
100
AcDbEntity
  8
SLD-0_0
  6
Continuous
 62
   179
370
    25
100
AcDbLine
 10
90.0
 20
5.0
 30
0.0
 11
136.0
 21
5.0
 31
0.0
  0
LINE
  5
129
330
116
100
AcDbEntity
  8
SLD-0_0
  6
Continuous
 62
   179
370
    25
100
AcDbLine
 10
136.0
 20
5.0
 30
0.0
 11
136.0
 21
0.0
 31
0.0
  0
LINE
  5
12A
330
116
100
AcDbEntity
  8
SLD-0_0
  6
Continuous
 62
   179
370
    25
100
AcDbLine
 10
136.0
 20
0.0
 30
0.0
 11
151.0
 21
0.0
 31
0.0
  0
LINE
  5
12B
330
116
100
AcDbEntity
  8
SLD-0_0
  6
Continuous
 62
   179
370
    25
100
AcDbLine
 10
151.0
 20
0.0
 30
0.0
 11
151.0
 21
5.0
 31
0.0
  0
LINE
  5
12C
330
116
100
AcDbEntity
  8
SLD-0_0
  6
Continuous
 62
   179
370
    25
100
AcDbLine
 10
151.0
 20
5.0
 30
0.0
 11
190.0
 21
5.0
 31
0.0
  0
LINE
  5
12D
330
116
100
AcDbEntity
  8
SLD-0_0
  6
Continuous
 62
   179
370
    25
100
AcDbLine
 10
190.0
 20
5.0
 30
0.0
 11
190.0
 21
60.0
 31
0.0
  0
LINE
  5
12E
330
116
100
AcDbEntity
  8
SLD-0_0
  6
Continuous
 62
   179
370
    25
100
AcDbLine
 10
190.0
 20
60.0
 30
0.0
 11
150.0
 21
60.0
 31
0.0
  0
LINE
  5
12F
330
116
100
AcDbEntity
  8
SLD-0_0
  6
Continuous
 62
   179
370
    25
100
AcDbLine
 10
150.0
 20
60.0
 30
0.0
 11
150.0
 21
75.0
 31
0.0
  0
LINE
  5
130
330
116
100
AcDbEntity
  8
SLD-0_0
  6
Continuous
 62
   179
370
    25
100
AcDbLine
 10
150.0
 20
75.0
 30
0.0
 11
130.0
 21
75.0
 31
0.0
  0
LINE
  5
131
330
116
100
AcDbEntity
  8
SLD-0_0
  6
Continuous
 62
   179
370
    25
100
AcDbLine
 10
130.0
 20
75.0
 30
0.0
 11
130.0
 21
60.0
 31
0.0
  0
LINE
  5
132
330
116
100
AcDbEntity
  8
SLD-0_0
  6
Continuous
 62
   179
370
    25
100
AcDbLine
 10
130.0
 20
60.0
 30
0.0
 11
90.0
 21
60.0
 31
0.0
  0
LINE
  5
133
330
116
100
AcDbEntity
  8
SLD-0_0
  6
Continuous
 62
   179
370
    25
100
AcDbLine
 10
90.0
 20
60.0
 30
0.0
 11
54.8286929172
 21
44.3683079632
 31
0.0
  0
LINE
  5
134
330
116
100
AcDbEntity
  8
SLD-0_0
  6
Continuous
 62
   179
370
    25
100
AcDbLine
 10
54.8286929172
 20
44.3683079632
 30
0.0
 11
48.7366159264
 21
58.0754811925
 31
0.0
  0
LINE
  5
135
330
116
100
AcDbEntity
  8
SLD-0_0
  6
Continuous
 62
   179
370
    25
100
AcDbLine
 10
48.7366159264
 20
58.0754811925
 30
0.0
 11
30.460384954
 21
49.9527118714
 31
0.0
  0
LINE
  5
136
330
116
100
AcDbEntity
  8
SLD-0_0
  6
Continuous
 62
   179
370
    25
100
AcDbLine
 10
30.460384954
 20
49.9527118714
 30
0.0
 11
36.5524619448
 21
36.2455386421
 31
0.0
  0
LINE
  5
137
330
116
100
AcDbEntity
  8
SLD-0_0
  6
Continuous
 62
   179
370
    25
100
AcDbLine
 10
36.5524619448
 20
36.2455386421
 30
0.0
 11
0.0
 21
20.0
 31
0.0
  0
LINE
  5
138
330
116
100
AcDbEntity
  8
SLD-0_0
  6
Continuous
 62
   179
370
    25
100
AcDbLine
 10
46.2241094547
 20
51.4170421372
 30
0.0
 11
37.0601350274
 21
47.4143464586
 31
0.0
  0
LINE
  5
139
330
116
100
AcDbEntity
  8
SLD-0_0
  6
Continuous
 62
   179
370
    25
100
AcDbLine
 10
48.254801785
 20
46.8479843941
 30
0.0
 11
46.2241094547
 21
51.4170421372
 31
0.0
  0
LINE
  5
13A
330
116
100
AcDbEntity
  8
SLD-0_0
  6
Continuous
 62
   179
370
    25
100
AcDbLine
 10
39.0614828667
 20
42.8323592449
 30
0.0
 11
48.254801785
 21
46.8479843941
 31
0.0
  0
LINE
  5
13B
330
116
100
AcDbEntity
  8
SLD-0_0
  6
Continuous
 62
   179
370
    25
100
AcDbLine
 10
37.0601350274
 20
47.4143464586
 30
0.0
 11
39.0614828667
 21
42.8323592449
 31
0.0
  0
ENDBLK
  5
118
330
116
100
AcDbEntity
  8
0
100
AcDbBlockEnd
  0
BLOCK
  5
13D
330
13C
100
AcDbEntity
  8
0
100
AcDbBlockBegin
  2
BAG_INTO_SIDE
 70
     0
 10
0.0
 20
0.0
 30
0.0
  3
BAG_INTO_SIDE
  1

  0
LINE
  5
13F
330
13C
100
AcDbEntity
  8
SLD-0_0
  6
Continuous
 62
   179
370
    25
100
AcDbLine
 10
0.0
 20
25.0
 30
0.0
 11
0.0
 21
0.0
 31
0.0
  0
LINE
  5
140
330
13C
100
AcDbEntity
  8
SLD-0_0
  6
Continuous
 62
   179
370
    25
100
AcDbLine
 10
0.0
 20
0.0
 30
0.0
 11
100.0
 21
0.0
 31
0.0
  0
LINE
  5
141
330
13C
100
AcDbEntity
  8
SLD-0_0
  6
Continuous
 62
   179
370
    25
100
AcDbLine
 10
100.0
 20
0.0
 30
0.0
 11
100.0
 21
10.0
 31
0.0
  0
LINE
  5
142
330
13C
100
AcDbEntity
  8
SLD-0_0
  6
Continuous
 62
   179
370
    25
100
AcDbLine
 10
100.0
 20
10.0
 30
0.0
 11
115.0
 21
10.0
 31
0.0
  0
LINE
  5
143
330
13C
100
AcDbEntity
  8
SLD-0_0
  6
Continuous
 62
   179
370
    25
100
AcDbLine
 10
115.0
 20
10.0
 30
0.0
 11
115.0
 21
30.0
 31
0.0
  0
LINE
  5
144
330
13C
100
AcDbEntity
  8
SLD-0_0
  6
Continuous
 62
   179
370
    25
100
AcDbLine
 10
115.0
 20
30.0
 30
0.0
 11
100.0
 21
30.0
 31
0.0
  0
LINE
  5
145
330
13C
100
AcDbEntity
  8
SLD-0_0
  6
Continuous
 62
   179
370
    25
100
AcDbLine
 10
100.0
 20
30.0
 30
0.0
 11
100.0
 21
47.2296627948
 31
0.0
  0
LINE
  5
146
330
13C
100
AcDbEntity
  8
SLD-0_0
  6
Continuous
 62
   179
370
    25
100
AcDbLine
 10
100.0
 20
47.2296627948
 30
0.0
 11
0.0
 21
25.0
 31
0.0
  0
LINE
  5
147
330
13C
100
AcDbEntity
  8
SLD-0_0
  6
Continuous
 62
   179
370
    25
100
AcDbLine
 10
105.0
 20
24.6854799336
 30
0.0
 11
105.0
 21
15.0
 31
0.0
  0
LINE
  5
148
330
13C
100
AcDbEntity
  8
SLD-0_0
  6
Continuous
 62
   179
370
    25
100
AcDbLine
 10
110.0
 20
24.6854799336
 30
0.0
 11
105.0
 21
24.6854799336
 31
0.0
  0
LINE
  5
149
330
13C
100
AcDbEntity
  8
SLD-0_0
  6
Continuous
 62
   179
370
    25
100
AcDbLine
 10
110.0
 20
15.0
 30
0.0
 11
110.0
 21
24.6854799336
 31
0.0
  0
LINE
  5
14A
330
13C
100
AcDbEntity
  8
SLD-0_0
  6
Continuous
 62
   179
370
    25
100
AcDbLine
 10
105.0
 20
15.0
 30
0.0
 11
110.0
 21
15.0
 31
0.0
  0
ENDBLK
  5
13E
330
13C
100
AcDbEntity
  8
0
100
AcDbBlockEnd
  0
BLOCK
  5
14C
330
14B
100
AcDbEntity
  8
0
100
AcDbBlockBegin
  2
BAG_FRONT
 70
     0
 10
0.0
 20
0.0
 30
0.0
  3
BAG_FRONT
  1

  0
CIRCLE
  5
14E
330
14B
100
AcDbEntity
  8
SLD-0_0
  6
Continuous
 62
   179
370
    25
100
AcDbCircle
 10
25.0
 20
45.0
 30
0.0
 40
4.0
  0
CIRCLE
  5
14F
330
14B
100
AcDbEntity
  8
SLD-0_0
  6
Continuous
 62
   179
370
    25
100
AcDbCircle
 10
42.0
 20
45.0
 30
0.0
 40
4.000000000000014
  0
CIRCLE
  5
150
330
14B
100
AcDbEntity
  8
SLD-0_0
  6
Continuous
 62
   179
370
    25
100
AcDbCircle
 10
59.0
 20
45.0
 30
0.0
 40
3.999999999999993
  0
CIRCLE
  5
151
330
14B
100
AcDbEntity
  8
SLD-0_0
  6
Continuous
 62
   179
370
    25
100
AcDbCircle
 10
76.0
 20
45.0
 30
0.0
 40
3.999999999999986
  0
CIRCLE
  5
152
330
14B
100
AcDbEntity
  8
SLD-0_0
  6
Continuous
 62
   179
370
    25
100
AcDbCircle
 10
42.0
 20
30.0
 30
0.0
 40
4.0
  0
CIRCLE
  5
153
330
14B
100
AcDbEntity
  8
SLD-0_0
  6
Continuous
 62
   179
370
    25
100
AcDbCircle
 10
59.0
 20
30.0
 30
0.0
 40
3.999999999999993
  0
CIRCLE
  5
154
330
14B
100
AcDbEntity
  8
SLD-0_0
  6
Continuous
 62
   179
370
    25
100
AcDbCircle
 10
76.0
 20
30.0
 30
0.0
 40
4.0
  0
CIRCLE
  5
155
330
14B
100
AcDbEntity
  8
SLD-0_0
  6
Continuous
 62
   179
370
    25
100
AcDbCircle
 10
42.0
 20
15.0
 30
0.0
 40
4.000000000000014
  0
CIRCLE
  5
156
330
14B
100
AcDbEntity
  8
SLD-0_0
  6
Continuous
 62
   179
370
    25
100
AcDbCircle
 10
59.0
 20
15.0
 30
0.0
 40
4.000000000000007
  0
CIRCLE
  5
157
330
14B
100
AcDbEntity
  8
SLD-0_0
  6
Continuous
 62
   179
370
    25
100
AcDbCircle
 10
76.0
 20
15.0
 30
0.0
 40
4.0
  0
CIRCLE
  5
158
330
14B
100
AcDbEntity
  8
SLD-0_0
  6
Continuous
 62
   179
370
    25
100
AcDbCircle
 10
25.0
 20
30.0
 30
0.0
 40
4.0
  0
CIRCLE
  5
159
330
14B
100
AcDbEntity
  8
SLD-0_0
  6
Continuous
 62
   179
370
    25
100
AcDbCircle
 10
25.0
 20
15.0
 30
0.0
 40
4.0
  0
LINE
  5
15A
330
14B
100
AcDbEntity
  8
SLD-0_0
  6
Continuous
 62
   179
370
    25
100
AcDbLine
 10
10.0
 20
30.0
 30
0.0
 11
10.0
 21
10.0
 31
0.0
  0
LINE
  5
15B
330
14B
100
AcDbEntity
  8
SLD-0_0
  6
Continuous
 62
   179
370
    25
100
AcDbLine
 10
15.0
 20
30.0
 30
0.0
 11
10.0
 21
30.0
 31
0.0
  0
LINE
  5
15C
330
14B
100
AcDbEntity
  8
SLD-0_0
  6
Continuous
 62
   179
370
    25
100
AcDbLine
 10
15.0
 20
10.0
 30
0.0
 11
15.0
 21
30.0
 31
0.0
  0
LINE
  5
15D
330
14B
100
AcDbEntity
  8
SLD-0_0
  6
Continuous
 62
   179
370
    25
100
AcDbLine
 10
10.0
 20
10.0
 30
0.0
 11
15.0
 21
10.0
 31
0.0
  0
LINE
  5
15E
330
14B
100
AcDbEntity
  8
SLD-0_0
  6
Continuous
 62
   179
370
    25
100
AcDbLine
 10
0.0
 20
60.0
 30
0.0
 11
0.0
 21
0.0
 31
0.0
  0
LINE
  5
15F
330
14B
100
AcDbEntity
  8
SLD-0_0
  6
Continuous
 62
   179
370
    25
100
AcDbLine
 10
0.0
 20
0.0
 30
0.0
 11
100.0
 21
0.0
 31
0.0
  0
LINE
  5
160
330
14B
100
AcDbEntity
  8
SLD-0_0
  6
Continuous
 62
   179
370
    25
100
AcDbLine
 10
100.0
 20
0.0
 30
0.0
 11
100.0
 21
60.0
 31
0.0
  0
LINE
  5
161
330
14B
100
AcDbEntity
  8
SLD-0_0
  6
Continuous
 62
   179
370
    25
100
AcDbLine
 10
100.0
 20
60.0
 30
0.0
 11
60.0
 21
60.0
 31
0.0
  0
LINE
  5
162
330
14B
100
AcDbEntity
  8
SLD-0_0
  6
Continuous
 62
   179
370
    25
100
AcDbLine
 10
60.0
 20
60.0
 30
0.0
 11
60.0
 21
55.0
 31
0.0
  0
LINE
  5
163
330
14B
100
AcDbEntity
  8
SLD-0_0
  6
Continuous
 62
   179
370
    25
100
AcDbLine
 10
60.0
 20
55.0
 30
0.0
 11
40.0
 21
55.0
 31
0.0
  0
LINE
  5
164
330
14B
100
AcDbEntity
  8
SLD-0_0
  6
Continuous
 62
   179
370
    25
100
AcDbLine
 10
40.0
 20
55.0
 30
0.0
 11
40.0
 21
60.0
 31
0.0
  0
LINE
  5
165
330
14B
100
AcDbEntity
  8
SLD-0_0
  6
Continuous
 62
   179
370
    25
100
AcDbLine
 10
40.0
 20
60.0
 30
0.0
 11
0.0
 21
60.0
 31
0.0
  0
LINE
  5
166
330
14B
100
AcDbEntity
  8
SLD-0_0
  6
Continuous
 62
   179
370
    25
100
AcDbLine
 10
90.0
 20
10.0
 30
0.0
 11
90.0
 21
30.0
 31
0.0
  0
LINE
  5
167
330
14B
100
AcDbEntity
  8
SLD-0_0
  6
Continuous
 62
   179
370
    25
100
AcDbLine
 10
85.0
 20
10.0
 30
0.0
 11
90.0
 21
10.0
 31
0.0
  0
LINE
  5
168
330
14B
100
AcDbEntity
  8
SLD-0_0
  6
Continuous
 62
   179
370
    25
100
AcDbLine
 10
85.0
 20
30.0
 30
0.0
 11
85.0
 21
10.0
 31
0.0
  0
LINE
  5
169
330
14B
100
AcDbEntity
  8
SLD-0_0
  6
Continuous
 62
   179
370
    25
100
AcDbLine
 10
90.0
 20
30.0
 30
0.0
 11
85.0
 21
30.0
 31
0.0
  0
ENDBLK
  5
14D
330
14B
100
AcDbEntity
  8
0
100
AcDbBlockEnd
  0
BLOCK
  5
16B
330
16A
100
AcDbEntity
  8
0
100
AcDbBlockBegin
  2
BAG_TOP_FIRST
 70
     0
 10
0.0
 20
0.0
 30
0.0
  3
BAG_TOP_FIRST
  1

  0
LINE
  5
16D
330
16A
100
AcDbEntity
  8
SLD-0_0
  6
Continuous
 62
   179
370
    25
100
AcDbLine
 10
0.0
 20
100.0
 30
0.0
 11
0.0
 21
0.0
 31
0.0
  0
LINE
  5
16E
330
16A
100
AcDbEntity
  8
SLD-0_0
  6
Continuous
 62
   179
370
    25
100
AcDbLine
 10
0.0
 20
0.0
 30
0.0
 11
100.0
 21
0.0
 31
0.0
  0
LINE
  5
16F
330
16A
100
AcDbEntity
  8
SLD-0_0
  6
Continuous
 62
   179
370
    25
100
AcDbLine
 10
100.0
 20
0.0
 30
0.0
 11
100.0
 21
100.0
 31
0.0
  0
LINE
  5
170
330
16A
100
AcDbEntity
  8
SLD-0_0
  6
Continuous
 62
   179
370
    25
100
AcDbLine
 10
100.0
 20
100.0
 30
0.0
 11
0.0
 21
100.0
 31
0.0
  0
LINE
  5
171
330
16A
100
AcDbEntity
  8
SLD-0_0
  6
Continuous
 62
   179
370
    25
100
AcDbLine
 10
5.0
 20
40.0
 30
0.0
 11
10.0
 21
40.0
 31
0.0
  0
LINE
  5
172
330
16A
100
AcDbEntity
  8
SLD-0_0
  6
Continuous
 62
   179
370
    25
100
AcDbLine
 10
5.0
 20
60.0
 30
0.0
 11
5.0
 21
40.0
 31
0.0
  0
LINE
  5
173
330
16A
100
AcDbEntity
  8
SLD-0_0
  6
Continuous
 62
   179
370
    25
100
AcDbLine
 10
10.0
 20
60.0
 30
0.0
 11
5.0
 21
60.0
 31
0.0
  0
LINE
  5
174
330
16A
100
AcDbEntity
  8
SLD-0_0
  6
Continuous
 62
   179
370
    25
100
AcDbLine
 10
10.0
 20
40.0
 30
0.0
 11
10.0
 21
60.0
 31
0.0
  0
LINE
  5
175
330
16A
100
AcDbEntity
  8
SLD-0_0
  6
Continuous
 62
   179
370
    25
100
AcDbLine
 10
95.0
 20
60.0
 30
0.0
 11
90.0
 21
60.0
 31
0.0
  0
LINE
  5
176
330
16A
100
AcDbEntity
  8
SLD-0_0
  6
Continuous
 62
   179
370
    25
100
AcDbLine
 10
95.0
 20
40.0
 30
0.0
 11
95.0
 21
60.0
 31
0.0
  0
LINE
  5
177
330
16A
100
AcDbEntity
  8
SLD-0_0
  6
Continuous
 62
   179
370
    25
100
AcDbLine
 10
90.0
 20
40.0
 30
0.0
 11
95.0
 21
40.0
 31
0.0
  0
LINE
  5
178
330
16A
100
AcDbEntity
  8
SLD-0_0
  6
Continuous
 62
   179
370
    25
100
AcDbLine
 10
90.0
 20
60.0
 30
0.0
 11
90.0
 21
40.0
 31
0.0
  0
ENDBLK
  5
16C
330
16A
100
AcDbEntity
  8
0
100
AcDbBlockEnd
  0
BLOCK
  5
17A
330
179
100
AcDbEntity
  8
0
100
AcDbBlockBegin
  2
BOTTOM_MAIN
 70
     0
 10
0.0
 20
0.0
 30
0.0
  3
BOTTOM_MAIN
  1

  0
CIRCLE
  5
17C
330
179
100
AcDbEntity
  8
SLD-0_0
  6
Continuous
 62
   179
370
    25
100
AcDbCircle
 10
90.5
 20
176.5
 30
0.0
 40
2.0
  0
CIRCLE
  5
17D
330
179
100
AcDbEntity
  8
SLD-0_0
  6
Continuous
 62
   179
370
    25
100
AcDbCircle
 10
161.5
 20
176.5
 30
0.0
 40
2.0
  0
CIRCLE
  5
17E
330
179
100
AcDbEntity
  8
SLD-0_0
  6
Continuous
 62
   179
370
    25
100
AcDbCircle
 10
161.5
 20
247.5
 30
0.0
 40
2.0
  0
CIRCLE
  5
17F
330
179
100
AcDbEntity
  8
SLD-0_0
  6
Continuous
 62
   179
370
    25
100
AcDbCircle
 10
90.5
 20
247.5
 30
0.0
 40
2.0
  0
CIRCLE
  5
180
330
179
100
AcDbEntity
  8
SLD-0_0
  6
Continuous
 62
   179
370
    25
100
AcDbCircle
 10
126.0
 20
212.0
 30
0.0
 40
40.0
  0
ARC
  5
181
330
179
100
AcDbEntity
  8
SLD-0_0
  6
Continuous
 62
   179
370
    25
100
AcDbCircle
 10
126.0
 20
126.0
 30
0.0
 40
125.9999999999867
100
AcDbArc
 50
156.1237922694
 51
23.8762077306
  0
LINE
  5
182
330
179
100
AcDbEntity
  8
SLD-0_0
  6
Continuous
 62
   179
370
    25
100
AcDbLine
 10
166.0
 20
21.0
 30
0.0
 11
166.0
 21
16.0
 31
0.0
  0
LINE
  5
183
330
179
100
AcDbEntity
  8
SLD-0_0
  6
Continuous
 62
   179
370
    25
100
AcDbLine
 10
166.0
 20
16.0
 30
0.0
 11
151.0
 21
16.0
 31
0.0
  0
LINE
  5
184
330
179
100
AcDbEntity
  8
SLD-0_0
  6
Continuous
 62
   179
370
    25
100
AcDbLine
 10
151.0
 20
16.0
 30
0.0
 11
151.0
 21
21.0
 31
0.0
  0
LINE
  5
185
330
179
100
AcDbEntity
  8
SLD-0_0
  6
Continuous
 62
   179
370
    25
100
AcDbLine
 10
151.0
 20
21.0
 30
0.0
 11
166.0
 21
21.0
 31
0.0
  0
LINE
  5
186
330
179
100
AcDbEntity
  8
SLD-0_0
  6
Continuous
 62
   179
370
    25
100
AcDbLine
 10
76.0
 20
197.0
 30
0.0
 11
81.0
 21
197.0
 31
0.0
  0
LINE
  5
187
330
179
100
AcDbEntity
  8
SLD-0_0
  6
Continuous
 62
   179
370
    25
100
AcDbLine
 10
81.0
 20
197.0
 30
0.0
 11
81.0
 21
172.0
 31
0.0
  0
LINE
  5
188
330
179
100
AcDbEntity
  8
SLD-0_0
  6
Continuous
 62
   179
370
    25
100
AcDbLine
 10
81.0
 20
172.0
 30
0.0
 11
76.0
 21
172.0
 31
0.0
  0
LINE
  5
189
330
179
100
AcDbEntity
  8
SLD-0_0
  6
Continuous
 62
   179
370
    25
100
AcDbLine
 10
76.0
 20
172.0
 30
0.0
 11
76.0
 21
177.0
 31
0.0
  0
LINE
  5
18A
330
179
100
AcDbEntity
  8
SLD-0_0
  6
Continuous
 62
   179
370
    25
100
AcDbLine
 10
76.0
 20
177.0
 30
0.0
 11
71.0
 21
177.0
 31
0.0
  0
LINE
  5
18B
330
179
100
AcDbEntity
  8
SLD-0_0
  6
Continuous
 62
   179
370
    25
100
AcDbLine
 10
71.0
 20
177.0
 30
0.0
 11
71.0
 21
192.0
 31
0.0
  0
LINE
  5
18C
330
179
100
AcDbEntity
  8
SLD-0_0
  6
Continuous
 62
   179
370
    25
100
AcDbLine
 10
71.0
 20
192.0
 30
0.0
 11
76.0
 21
192.0
 31
0.0
  0
LINE
  5
18D
330
179
100
AcDbEntity
  8
SLD-0_0
  6
Continuous
 62
   179
370
    25
100
AcDbLine
 10
76.0
 20
192.0
 30
0.0
 11
76.0
 21
197.0
 31
0.0
  0
LINE
  5
18E
330
179
100
AcDbEntity
  8
SLD-0_0
  6
Continuous
 62
   179
370
    25
100
AcDbLine
 10
71.0
 20
61.0
 30
0.0
 11
56.0
 21
61.0
 31
0.0
  0
LINE
  5
18F
330
179
100
AcDbEntity
  8
SLD-0_0
  6
Continuous
 62
   179
370
    25
100
AcDbLine
 10
56.0
 20
61.0
 30
0.0
 11
56.0
 21
66.0
 31
0.0
  0
LINE
  5
190
330
179
100
AcDbEntity
  8
SLD-0_0
  6
Continuous
 62
   179
370
    25
100
AcDbLine
 10
56.0
 20
66.0
 30
0.0
 11
71.0
 21
66.0
 31
0.0
  0
LINE
  5
191
330
179
100
AcDbEntity
  8
SLD-0_0
  6
Continuous
 62
   179
370
    25
100
AcDbLine
 10
71.0
 20
66.0
 30
0.0
 11
71.0
 21
61.0
 31
0.0
  0
LINE
  5
192
330
179
100
AcDbEntity
  8
SLD-0_0
  6
Continuous
 62
   179
370
    25
100
AcDbLine
 10
186.0
 20
61.0
 30
0.0
 11
176.0
 21
61.0
 31
0.0
  0
LINE
  5
193
330
179
100
AcDbEntity
  8
SLD-0_0
  6
Continuous
 62
   179
370
    25
100
AcDbLine
 10
176.0
 20
61.0
 30
0.0
 11
176.0
 21
66.0
 31
0.0
  0
LINE
  5
194
330
179
100
AcDbEntity
  8
SLD-0_0
  6
Continuous
 62
   179
370
    25
100
AcDbLine
 10
176.0
 20
66.0
 30
0.0
 11
186.0
 21
66.0
 31
0.0
  0
LINE
  5
195
330
179
100
AcDbEntity
  8
SLD-0_0
  6
Continuous
 62
   179
370
    25
100
AcDbLine
 10
186.0
 20
66.0
 30
0.0
 11
186.0
 21
61.0
 31
0.0
  0
LINE
  5
196
330
179
100
AcDbEntity
  8
SLD-0_0
  6
Continuous
 62
   179
370
    25
100
AcDbLine
 10
71.0
 20
156.0
 30
0.0
 11
71.0
 21
151.0
 31
0.0
  0
LINE
  5
197
330
179
100
AcDbEntity
  8
SLD-0_0
  6
Continuous
 62
   179
370
    25
100
AcDbLine
 10
71.0
 20
151.0
 30
0.0
 11
56.0
 21
151.0
 31
0.0
  0
LINE
  5
198
330
179
100
AcDbEntity
  8
SLD-0_0
  6
Continuous
 62
   179
370
    25
100
AcDbLine
 10
56.0
 20
151.0
 30
0.0
 11
56.0
 21
156.0
 31
0.0
  0
LINE
  5
199
330
179
100
AcDbEntity
  8
SLD-0_0
  6
Continuous
 62
   179
370
    25
100
AcDbLine
 10
56.0
 20
156.0
 30
0.0
 11
71.0
 21
156.0
 31
0.0
  0
LINE
  5
19A
330
179
100
AcDbEntity
  8
SLD-0_0
  6
Continuous
 62
   179
370
    25
100
AcDbLine
 10
36.0
 20
96.0
 30
0.0
 11
41.0
 21
96.0
 31
0.0
  0
LINE
  5
19B
330
179
100
AcDbEntity
  8
SLD-0_0
  6
Continuous
 62
   179
370
    25
100
AcDbLine
 10
41.0
 20
96.0
 30
0.0
 11
41.0
 21
76.0
 31
0.0
  0
LINE
  5
19C
330
179
100
AcDbEntity
  8
SLD-0_0
  6
Continuous
 62
   179
370
    25
100
AcDbLine
 10
41.0
 20
76.0
 30
0.0
 11
36.0
 21
76.0
 31
0.0
  0
LINE
  5
19D
330
179
100
AcDbEntity
  8
SLD-0_0
  6
Continuous
 62
   179
370
    25
100
AcDbLine
 10
36.0
 20
76.0
 30
0.0
 11
36.0
 21
96.0
 31
0.0
  0
LINE
  5
19E
330
179
100
AcDbEntity
  8
SLD-0_0
  6
Continuous
 62
   179
370
    25
100
AcDbLine
 10
226.0
 20
96.0
 30
0.0
 11
231.0
 21
96.0
 31
0.0
  0
LINE
  5
19F
330
179
100
AcDbEntity
  8
SLD-0_0
  6
Continuous
 62
   179
370
    25
100
AcDbLine
 10
231.0
 20
96.0
 30
0.0
 11
231.0
 21
76.0
 31
0.0
  0
LINE
  5
1A0
330
179
100
AcDbEntity
  8
SLD-0_0
  6
Continuous
 62
   179
370
    25
100
AcDbLine
 10
231.0
 20
76.0
 30
0.0
 11
226.0
 21
76.0
 31
0.0
  0
LINE
  5
1A1
330
179
100
AcDbEntity
  8
SLD-0_0
  6
Continuous
 62
   179
370
    25
100
AcDbLine
 10
226.0
 20
76.0
 30
0.0
 11
226.0
 21
96.0
 31
0.0
  0
LINE
  5
1A2
330
179
100
AcDbEntity
  8
SLD-0_0
  6
Continuous
 62
   179
370
    25
100
AcDbLine
 10
161.0
 20
141.0
 30
0.0
 11
166.0
 21
141.0
 31
0.0
  0
LINE
  5
1A3
330
179
100
AcDbEntity
  8
SLD-0_0
  6
Continuous
 62
   179
370
    25
100
AcDbLine
 10
166.0
 20
141.0
 30
0.0
 11
166.0
 21
121.0
 31
0.0
  0
LINE
  5
1A4
330
179
100
AcDbEntity
  8
SLD-0_0
  6
Continuous
 62
   179
370
    25
100
AcDbLine
 10
166.0
 20
121.0
 30
0.0
 11
161.0
 21
121.0
 31
0.0
  0
LINE
  5
1A5
330
179
100
AcDbEntity
  8
SLD-0_0
  6
Continuous
 62
   179
370
    25
100
AcDbLine
 10
161.0
 20
121.0
 30
0.0
 11
161.0
 21
141.0
 31
0.0
  0
LINE
  5
1A6
330
179
100
AcDbEntity
  8
SLD-0_0
  6
Continuous
 62
   179
370
    25
100
AcDbLine
 10
86.0
 20
121.0
 30
0.0
 11
86.0
 21
141.0
 31
0.0
  0
LINE
  5
1A7
330
179
100
AcDbEntity
  8
SLD-0_0
  6
Continuous
 62
   179
370
    25
100
AcDbLine
 10
86.0
 20
141.0
 30
0.0
 11
91.0
 21
141.0
 31
0.0
  0
LINE
  5
1A8
330
179
100
AcDbEntity
  8
SLD-0_0
  6
Continuous
 62
   179
370
    25
100
AcDbLine
 10
91.0
 20
141.0
 30
0.0
 11
91.0
 21
121.0
 31
0.0
  0
LINE
  5
1A9
330
179
100
AcDbEntity
  8
SLD-0_0
  6
Continuous
 62
   179
370
    25
100
AcDbLine
 10
91.0
 20
121.0
 30
0.0
 11
86.0
 21
121.0
 31
0.0
  0
LINE
  5
1AA
330
179
100
AcDbEntity
  8
SLD-0_0
  6
Continuous
 62
   179
370
    25
100
AcDbLine
 10
181.0
 20
192.0
 30
0.0
 11
181.0
 21
177.0
 31
0.0
  0
LINE
  5
1AB
330
179
100
AcDbEntity
  8
SLD-0_0
  6
Continuous
 62
   179
370
    25
100
AcDbLine
 10
181.0
 20
177.0
 30
0.0
 11
176.0
 21
177.0
 31
0.0
  0
LINE
  5
1AC
330
179
100
AcDbEntity
  8
SLD-0_0
  6
Continuous
 62
   179
370
    25
100
AcDbLine
 10
176.0
 20
177.0
 30
0.0
 11
176.0
 21
172.0
 31
0.0
  0
LINE
  5
1AD
330
179
100
AcDbEntity
  8
SLD-0_0
  6
Continuous
 62
   179
370
    25
100
AcDbLine
 10
176.0
 20
172.0
 30
0.0
 11
171.0
 21
172.0
 31
0.0
  0
LINE
  5
1AE
330
179
100
AcDbEntity
  8
SLD-0_0
  6
Continuous
 62
   179
370
    25
100
AcDbLine
 10
171.0
 20
172.0
 30
0.0
 11
171.0
 21
197.0
 31
0.0
  0
LINE
  5
1AF
330
179
100
AcDbEntity
  8
SLD-0_0
  6
Continuous
 62
   179
370
    25
100
AcDbLine
 10
171.0
 20
197.0
 30
0.0
 11
176.0
 21
197.0
 31
0.0
  0
LINE
  5
1B0
330
179
100
AcDbEntity
  8
SLD-0_0
  6
Continuous
 62
   179
370
    25
100
AcDbLine
 10
176.0
 20
197.0
 30
0.0
 11
176.0
 21
192.0
 31
0.0
  0
LINE
  5
1B1
330
179
100
AcDbEntity
  8
SLD-0_0
  6
Continuous
 62
   179
370
    25
100
AcDbLine
 10
176.0
 20
192.0
 30
0.0
 11
181.0
 21
192.0
 31
0.0
  0
LINE
  5
1B2
330
179
100
AcDbEntity
  8
SLD-0_0
  6
Continuous
 62
   179
370
    25
100
AcDbLine
 10
176.0
 20
41.0
 30
0.0
 11
176.0
 21
46.0
 31
0.0
  0
LINE
  5
1B3
330
179
100
AcDbEntity
  8
SLD-0_0
  6
Continuous
 62
   179
370
    25
100
AcDbLine
 10
176.0
 20
46.0
 30
0.0
 11
181.0
 21
46.0
 31
0.0
  0
LINE
  5
1B4
330
179
100
AcDbEntity
  8
SLD-0_0
  6
Continuous
 62
   179
370
    25
100
AcDbLine
 10
181.0
 20
46.0
 30
0.0
 11
181.0
 21
41.0
 31
0.0
  0
LINE
  5
1B5
330
179
100
AcDbEntity
  8
SLD-0_0
  6
Continuous
 62
   179
370
    25
100
AcDbLine
 10
181.0
 20
41.0
 30
0.0
 11
186.0
 21
41.0
 31
0.0
  0
LINE
  5
1B6
330
179
100
AcDbEntity
  8
SLD-0_0
  6
Continuous
 62
   179
370
    25
100
AcDbLine
 10
186.0
 20
41.0
 30
0.0
 11
186.0
 21
36.0
 31
0.0
  0
LINE
  5
1B7
330
179
100
AcDbEntity
  8
SLD-0_0
  6
Continuous
 62
   179
370
    25
100
AcDbLine
 10
186.0
 20
36.0
 30
0.0
 11
181.0
 21
36.0
 31
0.0
  0
LINE
  5
1B8
330
179
100
AcDbEntity
  8
SLD-0_0
  6
Continuous
 62
   179
370
    25
100
AcDbLine
 10
181.0
 20
36.0
 30
0.0
 11
181.0
 21
31.0
 31
0.0
  0
LINE
  5
1B9
330
179
100
AcDbEntity
  8
SLD-0_0
  6
Continuous
 62
   179
370
    25
100
AcDbLine
 10
181.0
 20
31.0
 30
0.0
 11
176.0
 21
31.0
 31
0.0
  0
LINE
  5
1BA
330
179
100
AcDbEntity
  8
SLD-0_0
  6
Continuous
 62
   179
370
    25
100
AcDbLine
 10
176.0
 20
31.0
 30
0.0
 11
176.0
 21
36.0
 31
0.0
  0
LINE
  5
1BB
330
179
100
AcDbEntity
  8
SLD-0_0
  6
Continuous
 62
   179
370
    25
100
AcDbLine
 10
176.0
 20
36.0
 30
0.0
 11
171.0
 21
36.0
 31
0.0
  0
LINE
  5
1BC
330
179
100
AcDbEntity
  8
SLD-0_0
  6
Continuous
 62
   179
370
    25
100
AcDbLine
 10
171.0
 20
36.0
 30
0.0
 11
171.0
 21
41.0
 31
0.0
  0
LINE
  5
1BD
330
179
100
AcDbEntity
  8
SLD-0_0
  6
Continuous
 62
   179
370
    25
100
AcDbLine
 10
171.0
 20
41.0
 30
0.0
 11
176.0
 21
41.0
 31
0.0
  0
LINE
  5
1BE
330
179
100
AcDbEntity
  8
SLD-0_0
  6
Continuous
 62
   179
370
    25
100
AcDbLine
 10
199.8
 20
257.0
 30
0.0
 11
199.8
 21
177.0000000001
 31
0.0
  0
LINE
  5
1BF
330
179
100
AcDbEntity
  8
SLD-0_0
  6
Continuous
 62
   179
370
    25
100
AcDbLine
 10
181.0
 20
257.0
 30
0.0
 11
199.8
 21
257.0
 31
0.0
  0
LINE
  5
1C0
330
179
100
AcDbEntity
  8
SLD-0_0
  6
Continuous
 62
   179
370
    25
100
AcDbLine
 10
181.0
 20
252.0
 30
0.0
 11
181.0
 21
257.0
 31
0.0
  0
LINE
  5
1C1
330
179
100
AcDbEntity
  8
SLD-0_0
  6
Continuous
 62
   179
370
    25
100
AcDbLine
 10
166.0
 20
252.0
 30
0.0
 11
181.0
 21
252.0
 31
0.0
  0
LINE
  5
1C2
330
179
100
AcDbEntity
  8
SLD-0_0
  6
Continuous
 62
   179
370
    25
100
AcDbLine
 10
166.0
 20
257.0
 30
0.0
 11
166.0
 21
252.0
 31
0.0
  0
LINE
  5
1C3
330
179
100
AcDbEntity
  8
SLD-0_0
  6
Continuous
 62
   179
370
    25
100
AcDbLine
 10
86.0
 20
257.0
 30
0.0
 11
166.0
 21
257.0
 31
0.0
  0
LINE
  5
1C4
330
179
100
AcDbEntity
  8
SLD-0_0
  6
Continuous
 62
   179
370
    25
100
AcDbLine
 10
86.0
 20
252.0
 30
0.0
 11
86.0
 21
257.0
 31
0.0
  0
LINE
  5
1C5
330
179
100
AcDbEntity
  8
SLD-0_0
  6
Continuous
 62
   179
370
    25
100
AcDbLine
 10
71.0
 20
252.0
 30
0.0
 11
86.0
 21
252.0
 31
0.0
  0
LINE
  5
1C6
330
179
100
AcDbEntity
  8
SLD-0_0
  6
Continuous
 62
   179
370
    25
100
AcDbLine
 10
71.0
 20
257.0
 30
0.0
 11
71.0
 21
252.0
 31
0.0
  0
LINE
  5
1C7
330
179
100
AcDbEntity
  8
SLD-0_0
  6
Continuous
 62
   179
370
    25
100
AcDbLine
 10
52.2
 20
257.0
 30
0.0
 11
71.0
 21
257.0
 31
0.0
  0
LINE
  5
1C8
330
179
100
AcDbEntity
  8
SLD-0_0
  6
Continuous
 62
   179
370
    25
100
AcDbLine
 10
52.2
 20
177.0
 30
0.0
 11
52.2
 21
257.0
 31
0.0
  0
LINE
  5
1C9
330
179
100
AcDbEntity
  8
SLD-0_0
  6
Continuous
 62
   179
370
    25
100
AcDbLine
 10
10.782813782
 20
177.0000000001
 30
0.0
 11
52.2
 21
177.0
 31
0.0
  0
LINE
  5
1CA
330
179
100
AcDbEntity
  8
SLD-0_0
  6
Continuous
 62
   179
370
    25
100
AcDbLine
 10
199.8
 20
177.0000000001
 30
0.0
 11
241.217186218
 21
177.0000000001
 31
0.0
  0
LINE
  5
1CB
330
179
100
AcDbEntity
  8
SLD-0_0
  6
Continuous
 62
   179
370
    25
100
AcDbLine
 10
181.0
 20
237.0
 30
0.0
 11
181.0
 21
222.0
 31
0.0
  0
LINE
  5
1CC
330
179
100
AcDbEntity
  8
SLD-0_0
  6
Continuous
 62
   179
370
    25
100
AcDbLine
 10
181.0
 20
222.0
 30
0.0
 11
176.0
 21
222.0
 31
0.0
  0
LINE
  5
1CD
330
179
100
AcDbEntity
  8
SLD-0_0
  6
Continuous
 62
   179
370
    25
100
AcDbLine
 10
176.0
 20
222.0
 30
0.0
 11
176.0
 21
217.0
 31
0.0
  0
LINE
  5
1CE
330
179
100
AcDbEntity
  8
SLD-0_0
  6
Continuous
 62
   179
370
    25
100
AcDbLine
 10
176.0
 20
217.0
 30
0.0
 11
171.0
 21
217.0
 31
0.0
  0
LINE
  5
1CF
330
179
100
AcDbEntity
  8
SLD-0_0
  6
Continuous
 62
   179
370
    25
100
AcDbLine
 10
171.0
 20
217.0
 30
0.0
 11
171.0
 21
242.0
 31
0.0
  0
LINE
  5
1D0
330
179
100
AcDbEntity
  8
SLD-0_0
  6
Continuous
 62
   179
370
    25
100
AcDbLine
 10
171.0
 20
242.0
 30
0.0
 11
176.0
 21
242.0
 31
0.0
  0
LINE
  5
1D1
330
179
100
AcDbEntity
  8
SLD-0_0
  6
Continuous
 62
   179
370
    25
100
AcDbLine
 10
176.0
 20
242.0
 30
0.0
 11
176.0
 21
237.0
 31
0.0
  0
LINE
  5
1D2
330
179
100
AcDbEntity
  8
SLD-0_0
  6
Continuous
 62
   179
370
    25
100
AcDbLine
 10
176.0
 20
237.0
 30
0.0
 11
181.0
 21
237.0
 31
0.0
  0
LINE
  5
1D3
330
179
100
AcDbEntity
  8
SLD-0_0
  6
Continuous
 62
   179
370
    25
100
AcDbLine
 10
226.0
 20
121.0
 30
0.0
 11
226.0
 21
141.0
 31
0.0
  0
LINE
  5
1D4
330
179
100
AcDbEntity
  8
SLD-0_0
  6
Continuous
 62
   179
370
    25
100
AcDbLine
 10
226.0
 20
141.0
 30
0.0
 11
231.0
 21
141.0
 31
0.0
  0
LINE
  5
1D5
330
179
100
AcDbEntity
  8
SLD-0_0
  6
Continuous
 62
   179
370
    25
100
AcDbLine
 10
231.0
 20
141.0
 30
0.0
 11
231.0
 21
121.0
 31
0.0
  0
LINE
  5
1D6
330
179
100
AcDbEntity
  8
SLD-0_0
  6
Continuous
 62
   179
370
    25
100
AcDbLine
 10
231.0
 20
121.0
 30
0.0
 11
226.0
 21
121.0
 31
0.0
  0
LINE
  5
1D7
330
179
100
AcDbEntity
  8
SLD-0_0
  6
Continuous
 62
   179
370
    25
100
AcDbLine
 10
216.0
 20
156.0
 30
0.0
 11
216.0
 21
151.0
 31
0.0
  0
LINE
  5
1D8
330
179
100
AcDbEntity
  8
SLD-0_0
  6
Continuous
 62
   179
370
    25
100
AcDbLine
 10
216.0
 20
151.0
 30
0.0
 11
206.0
 21
151.0
 31
0.0
  0
LINE
  5
1D9
330
179
100
AcDbEntity
  8
SLD-0_0
  6
Continuous
 62
   179
370
    25
100
AcDbLine
 10
206.0
 20
151.0
 30
0.0
 11
206.0
 21
156.0
 31
0.0
  0
LINE
  5
1DA
330
179
100
AcDbEntity
  8
SLD-0_0
  6
Continuous
 62
   179
370
    25
100
AcDbLine
 10
206.0
 20
156.0
 30
0.0
 11
216.0
 21
156.0
 31
0.0
  0
LINE
  5
1DB
330
179
100
AcDbEntity
  8
SLD-0_0
  6
Continuous
 62
   179
370
    25
100
AcDbLine
 10
161.0
 20
96.0
 30
0.0
 11
166.0
 21
96.0
 31
0.0
  0
LINE
  5
1DC
330
179
100
AcDbEntity
  8
SLD-0_0
  6
Continuous
 62
   179
370
    25
100
AcDbLine
 10
166.0
 20
96.0
 30
0.0
 11
166.0
 21
76.0
 31
0.0
  0
LINE
  5
1DD
330
179
100
AcDbEntity
  8
SLD-0_0
  6
Continuous
 62
   179
370
    25
100
AcDbLine
 10
166.0
 20
76.0
 30
0.0
 11
161.0
 21
76.0
 31
0.0
  0
LINE
  5
1DE
330
179
100
AcDbEntity
  8
SLD-0_0
  6
Continuous
 62
   179
370
    25
100
AcDbLine
 10
161.0
 20
76.0
 30
0.0
 11
161.0
 21
96.0
 31
0.0
  0
LINE
  5
1DF
330
179
100
AcDbEntity
  8
SLD-0_0
  6
Continuous
 62
   179
370
    25
100
AcDbLine
 10
36.0
 20
141.0
 30
0.0
 11
41.0
 21
141.0
 31
0.0
  0
LINE
  5
1E0
330
179
100
AcDbEntity
  8
SLD-0_0
  6
Continuous
 62
   179
370
    25
100
AcDbLine
 10
41.0
 20
141.0
 30
0.0
 11
41.0
 21
121.0
 31
0.0
  0
LINE
  5
1E1
330
179
100
AcDbEntity
  8
SLD-0_0
  6
Continuous
 62
   179
370
    25
100
AcDbLine
 10
41.0
 20
121.0
 30
0.0
 11
36.0
 21
121.0
 31
0.0
  0
LINE
  5
1E2
330
179
100
AcDbEntity
  8
SLD-0_0
  6
Continuous
 62
   179
370
    25
100
AcDbLine
 10
36.0
 20
121.0
 30
0.0
 11
36.0
 21
141.0
 31
0.0
  0
LINE
  5
1E3
330
179
100
AcDbEntity
  8
SLD-0_0
  6
Continuous
 62
   179
370
    25
100
AcDbLine
 10
86.0
 20
96.0
 30
0.0
 11
91.0
 21
96.0
 31
0.0
  0
LINE
  5
1E4
330
179
100
AcDbEntity
  8
SLD-0_0
  6
Continuous
 62
   179
370
    25
100
AcDbLine
 10
91.0
 20
96.0
 30
0.0
 11
91.0
 21
76.0
 31
0.0
  0
LINE
  5
1E5
330
179
100
AcDbEntity
  8
SLD-0_0
  6
Continuous
 62
   179
370
    25
100
AcDbLine
 10
91.0
 20
76.0
 30
0.0
 11
86.0
 21
76.0
 31
0.0
  0
LINE
  5
1E6
330
179
100
AcDbEntity
  8
SLD-0_0
  6
Continuous
 62
   179
370
    25
100
AcDbLine
 10
86.0
 20
76.0
 30
0.0
 11
86.0
 21
96.0
 31
0.0
  0
LINE
  5
1E7
330
179
100
AcDbEntity
  8
SLD-0_0
  6
Continuous
 62
   179
370
    25
100
AcDbLine
 10
186.0
 20
151.0
 30
0.0
 11
176.0
 21
151.0
 31
0.0
  0
LINE
  5
1E8
330
179
100
AcDbEntity
  8
SLD-0_0
  6
Continuous
 62
   179
370
    25
100
AcDbLine
 10
176.0
 20
151.0
 30
0.0
 11
176.0
 21
156.0
 31
0.0
  0
LINE
  5
1E9
330
179
100
AcDbEntity
  8
SLD-0_0
  6
Continuous
 62
   179
370
    25
100
AcDbLine
 10
176.0
 20
156.0
 30
0.0
 11
186.0
 21
156.0
 31
0.0
  0
LINE
  5
1EA
330
179
100
AcDbEntity
  8
SLD-0_0
  6
Continuous
 62
   179
370
    25
100
AcDbLine
 10
186.0
 20
156.0
 30
0.0
 11
186.0
 21
151.0
 31
0.0
  0
LINE
  5
1EB
330
179
100
AcDbEntity
  8
SLD-0_0
  6
Continuous
 62
   179
370
    25
100
AcDbLine
 10
216.0
 20
61.0
 30
0.0
 11
206.0
 21
61.0
 31
0.0
  0
LINE
  5
1EC
330
179
100
AcDbEntity
  8
SLD-0_0
  6
Continuous
 62
   179
370
    25
100
AcDbLine
 10
206.0
 20
61.0
 30
0.0
 11
206.0
 21
66.0
 31
0.0
  0
LINE
  5
1ED
330
179
100
AcDbEntity
  8
SLD-0_0
  6
Continuous
 62
   179
370
    25
100
AcDbLine
 10
206.0
 20
66.0
 30
0.0
 11
216.0
 21
66.0
 31
0.0
  0
LINE
  5
1EE
330
179
100
AcDbEntity
  8
SLD-0_0
  6
Continuous
 62
   179
370
    25
100
AcDbLine
 10
216.0
 20
66.0
 30
0.0
 11
216.0
 21
61.0
 31
0.0
  0
LINE
  5
1EF
330
179
100
AcDbEntity
  8
SLD-0_0
  6
Continuous
 62
   179
370
    25
100
AcDbLine
 10
71.0
 20
46.0
 30
0.0
 11
76.0
 21
46.0
 31
0.0
  0
LINE
  5
1F0
330
179
100
AcDbEntity
  8
SLD-0_0
  6
Continuous
 62
   179
370
    25
100
AcDbLine
 10
76.0
 20
46.0
 30
0.0
 11
76.0
 21
41.0
 31
0.0
  0
LINE
  5
1F1
330
179
100
AcDbEntity
  8
SLD-0_0
  6
Continuous
 62
   179
370
    25
100
AcDbLine
 10
76.0
 20
41.0
 30
0.0
 11
81.0
 21
41.0
 31
0.0
  0
LINE
  5
1F2
330
179
100
AcDbEntity
  8
SLD-0_0
  6
Continuous
 62
   179
370
    25
100
AcDbLine
 10
81.0
 20
41.0
 30
0.0
 11
81.0
 21
36.0
 31
0.0
  0
LINE
  5
1F3
330
179
100
AcDbEntity
  8
SLD-0_0
  6
Continuous
 62
   179
370
    25
100
AcDbLine
 10
81.0
 20
36.0
 30
0.0
 11
76.0
 21
36.0
 31
0.0
  0
LINE
  5
1F4
330
179
100
AcDbEntity
  8
SLD-0_0
  6
Continuous
 62
   179
370
    25
100
AcDbLine
 10
76.0
 20
36.0
 30
0.0
 11
76.0
 21
31.0
 31
0.0
  0
LINE
  5
1F5
330
179
100
AcDbEntity
  8
SLD-0_0
  6
Continuous
 62
   179
370
    25
100
AcDbLine
 10
76.0
 20
31.0
 30
0.0
 11
71.0
 21
31.0
 31
0.0
  0
LINE
  5
1F6
330
179
100
AcDbEntity
  8
SLD-0_0
  6
Continuous
 62
   179
370
    25
100
AcDbLine
 10
71.0
 20
31.0
 30
0.0
 11
71.0
 21
36.0
 31
0.0
  0
LINE
  5
1F7
330
179
100
AcDbEntity
  8
SLD-0_0
  6
Continuous
 62
   179
370
    25
100
AcDbLine
 10
71.0
 20
36.0
 30
0.0
 11
66.0
 21
36.0
 31
0.0
  0
LINE
  5
1F8
330
179
100
AcDbEntity
  8
SLD-0_0
  6
Continuous
 62
   179
370
    25
100
AcDbLine
 10
66.0
 20
36.0
 30
0.0
 11
66.0
 21
41.0
 31
0.0
  0
LINE
  5
1F9
330
179
100
AcDbEntity
  8
SLD-0_0
  6
Continuous
 62
   179
370
    25
100
AcDbLine
 10
66.0
 20
41.0
 30
0.0
 11
71.0
 21
41.0
 31
0.0
  0
LINE
  5
1FA
330
179
100
AcDbEntity
  8
SLD-0_0
  6
Continuous
 62
   179
370
    25
100
AcDbLine
 10
71.0
 20
41.0
 30
0.0
 11
71.0
 21
46.0
 31
0.0
  0
LINE
  5
1FB
330
179
100
AcDbEntity
  8
SLD-0_0
  6
Continuous
 62
   179
370
    25
100
AcDbLine
 10
81.0
 20
217.0
 30
0.0
 11
76.0
 21
217.0
 31
0.0
  0
LINE
  5
1FC
330
179
100
AcDbEntity
  8
SLD-0_0
  6
Continuous
 62
   179
370
    25
100
AcDbLine
 10
76.0
 20
217.0
 30
0.0
 11
76.0
 21
222.0
 31
0.0
  0
LINE
  5
1FD
330
179
100
AcDbEntity
  8
SLD-0_0
  6
Continuous
 62
   179
370
    25
100
AcDbLine
 10
76.0
 20
222.0
 30
0.0
 11
71.0
 21
222.0
 31
0.0
  0
LINE
  5
1FE
330
179
100
AcDbEntity
  8
SLD-0_0
  6
Continuous
 62
   179
370
    25
100
AcDbLine
 10
71.0
 20
222.0
 30
0.0
 11
71.0
 21
237.0
 31
0.0
  0
LINE
  5
1FF
330
179
100
AcDbEntity
  8
SLD-0_0
  6
Continuous
 62
   179
370
    25
100
AcDbLine
 10
71.0
 20
237.0
 30
0.0
 11
76.0
 21
237.0
 31
0.0
  0
LINE
  5
200
330
179
100
AcDbEntity
  8
SLD-0_0
  6
Continuous
 62
   179
370
    25
100
AcDbLine
 10
76.0
 20
237.0
 30
0.0
 11
76.0
 21
242.0
 31
0.0
  0
LINE
  5
201
330
179
100
AcDbEntity
  8
SLD-0_0
  6
Continuous
 62
   179
370
    25
100
AcDbLine
 10
76.0
 20
242.0
 30
0.0
 11
81.0
 21
242.0
 31
0.0
  0
LINE
  5
202
330
179
100
AcDbEntity
  8
SLD-0_0
  6
Continuous
 62
   179
370
    25
100
AcDbLine
 10
81.0
 20
242.0
 30
0.0
 11
81.0
 21
217.0
 31
0.0
  0
LINE
  5
203
330
179
100
AcDbEntity
  8
SLD-0_0
  6
Continuous
 62
   179
370
    25
100
AcDbLine
 10
86.0
 20
16.0
 30
0.0
 11
86.0
 21
21.0
 31
0.0
  0
LINE
  5
204
330
179
100
AcDbEntity
  8
SLD-0_0
  6
Continuous
 62
   179
370
    25
100
AcDbLine
 10
86.0
 20
21.0
 30
0.0
 11
101.0
 21
21.0
 31
0.0
  0
LINE
  5
205
330
179
100
AcDbEntity
  8
SLD-0_0
  6
Continuous
 62
   179
370
    25
100
AcDbLine
 10
101.0
 20
21.0
 30
0.0
 11
101.0
 21
16.0
 31
0.0
  0
LINE
  5
206
330
179
100
AcDbEntity
  8
SLD-0_0
  6
Continuous
 62
   179
370
    25
100
AcDbLine
 10
101.0
 20
16.0
 30
0.0
 11
86.0
 21
16.0
 31
0.0
  0
ENDBLK
  5
17B
330
179
100
AcDbEntity
  8
0
100
AcDbBlockEnd
  0
BLOCK
  5
208
330
207
100
AcDbEntity
  8
0
100
AcDbBlockBegin
  2
BAG_TOP_SECOND
 70
     0
 10
0.0
 20
0.0
 30
0.0
  3
BAG_TOP_SECOND
  1

  0
LINE
  5
20A
330
207
100
AcDbEntity
  8
SLD-0_0
  6
Continuous
 62
   179
370
    25
100
AcDbLine
 10
0.0
 20
115.0
 30
0.0
 11
0.0
 21
15.0
 31
0.0
  0
LINE
  5
20B
330
207
100
AcDbEntity
  8
SLD-0_0
  6
Continuous
 62
   179
370
    25
100
AcDbLine
 10
0.0
 20
15.0
 30
0.0
 11
40.0
 21
15.0
 31
0.0
  0
LINE
  5
20C
330
207
100
AcDbEntity
  8
SLD-0_0
  6
Continuous
 62
   179
370
    25
100
AcDbLine
 10
40.0
 20
15.0
 30
0.0
 11
40.0
 21
0.0
 31
0.0
  0
LINE
  5
20D
330
207
100
AcDbEntity
  8
SLD-0_0
  6
Continuous
 62
   179
370
    25
100
AcDbLine
 10
40.0
 20
0.0
 30
0.0
 11
60.0
 21
0.0
 31
0.0
  0
LINE
  5
20E
330
207
100
AcDbEntity
  8
SLD-0_0
  6
Continuous
 62
   179
370
    25
100
AcDbLine
 10
60.0
 20
0.0
 30
0.0
 11
60.0
 21
15.0
 31
0.0
  0
LINE
  5
20F
330
207
100
AcDbEntity
  8
SLD-0_0
  6
Continuous
 62
   179
370
    25
100
AcDbLine
 10
60.0
 20
15.0
 30
0.0
 11
100.0
 21
15.0
 31
0.0
  0
LINE
  5
210
330
207
100
AcDbEntity
  8
SLD-0_0
  6
Continuous
 62
   179
370
    25
100
AcDbLine
 10
100.0
 20
15.0
 30
0.0
 11
100.0
 21
115.0
 31
0.0
  0
LINE
  5
211
330
207
100
AcDbEntity
  8
SLD-0_0
  6
Continuous
 62
   179
370
    25
100
AcDbLine
 10
100.0
 20
115.0
 30
0.0
 11
0.0
 21
115.0
 31
0.0
  0
LINE
  5
212
330
207
100
AcDbEntity
  8
SLD-0_0
  6
Continuous
 62
   179
370
    25
100
AcDbLine
 10
5.0
 20
55.0
 30
0.0
 11
10.0
 21
55.0
 31
0.0
  0
LINE
  5
213
330
207
100
AcDbEntity
  8
SLD-0_0
  6
Continuous
 62
   179
370
    25
100
AcDbLine
 10
5.0
 20
75.0
 30
0.0
 11
5.0
 21
55.0
 31
0.0
  0
LINE
  5
214
330
207
100
AcDbEntity
  8
SLD-0_0
  6
Continuous
 62
   179
370
    25
100
AcDbLine
 10
10.0
 20
75.0
 30
0.0
 11
5.0
 21
75.0
 31
0.0
  0
LINE
  5
215
330
207
100
AcDbEntity
  8
SLD-0_0
  6
Continuous
 62
   179
370
    25
100
AcDbLine
 10
10.0
 20
55.0
 30
0.0
 11
10.0
 21
75.0
 31
0.0
  0
LINE
  5
216
330
207
100
AcDbEntity
  8
SLD-0_0
  6
Continuous
 62
   179
370
    25
100
AcDbLine
 10
95.0
 20
75.0
 30
0.0
 11
90.0
 21
75.0
 31
0.0
  0
LINE
  5
217
330
207
100
AcDbEntity
  8
SLD-0_0
  6
Continuous
 62
   179
370
    25
100
AcDbLine
 10
95.0
 20
55.0
 30
0.0
 11
95.0
 21
75.0
 31
0.0
  0
LINE
  5
218
330
207
100
AcDbEntity
  8
SLD-0_0
  6
Continuous
 62
   179
370
    25
100
AcDbLine
 10
90.0
 20
55.0
 30
0.0
 11
95.0
 21
55.0
 31
0.0
  0
LINE
  5
219
330
207
100
AcDbEntity
  8
SLD-0_0
  6
Continuous
 62
   179
370
    25
100
AcDbLine
 10
90.0
 20
75.0
 30
0.0
 11
90.0
 21
55.0
 31
0.0
  0
LINE
  5
21A
330
207
100
AcDbEntity
  8
SLD-0_0
  6
Continuous
 62
   179
370
    25
100
AcDbLine
 10
45.0
 20
5.0
 30
0.0
 11
55.0
 21
5.0
 31
0.0
  0
LINE
  5
21B
330
207
100
AcDbEntity
  8
SLD-0_0
  6
Continuous
 62
   179
370
    25
100
AcDbLine
 10
45.0
 20
8.9430495578
 30
0.0
 11
45.0
 21
5.0
 31
0.0
  0
LINE
  5
21C
330
207
100
AcDbEntity
  8
SLD-0_0
  6
Continuous
 62
   179
370
    25
100
AcDbLine
 10
55.0
 20
8.9430495578
 30
0.0
 11
45.0
 21
8.9430495578
 31
0.0
  0
LINE
  5
21D
330
207
100
AcDbEntity
  8
SLD-0_0
  6
Continuous
 62
   179
370
    25
100
AcDbLine
 10
55.0
 20
5.0
 30
0.0
 11
55.0
 21
8.9430495578
 31
0.0
  0
ENDBLK
  5
209
330
207
100
AcDbEntity
  8
0
100
AcDbBlockEnd
  0
BLOCK
  5
21F
330
21E
100
AcDbEntity
  8
0
100
AcDbBlockBegin
  2
CLAMP_SMALL
 70
     0
 10
0.0
 20
0.0
 30
0.0
  3
CLAMP_SMALL
  1

  0
LINE
  5
221
330
21E
100
AcDbEntity
  8
SLD-0_0
  6
Continuous
 62
   179
370
    25
100
AcDbLine
 10
20.0
 20
5.0
 30
0.0
 11
20.0
 21
10.0
 31
0.0
  0
LINE
  5
222
330
21E
100
AcDbEntity
  8
SLD-0_0
  6
Continuous
 62
   179
370
    25
100
AcDbLine
 10
15.0
 20
5.0
 30
0.0
 11
20.0
 21
5.0
 31
0.0
  0
LINE
  5
223
330
21E
100
AcDbEntity
  8
SLD-0_0
  6
Continuous
 62
   179
370
    25
100
AcDbLine
 10
15.0
 20
0.0
 30
0.0
 11
15.0
 21
5.0
 31
0.0
  0
LINE
  5
224
330
21E
100
AcDbEntity
  8
SLD-0_0
  6
Continuous
 62
   179
370
    25
100
AcDbLine
 10
5.0
 20
0.0
 30
0.0
 11
15.0
 21
0.0
 31
0.0
  0
LINE
  5
225
330
21E
100
AcDbEntity
  8
SLD-0_0
  6
Continuous
 62
   179
370
    25
100
AcDbLine
 10
5.0
 20
5.0
 30
0.0
 11
5.0
 21
0.0
 31
0.0
  0
LINE
  5
226
330
21E
100
AcDbEntity
  8
SLD-0_0
  6
Continuous
 62
   179
370
    25
100
AcDbLine
 10
0.0
 20
5.0
 30
0.0
 11
5.0
 21
5.0
 31
0.0
  0
LINE
  5
227
330
21E
100
AcDbEntity
  8
SLD-0_0
  6
Continuous
 62
   179
370
    25
100
AcDbLine
 10
0.0
 20
10.0
 30
0.0
 11
0.0
 21
5.0
 31
0.0
  0
LINE
  5
228
330
21E
100
AcDbEntity
  8
SLD-0_0
  6
Continuous
 62
   179
370
    25
100
AcDbLine
 10
20.0
 20
10.0
 30
0.0
 11
0.0
 21
10.0
 31
0.0
  0
ENDBLK
  5
220
330
21E
100
AcDbEntity
  8
0
100
AcDbBlockEnd
  0
BLOCK
  5
22A
330
229
100
AcDbEntity
  8
0
100
AcDbBlockBegin
  2
CLAMP_BIG
 70
     0
 10
0.0
 20
0.0
 30
0.0
  3
CLAMP_BIG
  1

  0
LINE
  5
22C
330
229
100
AcDbEntity
  8
SLD-0_0
  6
Continuous
 62
   179
370
    25
100
AcDbLine
 10
0.0
 20
10.0
 30
0.0
 11
0.0
 21
5.0
 31
0.0
  0
LINE
  5
22D
330
229
100
AcDbEntity
  8
SLD-0_0
  6
Continuous
 62
   179
370
    25
100
AcDbLine
 10
0.0
 20
5.0
 30
0.0
 11
5.0
 21
5.0
 31
0.0
  0
LINE
  5
22E
330
229
100
AcDbEntity
  8
SLD-0_0
  6
Continuous
 62
   179
370
    25
100
AcDbLine
 10
5.0
 20
5.0
 30
0.0
 11
5.0
 21
0.0
 31
0.0
  0
LINE
  5
22F
330
229
100
AcDbEntity
  8
SLD-0_0
  6
Continuous
 62
   179
370
    25
100
AcDbLine
 10
5.0
 20
0.0
 30
0.0
 11
30.0
 21
0.0
 31
0.0
  0
LINE
  5
230
330
229
100
AcDbEntity
  8
SLD-0_0
  6
Continuous
 62
   179
370
    25
100
AcDbLine
 10
30.0
 20
0.0
 30
0.0
 11
30.0
 21
5.0
 31
0.0
  0
LINE
  5
231
330
229
100
AcDbEntity
  8
SLD-0_0
  6
Continuous
 62
   179
370
    25
100
AcDbLine
 10
30.0
 20
5.0
 30
0.0
 11
50.0
 21
5.0
 31
0.0
  0
LINE
  5
232
330
229
100
AcDbEntity
  8
SLD-0_0
  6
Continuous
 62
   179
370
    25
100
AcDbLine
 10
50.0
 20
5.0
 30
0.0
 11
50.0
 21
0.0
 31
0.0
  0
LINE
  5
233
330
229
100
AcDbEntity
  8
SLD-0_0
  6
Continuous
 62
   179
370
    25
100
AcDbLine
 10
50.0
 20
0.0
 30
0.0
 11
75.0
 21
0.0
 31
0.0
  0
LINE
  5
234
330
229
100
AcDbEntity
  8
SLD-0_0
  6
Continuous
 62
   179
370
    25
100
AcDbLine
 10
75.0
 20
0.0
 30
0.0
 11
75.0
 21
5.0
 31
0.0
  0
LINE
  5
235
330
229
100
AcDbEntity
  8
SLD-0_0
  6
Continuous
 62
   179
370
    25
100
AcDbLine
 10
75.0
 20
5.0
 30
0.0
 11
80.0
 21
5.0
 31
0.0
  0
LINE
  5
236
330
229
100
AcDbEntity
  8
SLD-0_0
  6
Continuous
 62
   179
370
    25
100
AcDbLine
 10
80.0
 20
5.0
 30
0.0
 11
80.0
 21
10.0
 31
0.0
  0
LINE
  5
237
330
229
100
AcDbEntity
  8
SLD-0_0
  6
Continuous
 62
   179
370
    25
100
AcDbLine
 10
80.0
 20
10.0
 30
0.0
 11
0.0
 21
10.0
 31
0.0
  0
ENDBLK
  5
22B
330
229
100
AcDbEntity
  8
0
100
AcDbBlockEnd
  0
BLOCK
  5
239
330
238
100
AcDbEntity
  8
0
100
AcDbBlockBegin
  2
MOTOR_HOLDER
 70
     0
 10
0.0
 20
0.0
 30
0.0
  3
MOTOR_HOLDER
  1

  0
CIRCLE
  5
23B
330
238
100
AcDbEntity
  8
SLD-0_0
  6
Continuous
 62
   179
370
    25
100
AcDbCircle
 10
53.0
 20
28.75
 30
0.0
 40
6.000000000000007
  0
CIRCLE
  5
23C
330
238
100
AcDbEntity
  8
SLD-0_0
  6
Continuous
 62
   179
370
    25
100
AcDbCircle
 10
32.4
 20
37.75
 30
0.0
 40
1.500000000000007
  0
CIRCLE
  5
23D
330
238
100
AcDbEntity
  8
SLD-0_0
  6
Continuous
 62
   179
370
    25
100
AcDbCircle
 10
32.4
 20
19.75
 30
0.0
 40
1.5
  0
CIRCLE
  5
23E
330
238
100
AcDbEntity
  8
SLD-0_0
  6
Continuous
 62
   179
370
    25
100
AcDbCircle
 10
65.4
 20
28.75
 30
0.0
 40
1.5
  0
LINE
  5
23F
330
238
100
AcDbEntity
  8
SLD-0_0
  6
Continuous
 62
   179
370
    25
100
AcDbLine
 10
0.0
 20
40.0
 30
0.0
 11
0.0
 21
10.0
 31
0.0
  0
LINE
  5
240
330
238
100
AcDbEntity
  8
SLD-0_0
  6
Continuous
 62
   179
370
    25
100
AcDbLine
 10
0.0
 20
10.0
 30
0.0
 11
11.0
 21
10.0
 31
0.0
  0
LINE
  5
241
330
238
100
AcDbEntity
  8
SLD-0_0
  6
Continuous
 62
   179
370
    25
100
AcDbLine
 10
11.0
 20
10.0
 30
0.0
 11
11.0
 21
5.0
 31
0.0
  0
LINE
  5
242
330
238
100
AcDbEntity
  8
SLD-0_0
  6
Continuous
 62
   179
370
    25
100
AcDbLine
 10
11.0
 20
5.0
 30
0.0
 11
6.0
 21
5.0
 31
0.0
  0
LINE
  5
243
330
238
100
AcDbEntity
  8
SLD-0_0
  6
Continuous
 62
   179
370
    25
100
AcDbLine
 10
6.0
 20
5.0
 30
0.0
 11
6.0
 21
0.0
 31
0.0
  0
LINE
  5
244
330
238
100
AcDbEntity
  8
SLD-0_0
  6
Continuous
 62
   179
370
    25
100
AcDbLine
 10
6.0
 20
0.0
 30
0.0
 11
31.0
 21
0.0
 31
0.0
  0
LINE
  5
245
330
238
100
AcDbEntity
  8
SLD-0_0
  6
Continuous
 62
   179
370
    25
100
AcDbLine
 10
31.0
 20
0.0
 30
0.0
 11
31.0
 21
5.0
 31
0.0
  0
LINE
  5
246
330
238
100
AcDbEntity
  8
SLD-0_0
  6
Continuous
 62
   179
370
    25
100
AcDbLine
 10
31.0
 20
5.0
 30
0.0
 11
26.0
 21
5.0
 31
0.0
  0
LINE
  5
247
330
238
100
AcDbEntity
  8
SLD-0_0
  6
Continuous
 62
   179
370
    25
100
AcDbLine
 10
26.0
 20
5.0
 30
0.0
 11
26.0
 21
10.0
 31
0.0
  0
LINE
  5
248
330
238
100
AcDbEntity
  8
SLD-0_0
  6
Continuous
 62
   179
370
    25
100
AcDbLine
 10
26.0
 20
10.0
 30
0.0
 11
56.0
 21
10.0
 31
0.0
  0
LINE
  5
249
330
238
100
AcDbEntity
  8
SLD-0_0
  6
Continuous
 62
   179
370
    25
100
AcDbLine
 10
56.0
 20
10.0
 30
0.0
 11
56.0
 21
5.0
 31
0.0
  0
LINE
  5
24A
330
238
100
AcDbEntity
  8
SLD-0_0
  6
Continuous
 62
   179
370
    25
100
AcDbLine
 10
56.0
 20
5.0
 30
0.0
 11
51.0
 21
5.0
 31
0.0
  0
LINE
  5
24B
330
238
100
AcDbEntity
  8
SLD-0_0
  6
Continuous
 62
   179
370
    25
100
AcDbLine
 10
51.0
 20
5.0
 30
0.0
 11
51.0
 21
0.0
 31
0.0
  0
LINE
  5
24C
330
238
100
AcDbEntity
  8
SLD-0_0
  6
Continuous
 62
   179
370
    25
100
AcDbLine
 10
51.0
 20
0.0
 30
0.0
 11
76.0
 21
0.0
 31
0.0
  0
LINE
  5
24D
330
238
100
AcDbEntity
  8
SLD-0_0
  6
Continuous
 62
   179
370
    25
100
AcDbLine
 10
76.0
 20
0.0
 30
0.0
 11
76.0
 21
5.0
 31
0.0
  0
LINE
  5
24E
330
238
100
AcDbEntity
  8
SLD-0_0
  6
Continuous
 62
   179
370
    25
100
AcDbLine
 10
76.0
 20
5.0
 30
0.0
 11
71.0
 21
5.0
 31
0.0
  0
LINE
  5
24F
330
238
100
AcDbEntity
  8
SLD-0_0
  6
Continuous
 62
   179
370
    25
100
AcDbLine
 10
71.0
 20
5.0
 30
0.0
 11
71.0
 21
10.0
 31
0.0
  0
LINE
  5
250
330
238
100
AcDbEntity
  8
SLD-0_0
  6
Continuous
 62
   179
370
    25
100
AcDbLine
 10
71.0
 20
10.0
 30
0.0
 11
86.0
 21
10.0
 31
0.0
  0
LINE
  5
251
330
238
100
AcDbEntity
  8
SLD-0_0
  6
Continuous
 62
   179
370
    25
100
AcDbLine
 10
86.0
 20
10.0
 30
0.0
 11
86.0
 21
40.0
 31
0.0
  0
LINE
  5
252
330
238
100
AcDbEntity
  8
SLD-0_0
  6
Continuous
 62
   179
370
    25
100
AcDbLine
 10
86.0
 20
40.0
 30
0.0
 11
71.0
 21
40.0
 31
0.0
  0
LINE
  5
253
330
238
100
AcDbEntity
  8
SLD-0_0
  6
Continuous
 62
   179
370
    25
100
AcDbLine
 10
71.0
 20
40.0
 30
0.0
 11
71.0
 21
45.0
 31
0.0
  0
LINE
  5
254
330
238
100
AcDbEntity
  8
SLD-0_0
  6
Continuous
 62
   179
370
    25
100
AcDbLine
 10
71.0
 20
45.0
 30
0.0
 11
76.0
 21
45.0
 31
0.0
  0
LINE
  5
255
330
238
100
AcDbEntity
  8
SLD-0_0
  6
Continuous
 62
   179
370
    25
100
AcDbLine
 10
76.0
 20
45.0
 30
0.0
 11
76.0
 21
50.0
 31
0.0
  0
LINE
  5
256
330
238
100
AcDbEntity
  8
SLD-0_0
  6
Continuous
 62
   179
370
    25
100
AcDbLine
 10
76.0
 20
50.0
 30
0.0
 11
51.0
 21
50.0
 31
0.0
  0
LINE
  5
257
330
238
100
AcDbEntity
  8
SLD-0_0
  6
Continuous
 62
   179
370
    25
100
AcDbLine
 10
51.0
 20
50.0
 30
0.0
 11
51.0
 21
45.0
 31
0.0
  0
LINE
  5
258
330
238
100
AcDbEntity
  8
SLD-0_0
  6
Continuous
 62
   179
370
    25
100
AcDbLine
 10
51.0
 20
45.0
 30
0.0
 11
56.0
 21
45.0
 31
0.0
  0
LINE
  5
259
330
238
100
AcDbEntity
  8
SLD-0_0
  6
Continuous
 62
   179
370
    25
100
AcDbLine
 10
56.0
 20
45.0
 30
0.0
 11
56.0
 21
40.0
 31
0.0
  0
LINE
  5
25A
330
238
100
AcDbEntity
  8
SLD-0_0
  6
Continuous
 62
   179
370
    25
100
AcDbLine
 10
56.0
 20
40.0
 30
0.0
 11
26.0
 21
40.0
 31
0.0
  0
LINE
  5
25B
330
238
100
AcDbEntity
  8
SLD-0_0
  6
Continuous
 62
   179
370
    25
100
AcDbLine
 10
26.0
 20
40.0
 30
0.0
 11
26.0
 21
45.0
 31
0.0
  0
LINE
  5
25C
330
238
100
AcDbEntity
  8
SLD-0_0
  6
Continuous
 62
   179
370
    25
100
AcDbLine
 10
26.0
 20
45.0
 30
0.0
 11
31.0
 21
45.0
 31
0.0
  0
LINE
  5
25D
330
238
100
AcDbEntity
  8
SLD-0_0
  6
Continuous
 62
   179
370
    25
100
AcDbLine
 10
31.0
 20
45.0
 30
0.0
 11
31.0
 21
50.0
 31
0.0
  0
LINE
  5
25E
330
238
100
AcDbEntity
  8
SLD-0_0
  6
Continuous
 62
   179
370
    25
100
AcDbLine
 10
31.0
 20
50.0
 30
0.0
 11
6.0
 21
50.0
 31
0.0
  0
LINE
  5
25F
330
238
100
AcDbEntity
  8
SLD-0_0
  6
Continuous
 62
   179
370
    25
100
AcDbLine
 10
6.0
 20
50.0
 30
0.0
 11
6.0
 21
45.0
 31
0.0
  0
LINE
  5
260
330
238
100
AcDbEntity
  8
SLD-0_0
  6
Continuous
 62
   179
370
    25
100
AcDbLine
 10
6.0
 20
45.0
 30
0.0
 11
11.0
 21
45.0
 31
0.0
  0
LINE
  5
261
330
238
100
AcDbEntity
  8
SLD-0_0
  6
Continuous
 62
   179
370
    25
100
AcDbLine
 10
11.0
 20
45.0
 30
0.0
 11
11.0
 21
40.0
 31
0.0
  0
LINE
  5
262
330
238
100
AcDbEntity
  8
SLD-0_0
  6
Continuous
 62
   179
370
    25
100
AcDbLine
 10
11.0
 20
40.0
 30
0.0
 11
0.0
 21
40.0
 31
0.0
  0
ENDBLK
  5
23A
330
238
100
AcDbEntity
  8
0
100
AcDbBlockEnd
  0
BLOCK
  5
264
330
263
100
AcDbEntity
  8
0
100
AcDbBlockBegin
  2
TOP_SMALL
 70
     0
 10
0.0
 20
0.0
 30
0.0
  3
TOP_SMALL
  1

  0
CIRCLE
  5
266
330
263
100
AcDbEntity
  8
SLD-0_0
  6
Continuous
 62
   179
370
    25
100
AcDbCircle
 10
73.8
 20
50.0
 30
0.0
 40
35.00000000000003
  0
CIRCLE
  5
267
330
263
100
AcDbEntity
  8
SLD-0_0
  6
Continuous
 62
   179
370
    25
100
AcDbCircle
 10
38.3
 20
85.5
 30
0.0
 40
2.000000000000014
  0
CIRCLE
  5
268
330
263
100
AcDbEntity
  8
SLD-0_0
  6
Continuous
 62
   179
370
    25
100
AcDbCircle
 10
109.3
 20
85.5
 30
0.0
 40
2.0
  0
CIRCLE
  5
269
330
263
100
AcDbEntity
  8
SLD-0_0
  6
Continuous
 62
   179
370
    25
100
AcDbCircle
 10
109.3
 20
14.5
 30
0.0
 40
2.000000000000014
  0
CIRCLE
  5
26A
330
263
100
AcDbEntity
  8
SLD-0_0
  6
Continuous
 62
   179
370
    25
100
AcDbCircle
 10
38.3
 20
14.5
 30
0.0
 40
2.000000000000014
  0
LINE
  5
26B
330
263
100
AcDbEntity
  8
SLD-0_0
  6
Continuous
 62
   179
370
    25
100
AcDbLine
 10
128.8
 20
30.0
 30
0.0
 11
128.8
 21
15.0
 31
0.0
  0
LINE
  5
26C
330
263
100
AcDbEntity
  8
SLD-0_0
  6
Continuous
 62
   179
370
    25
100
AcDbLine
 10
128.8
 20
15.0
 30
0.0
 11
123.8
 21
15.0
 31
0.0
  0
LINE
  5
26D
330
263
100
AcDbEntity
  8
SLD-0_0
  6
Continuous
 62
   179
370
    25
100
AcDbLine
 10
123.8
 20
15.0
 30
0.0
 11
123.8
 21
10.0
 31
0.0
  0
LINE
  5
26E
330
263
100
AcDbEntity
  8
SLD-0_0
  6
Continuous
 62
   179
370
    25
100
AcDbLine
 10
123.8
 20
10.0
 30
0.0
 11
118.8
 21
10.0
 31
0.0
  0
LINE
  5
26F
330
263
100
AcDbEntity
  8
SLD-0_0
  6
Continuous
 62
   179
370
    25
100
AcDbLine
 10
118.8
 20
10.0
 30
0.0
 11
118.8
 21
25.0
 31
0.0
  0
LINE
  5
270
330
263
100
AcDbEntity
  8
SLD-0_0
  6
Continuous
 62
   179
370
    25
100
AcDbLine
 10
118.8
 20
25.0
 30
0.0
 11
113.8
 21
25.0
 31
0.0
  0
LINE
  5
271
330
263
100
AcDbEntity
  8
SLD-0_0
  6
Continuous
 62
   179
370
    25
100
AcDbLine
 10
113.8
 20
25.0
 30
0.0
 11
113.8
 21
40.0
 31
0.0
  0
LINE
  5
272
330
263
100
AcDbEntity
  8
SLD-0_0
  6
Continuous
 62
   179
370
    25
100
AcDbLine
 10
113.8
 20
40.0
 30
0.0
 11
118.8
 21
40.0
 31
0.0
  0
LINE
  5
273
330
263
100
AcDbEntity
  8
SLD-0_0
  6
Continuous
 62
   179
370
    25
100
AcDbLine
 10
118.8
 20
40.0
 30
0.0
 11
118.8
 21
35.0
 31
0.0
  0
LINE
  5
274
330
263
100
AcDbEntity
  8
SLD-0_0
  6
Continuous
 62
   179
370
    25
100
AcDbLine
 10
118.8
 20
35.0
 30
0.0
 11
123.8
 21
35.0
 31
0.0
  0
LINE
  5
275
330
263
100
AcDbEntity
  8
SLD-0_0
  6
Continuous
 62
   179
370
    25
100
AcDbLine
 10
123.8
 20
35.0
 30
0.0
 11
123.8
 21
30.0
 31
0.0
  0
LINE
  5
276
330
263
100
AcDbEntity
  8
SLD-0_0
  6
Continuous
 62
   179
370
    25
100
AcDbLine
 10
123.8
 20
30.0
 30
0.0
 11
128.8
 21
30.0
 31
0.0
  0
LINE
  5
277
330
263
100
AcDbEntity
  8
SLD-0_0
  6
Continuous
 62
   179
370
    25
100
AcDbLine
 10
33.8
 20
75.0
 30
0.0
 11
33.8
 21
60.0
 31
0.0
  0
LINE
  5
278
330
263
100
AcDbEntity
  8
SLD-0_0
  6
Continuous
 62
   179
370
    25
100
AcDbLine
 10
33.8
 20
60.0
 30
0.0
 11
28.8
 21
60.0
 31
0.0
  0
LINE
  5
279
330
263
100
AcDbEntity
  8
SLD-0_0
  6
Continuous
 62
   179
370
    25
100
AcDbLine
 10
28.8
 20
60.0
 30
0.0
 11
28.8
 21
55.0
 31
0.0
  0
LINE
  5
27A
330
263
100
AcDbEntity
  8
SLD-0_0
  6
Continuous
 62
   179
370
    25
100
AcDbLine
 10
28.8
 20
55.0
 30
0.0
 11
23.8
 21
55.0
 31
0.0
  0
LINE
  5
27B
330
263
100
AcDbEntity
  8
SLD-0_0
  6
Continuous
 62
   179
370
    25
100
AcDbLine
 10
23.8
 20
55.0
 30
0.0
 11
23.8
 21
60.0
 31
0.0
  0
LINE
  5
27C
330
263
100
AcDbEntity
  8
SLD-0_0
  6
Continuous
 62
   179
370
    25
100
AcDbLine
 10
23.8
 20
60.0
 30
0.0
 11
18.8
 21
60.0
 31
0.0
  0
LINE
  5
27D
330
263
100
AcDbEntity
  8
SLD-0_0
  6
Continuous
 62
   179
370
    25
100
AcDbLine
 10
18.8
 20
60.0
 30
0.0
 11
18.8
 21
75.0
 31
0.0
  0
LINE
  5
27E
330
263
100
AcDbEntity
  8
SLD-0_0
  6
Continuous
 62
   179
370
    25
100
AcDbLine
 10
18.8
 20
75.0
 30
0.0
 11
23.8
 21
75.0
 31
0.0
  0
LINE
  5
27F
330
263
100
AcDbEntity
  8
SLD-0_0
  6
Continuous
 62
   179
370
    25
100
AcDbLine
 10
23.8
 20
75.0
 30
0.0
 11
23.8
 21
80.0
 31
0.0
  0
LINE
  5
280
330
263
100
AcDbEntity
  8
SLD-0_0
  6
Continuous
 62
   179
370
    25
100
AcDbLine
 10
23.8
 20
80.0
 30
0.0
 11
28.8
 21
80.0
 31
0.0
  0
LINE
  5
281
330
263
100
AcDbEntity
  8
SLD-0_0
  6
Continuous
 62
   179
370
    25
100
AcDbLine
 10
28.8
 20
80.0
 30
0.0
 11
28.8
 21
75.0
 31
0.0
  0
LINE
  5
282
330
263
100
AcDbEntity
  8
SLD-0_0
  6
Continuous
 62
   179
370
    25
100
AcDbLine
 10
28.8
 20
75.0
 30
0.0
 11
33.8
 21
75.0
 31
0.0
  0
LINE
  5
283
330
263
100
AcDbEntity
  8
SLD-0_0
  6
Continuous
 62
   179
370
    25
100
AcDbLine
 10
0.0
 20
90.0
 30
0.0
 11
147.6
 21
90.0
 31
0.0
  0
LINE
  5
284
330
263
100
AcDbEntity
  8
SLD-0_0
  6
Continuous
 62
   179
370
    25
100
AcDbLine
 10
0.0
 20
0.0
 30
0.0
 11
0.0
 21
90.0
 31
0.0
  0
LINE
  5
285
330
263
100
AcDbEntity
  8
SLD-0_0
  6
Continuous
 62
   179
370
    25
100
AcDbLine
 10
147.6
 20
0.0
 30
0.0
 11
0.0
 21
0.0
 31
0.0
  0
LINE
  5
286
330
263
100
AcDbEntity
  8
SLD-0_0
  6
Continuous
 62
   179
370
    25
100
AcDbLine
 10
147.6
 20
90.0
 30
0.0
 11
147.6
 21
0.0
 31
0.0
  0
LINE
  5
287
330
263
100
AcDbEntity
  8
SLD-0_0
  6
Continuous
 62
   179
370
    25
100
AcDbLine
 10
128.8
 20
75.0
 30
0.0
 11
128.8
 21
60.0
 31
0.0
  0
LINE
  5
288
330
263
100
AcDbEntity
  8
SLD-0_0
  6
Continuous
 62
   179
370
    25
100
AcDbLine
 10
128.8
 20
60.0
 30
0.0
 11
123.8
 21
60.0
 31
0.0
  0
LINE
  5
289
330
263
100
AcDbEntity
  8
SLD-0_0
  6
Continuous
 62
   179
370
    25
100
AcDbLine
 10
123.8
 20
60.0
 30
0.0
 11
123.8
 21
55.0
 31
0.0
  0
LINE
  5
28A
330
263
100
AcDbEntity
  8
SLD-0_0
  6
Continuous
 62
   179
370
    25
100
AcDbLine
 10
123.8
 20
55.0
 30
0.0
 11
118.8
 21
55.0
 31
0.0
  0
LINE
  5
28B
330
263
100
AcDbEntity
  8
SLD-0_0
  6
Continuous
 62
   179
370
    25
100
AcDbLine
 10
118.8
 20
55.0
 30
0.0
 11
118.8
 21
60.0
 31
0.0
  0
LINE
  5
28C
330
263
100
AcDbEntity
  8
SLD-0_0
  6
Continuous
 62
   179
370
    25
100
AcDbLine
 10
118.8
 20
60.0
 30
0.0
 11
113.8
 21
60.0
 31
0.0
  0
LINE
  5
28D
330
263
100
AcDbEntity
  8
SLD-0_0
  6
Continuous
 62
   179
370
    25
100
AcDbLine
 10
113.8
 20
60.0
 30
0.0
 11
113.8
 21
75.0
 31
0.0
  0
LINE
  5
28E
330
263
100
AcDbEntity
  8
SLD-0_0
  6
Continuous
 62
   179
370
    25
100
AcDbLine
 10
113.8
 20
75.0
 30
0.0
 11
118.8
 21
75.0
 31
0.0
  0
LINE
  5
28F
330
263
100
AcDbEntity
  8
SLD-0_0
  6
Continuous
 62
   179
370
    25
100
AcDbLine
 10
118.8
 20
75.0
 30
0.0
 11
118.8
 21
80.0
 31
0.0
  0
LINE
  5
290
330
263
100
AcDbEntity
  8
SLD-0_0
  6
Continuous
 62
   179
370
    25
100
AcDbLine
 10
118.8
 20
80.0
 30
0.0
 11
123.8
 21
80.0
 31
0.0
  0
LINE
  5
291
330
263
100
AcDbEntity
  8
SLD-0_0
  6
Continuous
 62
   179
370
    25
100
AcDbLine
 10
123.8
 20
80.0
 30
0.0
 11
123.8
 21
75.0
 31
0.0
  0
LINE
  5
292
330
263
100
AcDbEntity
  8
SLD-0_0
  6
Continuous
 62
   179
370
    25
100
AcDbLine
 10
123.8
 20
75.0
 30
0.0
 11
128.8
 21
75.0
 31
0.0
  0
LINE
  5
293
330
263
100
AcDbEntity
  8
SLD-0_0
  6
Continuous
 62
   179
370
    25
100
AcDbLine
 10
33.8
 20
40.0
 30
0.0
 11
33.8
 21
25.0
 31
0.0
  0
LINE
  5
294
330
263
100
AcDbEntity
  8
SLD-0_0
  6
Continuous
 62
   179
370
    25
100
AcDbLine
 10
33.8
 20
25.0
 30
0.0
 11
28.8
 21
25.0
 31
0.0
  0
LINE
  5
295
330
263
100
AcDbEntity
  8
SLD-0_0
  6
Continuous
 62
   179
370
    25
100
AcDbLine
 10
28.8
 20
25.0
 30
0.0
 11
28.8
 21
10.0
 31
0.0
  0
LINE
  5
296
330
263
100
AcDbEntity
  8
SLD-0_0
  6
Continuous
 62
   179
370
    25
100
AcDbLine
 10
28.8
 20
10.0
 30
0.0
 11
23.8
 21
10.0
 31
0.0
  0
LINE
  5
297
330
263
100
AcDbEntity
  8
SLD-0_0
  6
Continuous
 62
   179
370
    25
100
AcDbLine
 10
23.8
 20
10.0
 30
0.0
 11
23.8
 21
15.0
 31
0.0
  0
LINE
  5
298
330
263
100
AcDbEntity
  8
SLD-0_0
  6
Continuous
 62
   179
370
    25
100
AcDbLine
 10
23.8
 20
15.0
 30
0.0
 11
18.8
 21
15.0
 31
0.0
  0
LINE
  5
299
330
263
100
AcDbEntity
  8
SLD-0_0
  6
Continuous
 62
   179
370
    25
100
AcDbLine
 10
18.8
 20
15.0
 30
0.0
 11
18.8
 21
30.0
 31
0.0
  0
LINE
  5
29A
330
263
100
AcDbEntity
  8
SLD-0_0
  6
Continuous
 62
   179
370
    25
100
AcDbLine
 10
18.8
 20
30.0
 30
0.0
 11
23.8
 21
30.0
 31
0.0
  0
LINE
  5
29B
330
263
100
AcDbEntity
  8
SLD-0_0
  6
Continuous
 62
   179
370
    25
100
AcDbLine
 10
23.8
 20
30.0
 30
0.0
 11
23.8
 21
35.0
 31
0.0
  0
LINE
  5
29C
330
263
100
AcDbEntity
  8
SLD-0_0
  6
Continuous
 62
   179
370
    25
100
AcDbLine
 10
23.8
 20
35.0
 30
0.0
 11
28.8
 21
35.0
 31
0.0
  0
LINE
  5
29D
330
263
100
AcDbEntity
  8
SLD-0_0
  6
Continuous
 62
   179
370
    25
100
AcDbLine
 10
28.8
 20
35.0
 30
0.0
 11
28.8
 21
40.0
 31
0.0
  0
LINE
  5
29E
330
263
100
AcDbEntity
  8
SLD-0_0
  6
Continuous
 62
   179
370
    25
100
AcDbLine
 10
28.8
 20
40.0
 30
0.0
 11
33.8
 21
40.0
 31
0.0
  0
ENDBLK
  5
265
330
263
100
AcDbEntity
  8
0
100
AcDbBlockEnd
  0
BLOCK
  5
2A0
330
29F
100
AcDbEntity
  8
0
100
AcDbBlockBegin
  2
WALL_SMALL
 70
     0
 10
0.0
 20
0.0
 30
0.0
  3
WALL_SMALL
  1

  0
LINE
  5
2A2
330
29F
100
AcDbEntity
  8
SLD-0_0
  6
Continuous
 62
   179
370
    25
100
AcDbLine
 10
50.0
 20
23.0
 30
0.0
 11
50.0
 21
30.0
 31
0.0
  0
LINE
  5
2A3
330
29F
100
AcDbEntity
  8
SLD-0_0
  6
Continuous
 62
   179
370
    25
100
AcDbLine
 10
50.0
 20
30.0
 30
0.0
 11
35.0
 21
30.0
 31
0.0
  0
LINE
  5
2A4
330
29F
100
AcDbEntity
  8
SLD-0_0
  6
Continuous
 62
   179
370
    25
100
AcDbLine
 10
35.0
 20
30.0
 30
0.0
 11
35.0
 21
35.0
 31
0.0
  0
LINE
  5
2A5
330
29F
100
AcDbEntity
  8
SLD-0_0
  6
Continuous
 62
   179
370
    25
100
AcDbLine
 10
35.0
 20
35.0
 30
0.0
 11
20.0
 21
35.0
 31
0.0
  0
LINE
  5
2A6
330
29F
100
AcDbEntity
  8
SLD-0_0
  6
Continuous
 62
   179
370
    25
100
AcDbLine
 10
20.0
 20
35.0
 30
0.0
 11
20.0
 21
30.0
 31
0.0
  0
LINE
  5
2A7
330
29F
100
AcDbEntity
  8
SLD-0_0
  6
Continuous
 62
   179
370
    25
100
AcDbLine
 10
20.0
 20
30.0
 30
0.0
 11
5.0
 21
30.0
 31
0.0
  0
LINE
  5
2A8
330
29F
100
AcDbEntity
  8
SLD-0_0
  6
Continuous
 62
   179
370
    25
100
AcDbLine
 10
5.0
 20
30.0
 30
0.0
 11
5.0
 21
23.0
 31
0.0
  0
LINE
  5
2A9
330
29F
100
AcDbEntity
  8
SLD-0_0
  6
Continuous
 62
   179
370
    25
100
AcDbLine
 10
5.0
 20
23.0
 30
0.0
 11
0.0
 21
23.0
 31
0.0
  0
LINE
  5
2AA
330
29F
100
AcDbEntity
  8
SLD-0_0
  6
Continuous
 62
   179
370
    25
100
AcDbLine
 10
0.0
 20
23.0
 30
0.0
 11
0.0
 21
12.0
 31
0.0
  0
LINE
  5
2AB
330
29F
100
AcDbEntity
  8
SLD-0_0
  6
Continuous
 62
   179
370
    25
100
AcDbLine
 10
0.0
 20
12.0
 30
0.0
 11
5.0
 21
12.0
 31
0.0
  0
LINE
  5
2AC
330
29F
100
AcDbEntity
  8
SLD-0_0
  6
Continuous
 62
   179
370
    25
100
AcDbLine
 10
5.0
 20
12.0
 30
0.0
 11
5.0
 21
5.0
 31
0.0
  0
LINE
  5
2AD
330
29F
100
AcDbEntity
  8
SLD-0_0
  6
Continuous
 62
   179
370
    25
100
AcDbLine
 10
5.0
 20
5.0
 30
0.0
 11
20.0
 21
5.0
 31
0.0
  0
LINE
  5
2AE
330
29F
100
AcDbEntity
  8
SLD-0_0
  6
Continuous
 62
   179
370
    25
100
AcDbLine
 10
20.0
 20
5.0
 30
0.0
 11
20.0
 21
0.0
 31
0.0
  0
LINE
  5
2AF
330
29F
100
AcDbEntity
  8
SLD-0_0
  6
Continuous
 62
   179
370
    25
100
AcDbLine
 10
20.0
 20
0.0
 30
0.0
 11
35.0
 21
0.0
 31
0.0
  0
LINE
  5
2B0
330
29F
100
AcDbEntity
  8
SLD-0_0
  6
Continuous
 62
   179
370
    25
100
AcDbLine
 10
35.0
 20
0.0
 30
0.0
 11
35.0
 21
5.0
 31
0.0
  0
LINE
  5
2B1
330
29F
100
AcDbEntity
  8
SLD-0_0
  6
Continuous
 62
   179
370
    25
100
AcDbLine
 10
35.0
 20
5.0
 30
0.0
 11
50.0
 21
5.0
 31
0.0
  0
LINE
  5
2B2
330
29F
100
AcDbEntity
  8
SLD-0_0
  6
Continuous
 62
   179
370
    25
100
AcDbLine
 10
50.0
 20
5.0
 30
0.0
 11
50.0
 21
12.0
 31
0.0
  0
LINE
  5
2B3
330
29F
100
AcDbEntity
  8
SLD-0_0
  6
Continuous
 62
   179
370
    25
100
AcDbLine
 10
50.0
 20
12.0
 30
0.0
 11
55.0
 21
12.0
 31
0.0
  0
LINE
  5
2B4
330
29F
100
AcDbEntity
  8
SLD-0_0
  6
Continuous
 62
   179
370
    25
100
AcDbLine
 10
55.0
 20
12.0
 30
0.0
 11
55.0
 21
23.0
 31
0.0
  0
LINE
  5
2B5
330
29F
100
AcDbEntity
  8
SLD-0_0
  6
Continuous
 62
   179
370
    25
100
AcDbLine
 10
55.0
 20
23.0
 30
0.0
 11
50.0
 21
23.0
 31
0.0
  0
LINE
  5
2B6
330
29F
100
AcDbEntity
  8
SLD-0_0
  6
Continuous
 62
   179
370
    25
100
AcDbLine
 10
42.5
 20
12.5
 30
0.0
 11
42.5
 21
22.5
 31
0.0
  0
LINE
  5
2B7
330
29F
100
AcDbEntity
  8
SLD-0_0
  6
Continuous
 62
   179
370
    25
100
AcDbLine
 10
12.5
 20
12.5
 30
0.0
 11
42.5
 21
12.5
 31
0.0
  0
LINE
  5
2B8
330
29F
100
AcDbEntity
  8
SLD-0_0
  6
Continuous
 62
   179
370
    25
100
AcDbLine
 10
12.5
 20
22.5
 30
0.0
 11
12.5
 21
12.5
 31
0.0
  0
LINE
  5
2B9
330
29F
100
AcDbEntity
  8
SLD-0_0
  6
Continuous
 62
   179
370
    25
100
AcDbLine
 10
42.5
 20
22.5
 30
0.0
 11
12.5
 21
22.5
 31
0.0
  0
ENDBLK
  5
2A1
330
29F
100
AcDbEntity
  8
0
100
AcDbBlockEnd
  0
BLOCK
  5
2BB
330
2BA
100
AcDbEntity
  8
0
100
AcDbBlockBegin
  2
WALL_BIG
 70
     0
 10
0.0
 20
0.0
 30
0.0
  3
WALL_BIG
  1

  0
LINE
  5
2BD
330
2BA
100
AcDbEntity
  8
SLD-0_0
  6
Continuous
 62
   179
370
    25
100
AcDbLine
 10
95.0
 20
23.0
 30
0.0
 11
95.0
 21
30.0
 31
0.0
  0
LINE
  5
2BE
330
2BA
100
AcDbEntity
  8
SLD-0_0
  6
Continuous
 62
   179
370
    25
100
AcDbLine
 10
95.0
 20
30.0
 30
0.0
 11
80.0
 21
30.0
 31
0.0
  0
LINE
  5
2BF
330
2BA
100
AcDbEntity
  8
SLD-0_0
  6
Continuous
 62
   179
370
    25
100
AcDbLine
 10
80.0
 20
30.0
 30
0.0
 11
80.0
 21
35.0
 31
0.0
  0
LINE
  5
2C0
330
2BA
100
AcDbEntity
  8
SLD-0_0
  6
Continuous
 62
   179
370
    25
100
AcDbLine
 10
80.0
 20
35.0
 30
0.0
 11
60.0
 21
35.0
 31
0.0
  0
LINE
  5
2C1
330
2BA
100
AcDbEntity
  8
SLD-0_0
  6
Continuous
 62
   179
370
    25
100
AcDbLine
 10
60.0
 20
35.0
 30
0.0
 11
60.0
 21
30.0
 31
0.0
  0
LINE
  5
2C2
330
2BA
100
AcDbEntity
  8
SLD-0_0
  6
Continuous
 62
   179
370
    25
100
AcDbLine
 10
60.0
 20
30.0
 30
0.0
 11
35.0
 21
30.0
 31
0.0
  0
LINE
  5
2C3
330
2BA
100
AcDbEntity
  8
SLD-0_0
  6
Continuous
 62
   179
370
    25
100
AcDbLine
 10
35.0
 20
30.0
 30
0.0
 11
35.0
 21
35.0
 31
0.0
  0
LINE
  5
2C4
330
2BA
100
AcDbEntity
  8
SLD-0_0
  6
Continuous
 62
   179
370
    25
100
AcDbLine
 10
35.0
 20
35.0
 30
0.0
 11
15.0
 21
35.0
 31
0.0
  0
LINE
  5
2C5
330
2BA
100
AcDbEntity
  8
SLD-0_0
  6
Continuous
 62
   179
370
    25
100
AcDbLine
 10
15.0
 20
35.0
 30
0.0
 11
15.0
 21
30.0
 31
0.0
  0
LINE
  5
2C6
330
2BA
100
AcDbEntity
  8
SLD-0_0
  6
Continuous
 62
   179
370
    25
100
AcDbLine
 10
15.0
 20
30.0
 30
0.0
 11
0.0
 21
30.0
 31
0.0
  0
LINE
  5
2C7
330
2BA
100
AcDbEntity
  8
SLD-0_0
  6
Continuous
 62
   179
370
    25
100
AcDbLine
 10
0.0
 20
30.0
 30
0.0
 11
0.0
 21
23.0
 31
0.0
  0
LINE
  5
2C8
330
2BA
100
AcDbEntity
  8
SLD-0_0
  6
Continuous
 62
   179
370
    25
100
AcDbLine
 10
0.0
 20
23.0
 30
0.0
 11
5.0
 21
23.0
 31
0.0
  0
LINE
  5
2C9
330
2BA
100
AcDbEntity
  8
SLD-0_0
  6
Continuous
 62
   179
370
    25
100
AcDbLine
 10
5.0
 20
23.0
 30
0.0
 11
5.0
 21
12.0
 31
0.0
  0
LINE
  5
2CA
330
2BA
100
AcDbEntity
  8
SLD-0_0
  6
Continuous
 62
   179
370
    25
100
AcDbLine
 10
5.0
 20
12.0
 30
0.0
 11
0.0
 21
12.0
 31
0.0
  0
LINE
  5
2CB
330
2BA
100
AcDbEntity
  8
SLD-0_0
  6
Continuous
 62
   179
370
    25
100
AcDbLine
 10
0.0
 20
12.0
 30
0.0
 11
0.0
 21
5.0
 31
0.0
  0
LINE
  5
2CC
330
2BA
100
AcDbEntity
  8
SLD-0_0
  6
Continuous
 62
   179
370
    25
100
AcDbLine
 10
0.0
 20
5.0
 30
0.0
 11
15.0
 21
5.0
 31
0.0
  0
LINE
  5
2CD
330
2BA
100
AcDbEntity
  8
SLD-0_0
  6
Continuous
 62
   179
370
    25
100
AcDbLine
 10
15.0
 20
5.0
 30
0.0
 11
15.0
 21
0.0
 31
0.0
  0
LINE
  5
2CE
330
2BA
100
AcDbEntity
  8
SLD-0_0
  6
Continuous
 62
   179
370
    25
100
AcDbLine
 10
15.0
 20
0.0
 30
0.0
 11
35.0
 21
0.0
 31
0.0
  0
LINE
  5
2CF
330
2BA
100
AcDbEntity
  8
SLD-0_0
  6
Continuous
 62
   179
370
    25
100
AcDbLine
 10
35.0
 20
0.0
 30
0.0
 11
35.0
 21
5.0
 31
0.0
  0
LINE
  5
2D0
330
2BA
100
AcDbEntity
  8
SLD-0_0
  6
Continuous
 62
   179
370
    25
100
AcDbLine
 10
35.0
 20
5.0
 30
0.0
 11
60.0
 21
5.0
 31
0.0
  0
LINE
  5
2D1
330
2BA
100
AcDbEntity
  8
SLD-0_0
  6
Continuous
 62
   179
370
    25
100
AcDbLine
 10
60.0
 20
5.0
 30
0.0
 11
60.0
 21
0.0
 31
0.0
  0
LINE
  5
2D2
330
2BA
100
AcDbEntity
  8
SLD-0_0
  6
Continuous
 62
   179
370
    25
100
AcDbLine
 10
60.0
 20
0.0
 30
0.0
 11
80.0
 21
0.0
 31
0.0
  0
LINE
  5
2D3
330
2BA
100
AcDbEntity
  8
SLD-0_0
  6
Continuous
 62
   179
370
    25
100
AcDbLine
 10
80.0
 20
0.0
 30
0.0
 11
80.0
 21
5.0
 31
0.0
  0
LINE
  5
2D4
330
2BA
100
AcDbEntity
  8
SLD-0_0
  6
Continuous
 62
   179
370
    25
100
AcDbLine
 10
80.0
 20
5.0
 30
0.0
 11
95.0
 21
5.0
 31
0.0
  0
LINE
  5
2D5
330
2BA
100
AcDbEntity
  8
SLD-0_0
  6
Continuous
 62
   179
370
    25
100
AcDbLine
 10
95.0
 20
5.0
 30
0.0
 11
95.0
 21
12.0
 31
0.0
  0
LINE
  5
2D6
330
2BA
100
AcDbEntity
  8
SLD-0_0
  6
Continuous
 62
   179
370
    25
100
AcDbLine
 10
95.0
 20
12.0
 30
0.0
 11
90.0
 21
12.0
 31
0.0
  0
LINE
  5
2D7
330
2BA
100
AcDbEntity
  8
SLD-0_0
  6
Continuous
 62
   179
370
    25
100
AcDbLine
 10
90.0
 20
12.0
 30
0.0
 11
90.0
 21
23.0
 31
0.0
  0
LINE
  5
2D8
330
2BA
100
AcDbEntity
  8
SLD-0_0
  6
Continuous
 62
   179
370
    25
100
AcDbLine
 10
90.0
 20
23.0
 30
0.0
 11
95.0
 21
23.0
 31
0.0
  0
LINE
  5
2D9
330
2BA
100
AcDbEntity
  8
SLD-0_0
  6
Continuous
 62
   179
370
    25
100
AcDbLine
 10
72.5
 20
12.5
 30
0.0
 11
72.5
 21
22.5
 31
0.0
  0
LINE
  5
2DA
330
2BA
100
AcDbEntity
  8
SLD-0_0
  6
Continuous
 62
   179
370
    25
100
AcDbLine
 10
22.5
 20
12.5
 30
0.0
 11
72.5
 21
12.5
 31
0.0
  0
LINE
  5
2DB
330
2BA
100
AcDbEntity
  8
SLD-0_0
  6
Continuous
 62
   179
370
    25
100
AcDbLine
 10
22.5
 20
22.5
 30
0.0
 11
22.5
 21
12.5
 31
0.0
  0
LINE
  5
2DC
330
2BA
100
AcDbEntity
  8
SLD-0_0
  6
Continuous
 62
   179
370
    25
100
AcDbLine
 10
72.5
 20
22.5
 30
0.0
 11
22.5
 21
22.5
 31
0.0
  0
ENDBLK
  5
2BC
330
2BA
100
AcDbEntity
  8
0
100
AcDbBlockEnd
  0
BLOCK
  5
2DE
330
2DD
100
AcDbEntity
  8
0
100
AcDbBlockBegin
  2
WALL_FRONT
 70
     0
 10
0.0
 20
0.0
 30
0.0
  3
WALL_FRONT
  1

  0
CIRCLE
  5
2E0
330
2DD
100
AcDbEntity
  8
SLD-0_0
  6
Continuous
 62
   179
370
    25
100
AcDbCircle
 10
37.0
 20
17.5
 30
0.0
 40
8.5
  0
CIRCLE
  5
2E1
330
2DD
100
AcDbEntity
  8
SLD-0_0
  6
Continuous
 62
   179
370
    25
100
AcDbCircle
 10
63.0
 20
17.5
 30
0.0
 40
8.500000000000014
  0
LINE
  5
2E2
330
2DD
100
AcDbEntity
  8
SLD-0_0
  6
Continuous
 62
   179
370
    25
100
AcDbLine
 10
100.0
 20
30.0
 30
0.0
 11
90.0
 21
30.0
 31
0.0
  0
LINE
  5
2E3
330
2DD
100
AcDbEntity
  8
SLD-0_0
  6
Continuous
 62
   179
370
    25
100
AcDbLine
 10
90.0
 20
30.0
 30
0.0
 11
90.0
 21
35.0
 31
0.0
  0
LINE
  5
2E4
330
2DD
100
AcDbEntity
  8
SLD-0_0
  6
Continuous
 62
   179
370
    25
100
AcDbLine
 10
90.0
 20
35.0
 30
0.0
 11
75.0
 21
35.0
 31
0.0
  0
LINE
  5
2E5
330
2DD
100
AcDbEntity
  8
SLD-0_0
  6
Continuous
 62
   179
370
    25
100
AcDbLine
 10
75.0
 20
35.0
 30
0.0
 11
75.0
 21
30.0
 31
0.0
  0
LINE
  5
2E6
330
2DD
100
AcDbEntity
  8
SLD-0_0
  6
Continuous
 62
   179
370
    25
100
AcDbLine
 10
75.0
 20
30.0
 30
0.0
 11
25.0
 21
30.0
 31
0.0
  0
LINE
  5
2E7
330
2DD
100
AcDbEntity
  8
SLD-0_0
  6
Continuous
 62
   179
370
    25
100
AcDbLine
 10
25.0
 20
30.0
 30
0.0
 11
25.0
 21
35.0
 31
0.0
  0
LINE
  5
2E8
330
2DD
100
AcDbEntity
  8
SLD-0_0
  6
Continuous
 62
   179
370
    25
100
AcDbLine
 10
25.0
 20
35.0
 30
0.0
 11
10.0
 21
35.0
 31
0.0
  0
LINE
  5
2E9
330
2DD
100
AcDbEntity
  8
SLD-0_0
  6
Continuous
 62
   179
370
    25
100
AcDbLine
 10
10.0
 20
35.0
 30
0.0
 11
10.0
 21
30.0
 31
0.0
  0
LINE
  5
2EA
330
2DD
100
AcDbEntity
  8
SLD-0_0
  6
Continuous
 62
   179
370
    25
100
AcDbLine
 10
10.0
 20
30.0
 30
0.0
 11
0.0
 21
30.0
 31
0.0
  0
LINE
  5
2EB
330
2DD
100
AcDbEntity
  8
SLD-0_0
  6
Continuous
 62
   179
370
    25
100
AcDbLine
 10
0.0
 20
30.0
 30
0.0
 11
0.0
 21
5.0
 31
0.0
  0
LINE
  5
2EC
330
2DD
100
AcDbEntity
  8
SLD-0_0
  6
Continuous
 62
   179
370
    25
100
AcDbLine
 10
0.0
 20
5.0
 30
0.0
 11
10.0
 21
5.0
 31
0.0
  0
LINE
  5
2ED
330
2DD
100
AcDbEntity
  8
SLD-0_0
  6
Continuous
 62
   179
370
    25
100
AcDbLine
 10
10.0
 20
5.0
 30
0.0
 11
10.0
 21
0.0
 31
0.0
  0
LINE
  5
2EE
330
2DD
100
AcDbEntity
  8
SLD-0_0
  6
Continuous
 62
   179
370
    25
100
AcDbLine
 10
10.0
 20
0.0
 30
0.0
 11
25.0
 21
0.0
 31
0.0
  0
LINE
  5
2EF
330
2DD
100
AcDbEntity
  8
SLD-0_0
  6
Continuous
 62
   179
370
    25
100
AcDbLine
 10
25.0
 20
0.0
 30
0.0
 11
25.0
 21
5.0
 31
0.0
  0
LINE
  5
2F0
330
2DD
100
AcDbEntity
  8
SLD-0_0
  6
Continuous
 62
   179
370
    25
100
AcDbLine
 10
25.0
 20
5.0
 30
0.0
 11
75.0
 21
5.0
 31
0.0
  0
LINE
  5
2F1
330
2DD
100
AcDbEntity
  8
SLD-0_0
  6
Continuous
 62
   179
370
    25
100
AcDbLine
 10
75.0
 20
5.0
 30
0.0
 11
75.0
 21
0.0
 31
0.0
  0
LINE
  5
2F2
330
2DD
100
AcDbEntity
  8
SLD-0_0
  6
Continuous
 62
   179
370
    25
100
AcDbLine
 10
75.0
 20
0.0
 30
0.0
 11
90.0
 21
0.0
 31
0.0
  0
LINE
  5
2F3
330
2DD
100
AcDbEntity
  8
SLD-0_0
  6
Continuous
 62
   179
370
    25
100
AcDbLine
 10
90.0
 20
0.0
 30
0.0
 11
90.0
 21
5.0
 31
0.0
  0
LINE
  5
2F4
330
2DD
100
AcDbEntity
  8
SLD-0_0
  6
Continuous
 62
   179
370
    25
100
AcDbLine
 10
90.0
 20
5.0
 30
0.0
 11
100.0
 21
5.0
 31
0.0
  0
LINE
  5
2F5
330
2DD
100
AcDbEntity
  8
SLD-0_0
  6
Continuous
 62
   179
370
    25
100
AcDbLine
 10
100.0
 20
5.0
 30
0.0
 11
100.0
 21
30.0
 31
0.0
  0
ENDBLK
  5
2DF
330
2DD
100
AcDbEntity
  8
0
100
AcDbBlockEnd
  0
BLOCK
  5
2F7
330
2F6
100
AcDbEntity
  8
0
100
AcDbBlockBegin
  2
WALL_MEDIUM
 70
     0
 10
0.0
 20
0.0
 30
0.0
  3
WALL_MEDIUM
  1

  0
LINE
  5
2F9
330
2F6
100
AcDbEntity
  8
SLD-0_0
  6
Continuous
 62
   179
370
    25
100
AcDbLine
 10
65.0
 20
23.0
 30
0.0
 11
65.0
 21
30.0
 31
0.0
  0
LINE
  5
2FA
330
2F6
100
AcDbEntity
  8
SLD-0_0
  6
Continuous
 62
   179
370
    25
100
AcDbLine
 10
65.0
 20
30.0
 30
0.0
 11
55.0
 21
30.0
 31
0.0
  0
LINE
  5
2FB
330
2F6
100
AcDbEntity
  8
SLD-0_0
  6
Continuous
 62
   179
370
    25
100
AcDbLine
 10
55.0
 20
30.0
 30
0.0
 11
55.0
 21
35.0
 31
0.0
  0
LINE
  5
2FC
330
2F6
100
AcDbEntity
  8
SLD-0_0
  6
Continuous
 62
   179
370
    25
100
AcDbLine
 10
55.0
 20
35.0
 30
0.0
 11
45.0
 21
35.0
 31
0.0
  0
LINE
  5
2FD
330
2F6
100
AcDbEntity
  8
SLD-0_0
  6
Continuous
 62
   179
370
    25
100
AcDbLine
 10
45.0
 20
35.0
 30
0.0
 11
45.0
 21
30.0
 31
0.0
  0
LINE
  5
2FE
330
2F6
100
AcDbEntity
  8
SLD-0_0
  6
Continuous
 62
   179
370
    25
100
AcDbLine
 10
45.0
 20
30.0
 30
0.0
 11
25.0
 21
30.0
 31
0.0
  0
LINE
  5
2FF
330
2F6
100
AcDbEntity
  8
SLD-0_0
  6
Continuous
 62
   179
370
    25
100
AcDbLine
 10
25.0
 20
30.0
 30
0.0
 11
25.0
 21
35.0
 31
0.0
  0
LINE
  5
300
330
2F6
100
AcDbEntity
  8
SLD-0_0
  6
Continuous
 62
   179
370
    25
100
AcDbLine
 10
25.0
 20
35.0
 30
0.0
 11
15.0
 21
35.0
 31
0.0
  0
LINE
  5
301
330
2F6
100
AcDbEntity
  8
SLD-0_0
  6
Continuous
 62
   179
370
    25
100
AcDbLine
 10
15.0
 20
35.0
 30
0.0
 11
15.0
 21
30.0
 31
0.0
  0
LINE
  5
302
330
2F6
100
AcDbEntity
  8
SLD-0_0
  6
Continuous
 62
   179
370
    25
100
AcDbLine
 10
15.0
 20
30.0
 30
0.0
 11
5.0
 21
30.0
 31
0.0
  0
LINE
  5
303
330
2F6
100
AcDbEntity
  8
SLD-0_0
  6
Continuous
 62
   179
370
    25
100
AcDbLine
 10
5.0
 20
30.0
 30
0.0
 11
5.0
 21
23.0
 31
0.0
  0
LINE
  5
304
330
2F6
100
AcDbEntity
  8
SLD-0_0
  6
Continuous
 62
   179
370
    25
100
AcDbLine
 10
5.0
 20
23.0
 30
0.0
 11
0.0
 21
23.0
 31
0.0
  0
LINE
  5
305
330
2F6
100
AcDbEntity
  8
SLD-0_0
  6
Continuous
 62
   179
370
    25
100
AcDbLine
 10
0.0
 20
23.0
 30
0.0
 11
0.0
 21
12.0
 31
0.0
  0
LINE
  5
306
330
2F6
100
AcDbEntity
  8
SLD-0_0
  6
Continuous
 62
   179
370
    25
100
AcDbLine
 10
0.0
 20
12.0
 30
0.0
 11
5.0
 21
12.0
 31
0.0
  0
LINE
  5
307
330
2F6
100
AcDbEntity
  8
SLD-0_0
  6
Continuous
 62
   179
370
    25
100
AcDbLine
 10
5.0
 20
12.0
 30
0.0
 11
5.0
 21
5.0
 31
0.0
  0
LINE
  5
308
330
2F6
100
AcDbEntity
  8
SLD-0_0
  6
Continuous
 62
   179
370
    25
100
AcDbLine
 10
5.0
 20
5.0
 30
0.0
 11
15.0
 21
5.0
 31
0.0
  0
LINE
  5
309
330
2F6
100
AcDbEntity
  8
SLD-0_0
  6
Continuous
 62
   179
370
    25
100
AcDbLine
 10
15.0
 20
5.0
 30
0.0
 11
15.0
 21
0.0
 31
0.0
  0
LINE
  5
30A
330
2F6
100
AcDbEntity
  8
SLD-0_0
  6
Continuous
 62
   179
370
    25
100
AcDbLine
 10
15.0
 20
0.0
 30
0.0
 11
25.0
 21
0.0
 31
0.0
  0
LINE
  5
30B
330
2F6
100
AcDbEntity
  8
SLD-0_0
  6
Continuous
 62
   179
370
    25
100
AcDbLine
 10
25.0
 20
0.0
 30
0.0
 11
25.0
 21
5.0
 31
0.0
  0
LINE
  5
30C
330
2F6
100
AcDbEntity
  8
SLD-0_0
  6
Continuous
 62
   179
370
    25
100
AcDbLine
 10
25.0
 20
5.0
 30
0.0
 11
45.0
 21
5.0
 31
0.0
  0
LINE
  5
30D
330
2F6
100
AcDbEntity
  8
SLD-0_0
  6
Continuous
 62
   179
370
    25
100
AcDbLine
 10
45.0
 20
5.0
 30
0.0
 11
45.0
 21
0.0
 31
0.0
  0
LINE
  5
30E
330
2F6
100
AcDbEntity
  8
SLD-0_0
  6
Continuous
 62
   179
370
    25
100
AcDbLine
 10
45.0
 20
0.0
 30
0.0
 11
55.0
 21
0.0
 31
0.0
  0
LINE
  5
30F
330
2F6
100
AcDbEntity
  8
SLD-0_0
  6
Continuous
 62
   179
370
    25
100
AcDbLine
 10
55.0
 20
0.0
 30
0.0
 11
55.0
 21
5.0
 31
0.0
  0
LINE
  5
310
330
2F6
100
AcDbEntity
  8
SLD-0_0
  6
Continuous
 62
   179
370
    25
100
AcDbLine
 10
55.0
 20
5.0
 30
0.0
 11
65.0
 21
5.0
 31
0.0
  0
LINE
  5
311
330
2F6
100
AcDbEntity
  8
SLD-0_0
  6
Continuous
 62
   179
370
    25
100
AcDbLine
 10
65.0
 20
5.0
 30
0.0
 11
65.0
 21
12.0
 31
0.0
  0
LINE
  5
312
330
2F6
100
AcDbEntity
  8
SLD-0_0
  6
Continuous
 62
   179
370
    25
100
AcDbLine
 10
65.0
 20
12.0
 30
0.0
 11
70.0
 21
12.0
 31
0.0
  0
LINE
  5
313
330
2F6
100
AcDbEntity
  8
SLD-0_0
  6
Continuous
 62
   179
370
    25
100
AcDbLine
 10
70.0
 20
12.0
 30
0.0
 11
70.0
 21
23.0
 31
0.0
  0
LINE
  5
314
330
2F6
100
AcDbEntity
  8
SLD-0_0
  6
Continuous
 62
   179
370
    25
100
AcDbLine
 10
70.0
 20
23.0
 30
0.0
 11
65.0
 21
23.0
 31
0.0
  0
LINE
  5
315
330
2F6
100
AcDbEntity
  8
SLD-0_0
  6
Continuous
 62
   179
370
    25
100
AcDbLine
 10
55.0
 20
12.5
 30
0.0
 11
55.0
 21
22.5
 31
0.0
  0
LINE
  5
316
330
2F6
100
AcDbEntity
  8
SLD-0_0
  6
Continuous
 62
   179
370
    25
100
AcDbLine
 10
15.0
 20
12.5
 30
0.0
 11
55.0
 21
12.5
 31
0.0
  0
LINE
  5
317
330
2F6
100
AcDbEntity
  8
SLD-0_0
  6
Continuous
 62
   179
370
    25
100
AcDbLine
 10
15.0
 20
22.5
 30
0.0
 11
15.0
 21
12.5
 31
0.0
  0
LINE
  5
318
330
2F6
100
AcDbEntity
  8
SLD-0_0
  6
Continuous
 62
   179
370
    25
100
AcDbLine
 10
55.0
 20
22.5
 30
0.0
 11
15.0
 21
22.5
 31
0.0
  0
ENDBLK
  5
2F8
330
2F6
100
AcDbEntity
  8
0
100
AcDbBlockEnd
  0
BLOCK
  5
31A
330
319
100
AcDbEntity
  8
0
100
AcDbBlockBegin
  2
ball_holder_small
 70
     0
 10
0.0
 20
0.0
 30
0.0
  3
ball_holder_small
  1

  0
ARC
  5
31C
330
319
100
AcDbEntity
  8
0
  6
Continuous
 62
   179
370
    25
100
AcDbCircle
 10
10.0
 20
2.5
 30
0.0
 40
3.500000000005887
100
AcDbArc
 50
314.4153085972
 51
44.4153085974
  0
ARC
  5
31D
330
319
100
AcDbEntity
  8
0
  6
Continuous
 62
   179
370
    25
100
AcDbCircle
 10
10.0
 20
2.5
 30
0.0
 40
3.500000000005886
100
AcDbArc
 50
135.5846914028
 51
225.5846914026
  0
LINE
  5
31E
330
319
100
AcDbEntity
  8
0
  6
Continuous
 62
   179
370
    25
100
AcDbLine
 10
12.5
 20
8.0
 30
0.0
 11
12.5
 21
4.9494897428
 31
0.0
  0
LINE
  5
31F
330
319
100
AcDbEntity
  8
0
  6
Continuous
 62
   179
370
    25
100
AcDbLine
 10
12.4494897428
 20
0.0
 30
0.0
 11
14.4494897428
 21
0.0
 31
0.0
  0
LINE
  5
320
330
319
100
AcDbEntity
  8
0
  6
Continuous
 62
   179
370
    25
100
AcDbLine
 10
14.4494897428
 20
0.0
 30
0.0
 11
20.0
 21
3.1753661377
 31
0.0
  0
LINE
  5
321
330
319
100
AcDbEntity
  8
0
  6
Continuous
 62
   179
370
    25
100
AcDbLine
 10
20.0
 20
3.1753661377
 30
0.0
 11
20.0
 21
8.0
 31
0.0
  0
LINE
  5
322
330
319
100
AcDbEntity
  8
0
  6
Continuous
 62
   179
370
    25
100
AcDbLine
 10
20.0
 20
8.0
 30
0.0
 11
17.5
 21
8.0
 31
0.0
  0
LINE
  5
323
330
319
100
AcDbEntity
  8
0
  6
Continuous
 62
   179
370
    25
100
AcDbLine
 10
17.5
 20
8.0
 30
0.0
 11
17.5
 21
13.0
 31
0.0
  0
LINE
  5
324
330
319
100
AcDbEntity
  8
0
  6
Continuous
 62
   179
370
    25
100
AcDbLine
 10
17.5
 20
13.0
 30
0.0
 11
2.5
 21
13.0
 31
0.0
  0
LINE
  5
325
330
319
100
AcDbEntity
  8
0
  6
Continuous
 62
   179
370
    25
100
AcDbLine
 10
2.5
 20
13.0
 30
0.0
 11
2.5
 21
8.0
 31
0.0
  0
LINE
  5
326
330
319
100
AcDbEntity
  8
0
  6
Continuous
 62
   179
370
    25
100
AcDbLine
 10
2.5
 20
8.0
 30
0.0
 11
0.0
 21
8.0
 31
0.0
  0
LINE
  5
327
330
319
100
AcDbEntity
  8
0
  6
Continuous
 62
   179
370
    25
100
AcDbLine
 10
0.0
 20
8.0
 30
0.0
 11
0.0
 21
3.1753661377
 31
0.0
  0
LINE
  5
328
330
319
100
AcDbEntity
  8
0
  6
Continuous
 62
   179
370
    25
100
AcDbLine
 10
0.0
 20
3.1753661377
 30
0.0
 11
5.5505102572
 21
0.0
 31
0.0
  0
LINE
  5
329
330
319
100
AcDbEntity
  8
0
  6
Continuous
 62
   179
370
    25
100
AcDbLine
 10
5.5505102572
 20
0.0
 30
0.0
 11
7.5505102572
 21
0.0
 31
0.0
  0
LINE
  5
32A
330
319
100
AcDbEntity
  8
0
  6
Continuous
 62
   179
370
    25
100
AcDbLine
 10
7.5
 20
4.9494897428
 30
0.0
 11
7.5
 21
8.0
 31
0.0
  0
LINE
  5
32B
330
319
100
AcDbEntity
  8
0
  6
Continuous
 62
   179
370
    25
100
AcDbLine
 10
7.5
 20
8.0
 30
0.0
 11
12.5
 21
8.0
 31
0.0
  0
ENDBLK
  5
31B
330
319
100
AcDbEntity
  8
0
100
AcDbBlockEnd
  0
BLOCK
  5
32D
330
32C
100
AcDbEntity
  8
0
100
AcDbBlockBegin
  2
ball_holder
 70
     0
 10
0.0
 20
0.0
 30
0.0
  3
ball_holder
  1

  0
ARC
  5
32F
330
32C
100
AcDbEntity
  8
0
  6
Continuous
 62
   179
370
    25
100
AcDbCircle
 10
10.0
 20
2.5
 30
0.0
 40
3.500000000000001
100
AcDbArc
 50
314.4153085972
 51
225.5846914028
  0
LINE
  5
330
330
32C
100
AcDbEntity
  8
0
  6
Continuous
 62
   179
370
    25
100
AcDbLine
 10
12.4494897428
 20
0.0
 30
0.0
 11
14.4494897428
 21
0.0
 31
0.0
  0
LINE
  5
331
330
32C
100
AcDbEntity
  8
0
  6
Continuous
 62
   179
370
    25
100
AcDbLine
 10
14.4494897428
 20
0.0
 30
0.0
 11
20.0
 21
4.0
 31
0.0
  0
LINE
  5
332
330
32C
100
AcDbEntity
  8
0
  6
Continuous
 62
   179
370
    25
100
AcDbLine
 10
20.0
 20
4.0
 30
0.0
 11
20.0
 21
8.0
 31
0.0
  0
LINE
  5
333
330
32C
100
AcDbEntity
  8
0
  6
Continuous
 62
   179
370
    25
100
AcDbLine
 10
20.0
 20
8.0
 30
0.0
 11
17.5
 21
8.0
 31
0.0
  0
LINE
  5
334
330
32C
100
AcDbEntity
  8
0
  6
Continuous
 62
   179
370
    25
100
AcDbLine
 10
17.5
 20
8.0
 30
0.0
 11
17.5
 21
53.0
 31
0.0
  0
LINE
  5
335
330
32C
100
AcDbEntity
  8
0
  6
Continuous
 62
   179
370
    25
100
AcDbLine
 10
17.5
 20
53.0
 30
0.0
 11
2.5
 21
53.0
 31
0.0
  0
LINE
  5
336
330
32C
100
AcDbEntity
  8
0
  6
Continuous
 62
   179
370
    25
100
AcDbLine
 10
2.5
 20
53.0
 30
0.0
 11
2.5
 21
8.0
 31
0.0
  0
LINE
  5
337
330
32C
100
AcDbEntity
  8
0
  6
Continuous
 62
   179
370
    25
100
AcDbLine
 10
2.5
 20
8.0
 30
0.0
 11
0.0
 21
8.0
 31
0.0
  0
LINE
  5
338
330
32C
100
AcDbEntity
  8
0
  6
Continuous
 62
   179
370
    25
100
AcDbLine
 10
0.0
 20
8.0
 30
0.0
 11
0.0
 21
4.0
 31
0.0
  0
LINE
  5
339
330
32C
100
AcDbEntity
  8
0
  6
Continuous
 62
   179
370
    25
100
AcDbLine
 10
0.0
 20
4.0
 30
0.0
 11
5.5505102572
 21
0.0
 31
0.0
  0
LINE
  5
33A
330
32C
100
AcDbEntity
  8
0
  6
Continuous
 62
   179
370
    25
100
AcDbLine
 10
5.5505102572
 20
0.0
 30
0.0
 11
7.5505102572
 21
0.0
 31
0.0
  0
LINE
  5
33B
330
32C
100
AcDbEntity
  8
0
  6
Continuous
 62
   179
370
    25
100
AcDbLine
 10
5.0
 20
43.0
 30
0.0
 11
15.0
 21
43.0
 31
0.0
  0
LINE
  5
33C
330
32C
100
AcDbEntity
  8
0
  6
Continuous
 62
   179
370
    25
100
AcDbLine
 10
5.0
 20
48.0
 30
0.0
 11
5.0
 21
43.0
 31
0.0
  0
LINE
  5
33D
330
32C
100
AcDbEntity
  8
0
  6
Continuous
 62
   179
370
    25
100
AcDbLine
 10
15.0
 20
48.0
 30
0.0
 11
5.0
 21
48.0
 31
0.0
  0
LINE
  5
33E
330
32C
100
AcDbEntity
  8
0
  6
Continuous
 62
   179
370
    25
100
AcDbLine
 10
15.0
 20
43.0
 30
0.0
 11
15.0
 21
48.0
 31
0.0
  0
LINE
  5
33F
330
32C
100
AcDbEntity
  8
0
  6
Continuous
 62
   179
370
    25
100
AcDbLine
 10
7.5
 20
8.0
 30
0.0
 11
12.5
 21
8.0
 31
0.0
  0
LINE
  5
340
330
32C
100
AcDbEntity
  8
0
  6
Continuous
 62
   179
370
    25
100
AcDbLine
 10
7.5
 20
22.0
 30
0.0
 11
7.5
 21
8.0
 31
0.0
  0
LINE
  5
341
330
32C
100
AcDbEntity
  8
0
  6
Continuous
 62
   179
370
    25
100
AcDbLine
 10
12.5
 20
22.0
 30
0.0
 11
7.5
 21
22.0
 31
0.0
  0
LINE
  5
342
330
32C
100
AcDbEntity
  8
0
  6
Continuous
 62
   179
370
    25
100
AcDbLine
 10
12.5
 20
8.0
 30
0.0
 11
12.5
 21
22.0
 31
0.0
  0
ENDBLK
  5
32E
330
32C
100
AcDbEntity
  8
0
100
AcDbBlockEnd
  0
BLOCK
  5
344
330
343
100
AcDbEntity
  8
0
100
AcDbBlockBegin
  2
Block17
 70
     0
 10
0.0
 20
0.0
 30
0.0
  3
Block17
  1

  0
LINE
  5
346
330
343
100
AcDbEntity
  8
0
  6
Continuous
 62
   179
370
    25
100
AcDbLine
 10
20.0
 20
5.0
 30
0.0
 11
20.0
 21
10.0
 31
0.0
  0
LINE
  5
347
330
343
100
AcDbEntity
  8
0
  6
Continuous
 62
   179
370
    25
100
AcDbLine
 10
15.0
 20
5.0
 30
0.0
 11
20.0
 21
5.0
 31
0.0
  0
LINE
  5
348
330
343
100
AcDbEntity
  8
0
  6
Continuous
 62
   179
370
    25
100
AcDbLine
 10
15.0
 20
0.0
 30
0.0
 11
15.0
 21
5.0
 31
0.0
  0
LINE
  5
349
330
343
100
AcDbEntity
  8
0
  6
Continuous
 62
   179
370
    25
100
AcDbLine
 10
5.0
 20
0.0
 30
0.0
 11
15.0
 21
0.0
 31
0.0
  0
LINE
  5
34A
330
343
100
AcDbEntity
  8
0
  6
Continuous
 62
   179
370
    25
100
AcDbLine
 10
5.0
 20
5.0
 30
0.0
 11
5.0
 21
0.0
 31
0.0
  0
LINE
  5
34B
330
343
100
AcDbEntity
  8
0
  6
Continuous
 62
   179
370
    25
100
AcDbLine
 10
0.0
 20
5.0
 30
0.0
 11
5.0
 21
5.0
 31
0.0
  0
LINE
  5
34C
330
343
100
AcDbEntity
  8
0
  6
Continuous
 62
   179
370
    25
100
AcDbLine
 10
0.0
 20
10.0
 30
0.0
 11
0.0
 21
5.0
 31
0.0
  0
LINE
  5
34D
330
343
100
AcDbEntity
  8
0
  6
Continuous
 62
   179
370
    25
100
AcDbLine
 10
20.0
 20
10.0
 30
0.0
 11
0.0
 21
10.0
 31
0.0
  0
ENDBLK
  5
345
330
343
100
AcDbEntity
  8
0
100
AcDbBlockEnd
  0
ENDSEC
  0
SECTION
  2
ENTITIES
  0
INSERT
  5
34E
330
1F
100
AcDbEntity
  8
0
  6
Continuous
 62
     7
100
AcDbBlockReference
  2
ball_holder_small
 10
-169.6748692702
 20
400.8885793277
 30
0.0
  0
INSERT
  5
34F
330
1F
100
AcDbEntity
  8
0
  6
Continuous
 62
     7
100
AcDbBlockReference
  2
ball_holder_small
 10
-132.7160470534
 20
400.8885793277
 30
0.0
  0
INSERT
  5
350
330
1F
100
AcDbEntity
  8
0
  6
Continuous
 62
     7
100
AcDbBlockReference
  2
WALL_SMALL
 10
432.4814598653
 20
-140.9054720328
 30
0.0
  0
INSERT
  5
351
330
1F
100
AcDbEntity
  8
0
  6
Continuous
 62
     7
100
AcDbBlockReference
  2
WALL_BIG
 10
283.8197628297
 20
-134.3275208365
 30
0.0
  0
INSERT
  5
352
330
1F
100
AcDbEntity
  8
0
  6
Continuous
 62
     7
100
AcDbBlockReference
  2
WALL_FRONT
 10
27.2796661753
 20
-77.7571405486
 30
0.0
  0
INSERT
  5
353
330
1F
100
AcDbEntity
  8
0
  6
Continuous
 62
     7
100
AcDbBlockReference
  2
WALL_BIG
 10
283.8197628297
 20
-80.3883210271
 30
0.0
  0
INSERT
  5
354
330
1F
100
AcDbEntity
  8
0
  6
Continuous
 62
     7
100
AcDbBlockReference
  2
WALL_MEDIUM
 10
521.9415961345
 20
-81.7039112664
 30
0.0
  0
INSERT
  5
355
330
1F
100
AcDbEntity
  8
0
  6
Continuous
 62
     7
100
AcDbBlockReference
  2
WALL_MEDIUM
 10
431.165869626
 20
-81.7039112664
 30
0.0
  0
INSERT
  5
356
330
1F
100
AcDbEntity
  8
0
  6
Continuous
 62
     7
100
AcDbBlockReference
  2
WALL_BIG
 10
175.9413632109
 20
-80.3883210271
 30
0.0
  0
INSERT
  5
357
330
1F
100
AcDbEntity
  8
0
  6
Continuous
 62
     7
100
AcDbBlockReference
  2
CLAMP_SMALL
 10
499.5765620672
 20
95.9007710328
 30
0.0
  0
INSERT
  5
358
330
1F
100
AcDbEntity
  8
0
  6
Continuous
 62
     7
100
AcDbBlockReference
  2
WALL_SMALL
 10
528.5195473307
 20
-140.9054720328
 30
0.0
  0
INSERT
  5
359
330
1F
100
AcDbEntity
  8
0
  6
Continuous
 62
     7
100
AcDbBlockReference
  2
WALL_BIG
 10
175.9413632109
 20
-134.3275208365
 30
0.0
  0
INSERT
  5
35A
330
1F
100
AcDbEntity
  8
0
  6
Continuous
 62
     7
100
AcDbBlockReference
  2
CLAMP_BIG
 10
461.4244451288
 20
128.7905270141
 30
0.0
  0
INSERT
  5
35B
330
1F
100
AcDbEntity
  8
0
  6
Continuous
 62
     7
100
AcDbBlockReference
  2
CLAMP_BIG
 10
461.4244451288
 20
219.5662535226
 30
0.0
  0
INSERT
  5
35C
330
1F
100
AcDbEntity
  8
0
  6
Continuous
 62
     7
100
AcDbBlockReference
  2
MOTOR_HOLDER
 10
-244.1460201942
 20
544.0418814815
 30
0.0
  0
INSERT
  5
35D
330
1F
100
AcDbEntity
  8
0
  6
Continuous
 62
     7
100
AcDbBlockReference
  2
CLAMP_BIG
 10
470.6335768036
 20
185.360907302
 30
0.0
  0
INSERT
  5
35E
330
1F
100
AcDbEntity
  8
0
  6
Continuous
 62
     7
100
AcDbBlockReference
  2
CLAMP_SMALL
 10
499.5765620672
 20
24.8588981131
 30
0.0
  0
INSERT
  5
35F
330
1F
100
AcDbEntity
  8
0
  6
Continuous
 62
     7
100
AcDbBlockReference
  2
MOTOR_HOLDER
 10
-244.1460201942
 20
483.4476781084
 30
0.0
  0
INSERT
  5
360
330
1F
100
AcDbEntity
  8
0
  6
Continuous
 62
     7
100
AcDbBlockReference
  2
CLAMP_SMALL
 10
499.5765620672
 20
57.262377894
 30
0.0
  0
INSERT
  5
361
330
1F
100
AcDbEntity
  8
0
  6
Continuous
 62
     7
100
AcDbBlockReference
  2
CLAMP_SMALL
 10
529.83513757
 20
24.8588981131
 30
0.0
  0
INSERT
  5
362
330
1F
100
AcDbEntity
  8
0
  6
Continuous
 62
     7
100
AcDbBlockReference
  2
CLAMP_SMALL
 10
466.4244451288
 20
95.9007710328
 30
0.0
  0
INSERT
  5
363
330
1F
100
AcDbEntity
  8
0
  6
Continuous
 62
     7
100
AcDbBlockReference
  2
TOP_SMALL
 10
-348.7333168003
 20
328.445985277
 30
0.0
  0
INSERT
  5
364
330
1F
100
AcDbEntity
  8
0
  6
Continuous
 62
     7
100
AcDbBlockReference
  2
CLAMP_SMALL
 10
466.4244451288
 20
57.262377894
 30
0.0
  0
INSERT
  5
365
330
1F
100
AcDbEntity
  8
0
  6
Continuous
 62
     7
100
AcDbBlockReference
  2
CLAMP_BIG
 10
461.4244451288
 20
155.1023317992
 30
0.0
  0
INSERT
  5
366
330
1F
100
AcDbEntity
  8
0
  6
Continuous
 62
     7
100
AcDbBlockReference
  2
CLAMP_SMALL
 10
466.4244451288
 20
24.8588981131
 30
0.0
  0
INSERT
  5
367
330
1F
100
AcDbEntity
  8
0
  6
Continuous
 62
     7
100
AcDbBlockReference
  2
CLAMP_SMALL
 10
529.83513757
 20
57.262377894
 30
0.0
  0
INSERT
  5
368
330
1F
100
AcDbEntity
  8
0
  6
Continuous
 62
     7
100
AcDbBlockReference
  2
ball_holder
 10
-169.6839012404
 20
337.4525363561
 30
0.0
  0
INSERT
  5
369
330
1F
100
AcDbEntity
  8
0
  6
Continuous
 62
     7
100
AcDbBlockReference
  2
ball_holder
 10
-131.7496262378
 20
337.4525363561
 30
0.0
  0
INSERT
  5
36A
330
1F
100
AcDbEntity
  8
0
  6
Continuous
 62
     7
100
AcDbBlockReference
  2
Block17
 10
562.6971631457
 20
97.2731704054
 30
0.0
  0
INSERT
  5
36B
330
1F
100
AcDbEntity
  8
0
  6
Continuous
 62
     7
100
AcDbBlockReference
  2
Block17
 10
562.6971631457
 20
57.7991482861
 30
0.0
  0
INSERT
  5
36C
330
1F
100
AcDbEntity
  8
0
  6
Continuous
 62
     7
100
AcDbBlockReference
  2
BAG_INTO_SIDE
 10
267.3750445523
 20
67.4710202375
 30
0.0
  0
INSERT
  5
36D
330
1F
100
AcDbEntity
  8
0
  6
Continuous
 62
     7
100
AcDbBlockReference
  2
BAG_SIDE
 10
-229.0183815059
 20
209.2224338359
 30
0.0
  0
INSERT
  5
36E
330
1F
100
AcDbEntity
  8
0
  6
Continuous
 62
     7
100
AcDbBlockReference
  2
BAG_SIDE
 10
-229.0183815059
 20
128.0710669432
 30
0.0
  0
INSERT
  5
36F
330
1F
100
AcDbEntity
  8
0
  6
Continuous
 62
     7
100
AcDbBlockReference
  2
BAG_INTO_SIDE
 10
311.6394264938
 20
10.0327150992
 30
0.0
  0
INSERT
  5
370
330
1F
100
AcDbEntity
  8
0
  6
Continuous
 62
     7
100
AcDbBlockReference
  2
BAG_FRONT
 10
250.5124228603
 20
205.5337353408
 30
0.0
  0
INSERT
  5
371
330
1F
100
AcDbEntity
  8
0
  6
Continuous
 62
     7
100
AcDbBlockReference
  2
BAG_TOP_FIRST
 10
-221.6409845156
 20
1.6014042532
 30
0.0
  0
INSERT
  5
372
330
1F
100
AcDbEntity
  8
0
  6
Continuous
 62
     7
100
AcDbBlockReference
  2
BOTTOM_MAIN
 10
-531.549522539
 20
421.1482230966
 30
0.0
  0
INSERT
  5
373
330
1F
100
AcDbEntity
  8
0
  6
Continuous
 62
     7
100
AcDbBlockReference
  2
BAG_TOP_SECOND
 10
-23.3233277573
 20
265.6068251185
 30
0.0
  0
INSERT
  5
374
330
1F
100
AcDbEntity
  8
0
  6
Continuous
 62
     7
100
AcDbBlockReference
  2
CLAMP_SMALL
 10
529.83513757
 20
95.9007710328
 30
0.0
  0
INSERT
  5
375
330
1F
100
AcDbEntity
  8
0
  6
Continuous
 62
     7
100
AcDbBlockReference
  2
BACK
 10
257.8898198506
 20
127.0171530874
 30
0.0
  0
INSERT
  5
376
330
1F
100
AcDbEntity
  8
0
  6
Continuous
 62
     7
100
AcDbBlockReference
  2
TOP_MAIN
 10
-534.1807030175
 20
140.9275021357
 30
0.0
  0
ENDSEC
  0
SECTION
  2
OBJECTS
  0
DICTIONARY
  5
C
330
0
100
AcDbDictionary
281
     1
  3
ACAD_GROUP
350
D
  3
ACAD_LAYOUT
350
1A
  3
ACAD_MLINESTYLE
350
17
  3
ACAD_PLOTSETTINGS
350
19
  3
ACAD_PLOTSTYLENAME
350
E
  3
ACAD_SCALELIST
350
47
  0
DICTIONARY
  5
D
102
{ACAD_REACTORS
330
C
102
}
330
C
100
AcDbDictionary
281
     1
  0
DICTIONARY
  5
1A
102
{ACAD_REACTORS
330
C
102
}
330
C
100
AcDbDictionary
281
     1
  3
Layout1
350
1E
  3
Layout2
350
26
  3
Model
350
22
  0
DICTIONARY
  5
17
102
{ACAD_REACTORS
330
C
102
}
330
C
100
AcDbDictionary
281
     1
  3
Standard
350
18
  0
DICTIONARY
  5
19
102
{ACAD_REACTORS
330
C
102
}
330
C
100
AcDbDictionary
281
     1
  0
ACDBDICTIONARYWDFLT
  5
E
102
{ACAD_REACTORS
330
C
102
}
330
C
100
AcDbDictionary
281
     1
  3
Normal
350
F
100
AcDbDictionaryWithDefault
340
F
  0
DICTIONARY
  5
47
102
{ACAD_REACTORS
330
C
102
}
330
C
100
AcDbDictionary
281
     1
  3
A0
350
48
  3
A1
350
49
  3
A2
350
4A
  3
A3
350
4B
  3
A4
350
4C
  3
A5
350
4D
  3
A6
350
4E
  3
A7
350
4F
  3
A8
350
50
  3
A9
350
51
  3
B0
350
52
  3
B1
350
53
  3
B2
350
54
  3
B3
350
55
  3
B4
350
56
  3
B5
350
57
  3
B6
350
58
  3
B7
350
59
  3
B8
350
5A
  3
B9
350
5B
  3
C0
350
5C
  3
C1
350
5D
  3
C2
350
5E
  3
C3
350
5F
  3
C4
350
60
  3
C5
350
61
  3
C6
350
62
  3
C7
350
63
  3
C8
350
64
  3
C9
350
65
  3
D0
350
66
  3
D1
350
67
  3
D2
350
68
  0
LAYOUT
  5
1E
102
{ACAD_REACTORS
330
1A
102
}
330
1A
100
AcDbPlotSettings
  1

  2
none_device
  4

  6

 40
0.0
 41
0.0
 42
0.0
 43
0.0
 44
0.0
 45
0.0
 46
0.0
 47
0.0
 48
0.0
 49
0.0
140
0.0
141
0.0
142
1.0
143
1.0
 70
   688
 72
     1
 73
     0
 74
     5
  7

 75
    16
147
1.0
148
0.0
149
0.0
100
AcDbLayout
  1
Layout1
 70
     1
 71
     1
 10
0.0
 20
0.0
 11
420.0
 21
297.0
 12
0.0
 22
0.0
 32
0.0
 14
1.0000000000E+20
 24
1.0000000000E+20
 34
1.0000000000E+20
 15
-1.0000000000E+20
 25
-1.0000000000E+20
 35
-1.0000000000E+20
146
0.0
 13
0.0
 23
0.0
 33
0.0
 16
1.0
 26
0.0
 36
0.0
 17
0.0
 27
1.0
 37
0.0
 76
     0
330
1B
  0
LAYOUT
  5
26
102
{ACAD_REACTORS
330
1A
102
}
330
1A
100
AcDbPlotSettings
  1

  2
none_device
  4

  6

 40
0.0
 41
0.0
 42
0.0
 43
0.0
 44
0.0
 45
0.0
 46
0.0
 47
0.0
 48
0.0
 49
0.0
140
0.0
141
0.0
142
1.0
143
1.0
 70
   688
 72
     1
 73
     0
 74
     5
  7

 75
    16
147
1.0
148
0.0
149
0.0
100
AcDbLayout
  1
Layout2
 70
     1
 71
     2
 10
0.0
 20
0.0
 11
0.0
 21
0.0
 12
0.0
 22
0.0
 32
0.0
 14
0.0
 24
0.0
 34
0.0
 15
0.0
 25
0.0
 35
0.0
146
0.0
 13
0.0
 23
0.0
 33
0.0
 16
1.0
 26
0.0
 36
0.0
 17
0.0
 27
1.0
 37
0.0
 76
     0
330
23
  0
LAYOUT
  5
22
102
{ACAD_REACTORS
330
1A
102
}
330
1A
100
AcDbPlotSettings
  1

  2
none_device
  4
Letter_(8.50_x_11.00_Inches)
  6

 40
6.35
 41
6.35
 42
6.35000508
 43
6.35000508
 44
215.9
 45
279.4
 46
0.0
 47
0.0
 48
0.0
 49
0.0
140
0.0
141
0.0
142
1.0
143
1.0
 70
  1712
 72
     1
 73
     0
 74
     0
  7

 75
     0
147
1.0
148
0.0
149
0.0
100
AcDbLayout
  1
Model
 70
     1
 71
     0
 10
0.0
 20
0.0
 11
420.0
 21
297.0
 12
0.0
 22
0.0
 32
0.0
 14
0.0
 24
0.0
 34
0.0
 15
420.0
 25
297.0
 35
0.0
146
0.0
 13
0.0
 23
0.0
 33
0.0
 16
1.0
 26
0.0
 36
0.0
 17
0.0
 27
1.0
 37
0.0
 76
     0
330
1F
331
29
  0
MLINESTYLE
  5
18
102
{ACAD_REACTORS
330
17
102
}
330
17
100
AcDbMlineStyle
  2
Standard
 70
     0
  3

 62
   256
 51
90.0
 52
90.0
 71
     2
 49
0.5
 62
   256
  6
BYLAYER
 49
-0.5
 62
   256
  6
BYLAYER
  0
ACDBPLACEHOLDER
  5
F
102
{ACAD_REACTORS
330
E
102
}
330
E
  0
SCALE
  5
48
102
{ACAD_REACTORS
330
47
102
}
330
47
100
AcDbScale
 70
     0
300
1:1
140
1.0
141
1.0
290
     1
  0
SCALE
  5
49
102
{ACAD_REACTORS
330
47
102
}
330
47
100
AcDbScale
 70
     0
300
1:2
140
1.0
141
2.0
290
     0
  0
SCALE
  5
4A
102
{ACAD_REACTORS
330
47
102
}
330
47
100
AcDbScale
 70
     0
300
1:4
140
1.0
141
4.0
290
     0
  0
SCALE
  5
4B
102
{ACAD_REACTORS
330
47
102
}
330
47
100
AcDbScale
 70
     0
300
1:5
140
1.0
141
5.0
290
     0
  0
SCALE
  5
4C
102
{ACAD_REACTORS
330
47
102
}
330
47
100
AcDbScale
 70
     0
300
1:8
140
1.0
141
8.0
290
     0
  0
SCALE
  5
4D
102
{ACAD_REACTORS
330
47
102
}
330
47
100
AcDbScale
 70
     0
300
1:10
140
1.0
141
10.0
290
     0
  0
SCALE
  5
4E
102
{ACAD_REACTORS
330
47
102
}
330
47
100
AcDbScale
 70
     0
300
1:16
140
1.0
141
16.0
290
     0
  0
SCALE
  5
4F
102
{ACAD_REACTORS
330
47
102
}
330
47
100
AcDbScale
 70
     0
300
1:20
140
1.0
141
20.0
290
     0
  0
SCALE
  5
50
102
{ACAD_REACTORS
330
47
102
}
330
47
100
AcDbScale
 70
     0
300
1:30
140
1.0
141
30.0
290
     0
  0
SCALE
  5
51
102
{ACAD_REACTORS
330
47
102
}
330
47
100
AcDbScale
 70
     0
300
1:40
140
1.0
141
40.0
290
     0
  0
SCALE
  5
52
102
{ACAD_REACTORS
330
47
102
}
330
47
100
AcDbScale
 70
     0
300
1:50
140
1.0
141
50.0
290
     0
  0
SCALE
  5
53
102
{ACAD_REACTORS
330
47
102
}
330
47
100
AcDbScale
 70
     0
300
1:100
140
1.0
141
100.0
290
     0
  0
SCALE
  5
54
102
{ACAD_REACTORS
330
47
102
}
330
47
100
AcDbScale
 70
     0
300
2:1
140
2.0
141
1.0
290
     0
  0
SCALE
  5
55
102
{ACAD_REACTORS
330
47
102
}
330
47
100
AcDbScale
 70
     0
300
4:1
140
4.0
141
1.0
290
     0
  0
SCALE
  5
56
102
{ACAD_REACTORS
330
47
102
}
330
47
100
AcDbScale
 70
     0
300
8:1
140
8.0
141
1.0
290
     0
  0
SCALE
  5
57
102
{ACAD_REACTORS
330
47
102
}
330
47
100
AcDbScale
 70
     0
300
10:1
140
10.0
141
1.0
290
     0
  0
SCALE
  5
58
102
{ACAD_REACTORS
330
47
102
}
330
47
100
AcDbScale
 70
     0
300
100:1
140
100.0
141
1.0
290
     0
  0
SCALE
  5
59
102
{ACAD_REACTORS
330
47
102
}
330
47
100
AcDbScale
 70
     0
300
1/128" = 1'-0"
140
0.0078125
141
12.0
290
     0
  0
SCALE
  5
5A
102
{ACAD_REACTORS
330
47
102
}
330
47
100
AcDbScale
 70
     0
300
1/64" = 1'-0"
140
0.015625
141
12.0
290
     0
  0
SCALE
  5
5B
102
{ACAD_REACTORS
330
47
102
}
330
47
100
AcDbScale
 70
     0
300
1/32" = 1'-0"
140
0.03125
141
12.0
290
     0
  0
SCALE
  5
5C
102
{ACAD_REACTORS
330
47
102
}
330
47
100
AcDbScale
 70
     0
300
1/16" = 1'-0"
140
0.0625
141
12.0
290
     0
  0
SCALE
  5
5D
102
{ACAD_REACTORS
330
47
102
}
330
47
100
AcDbScale
 70
     0
300
3/32" = 1'-0"
140
0.09375
141
12.0
290
     0
  0
SCALE
  5
5E
102
{ACAD_REACTORS
330
47
102
}
330
47
100
AcDbScale
 70
     0
300
1/8" = 1'-0"
140
0.125
141
12.0
290
     0
  0
SCALE
  5
5F
102
{ACAD_REACTORS
330
47
102
}
330
47
100
AcDbScale
 70
     0
300
3/16" = 1'-0"
140
0.1875
141
12.0
290
     0
  0
SCALE
  5
60
102
{ACAD_REACTORS
330
47
102
}
330
47
100
AcDbScale
 70
     0
300
1/4" = 1'-0"
140
0.25
141
12.0
290
     0
  0
SCALE
  5
61
102
{ACAD_REACTORS
330
47
102
}
330
47
100
AcDbScale
 70
     0
300
3/8" = 1'-0"
140
0.375
141
12.0
290
     0
  0
SCALE
  5
62
102
{ACAD_REACTORS
330
47
102
}
330
47
100
AcDbScale
 70
     0
300
1/2" = 1'-0"
140
0.5
141
12.0
290
     0
  0
SCALE
  5
63
102
{ACAD_REACTORS
330
47
102
}
330
47
100
AcDbScale
 70
     0
300
3/4" = 1'-0"
140
0.75
141
12.0
290
     0
  0
SCALE
  5
64
102
{ACAD_REACTORS
330
47
102
}
330
47
100
AcDbScale
 70
     0
300
1" = 1'-0"
140
1.0
141
12.0
290
     0
  0
SCALE
  5
65
102
{ACAD_REACTORS
330
47
102
}
330
47
100
AcDbScale
 70
     0
300
1-1/2" = 1'-0"
140
1.5
141
12.0
290
     0
  0
SCALE
  5
66
102
{ACAD_REACTORS
330
47
102
}
330
47
100
AcDbScale
 70
     0
300
3" = 1'-0"
140
3.0
141
12.0
290
     0
  0
SCALE
  5
67
102
{ACAD_REACTORS
330
47
102
}
330
47
100
AcDbScale
 70
     0
300
6" = 1'-0"
140
6.0
141
12.0
290
     0
  0
SCALE
  5
68
102
{ACAD_REACTORS
330
47
102
}
330
47
100
AcDbScale
 70
     0
300
1'-0" = 1'-0"
140
12.0
141
12.0
290
     0
  0
ENDSEC
  0
EOF
